<svg xmlns="http://www.w3.org/2000/svg" xmlns:xlink="http://www.w3.org/1999/xlink" width="270" zoomAndPan="magnify" viewBox="0 0 202.5 119.999999" height="160" preserveAspectRatio="xMidYMid meet" version="1.0"><defs><g/><clipPath id="afaaeb4dae"><path d="M 21 23 L 201.769531 23 L 201.769531 119.105469 L 21 119.105469 Z M 21 23 " clip-rule="nonzero"/></clipPath><clipPath id="491afed324"><path d="M 11.738281 14 L 193 14 L 193 110 L 11.738281 110 Z M 11.738281 14 " clip-rule="nonzero"/></clipPath><clipPath id="0d666912cf"><path d="M 20 0.148438 L 52 0.148438 L 52 32 L 20 32 Z M 20 0.148438 " clip-rule="nonzero"/></clipPath></defs><g clip-path="url(#afaaeb4dae)"><path fill="#1c3872" d="M 201.40625 31.230469 L 201.40625 111.386719 C 201.40625 111.898438 201.359375 112.402344 201.257812 112.902344 C 201.160156 113.398438 201.011719 113.886719 200.816406 114.355469 C 200.621094 114.824219 200.382812 115.273438 200.101562 115.695312 C 199.820312 116.117188 199.496094 116.511719 199.136719 116.871094 C 198.777344 117.230469 198.386719 117.550781 197.960938 117.835938 C 197.539062 118.117188 197.09375 118.355469 196.621094 118.550781 C 196.152344 118.746094 195.667969 118.890625 195.167969 118.992188 C 194.667969 119.089844 194.164062 119.140625 193.65625 119.140625 L 28.886719 119.140625 C 28.378906 119.140625 27.875 119.089844 27.375 118.992188 C 26.875 118.890625 26.390625 118.746094 25.921875 118.550781 C 25.449219 118.355469 25.003906 118.117188 24.582031 117.835938 C 24.15625 117.550781 23.765625 117.230469 23.40625 116.871094 C 23.046875 116.511719 22.722656 116.117188 22.441406 115.695312 C 22.160156 115.273438 21.917969 114.824219 21.726562 114.355469 C 21.53125 113.886719 21.382812 113.398438 21.285156 112.902344 C 21.183594 112.402344 21.136719 111.898438 21.136719 111.386719 L 21.136719 31.230469 C 21.136719 30.722656 21.183594 30.21875 21.285156 29.71875 C 21.382812 29.21875 21.53125 28.734375 21.726562 28.265625 C 21.917969 27.796875 22.160156 27.347656 22.441406 26.925781 C 22.722656 26.5 23.046875 26.109375 23.40625 25.75 C 23.765625 25.390625 24.15625 25.070312 24.582031 24.785156 C 25.003906 24.503906 25.449219 24.265625 25.921875 24.070312 C 26.390625 23.875 26.875 23.726562 27.375 23.628906 C 27.875 23.53125 28.378906 23.480469 28.886719 23.480469 L 193.65625 23.480469 C 194.164062 23.480469 194.667969 23.53125 195.167969 23.628906 C 195.667969 23.726562 196.152344 23.875 196.621094 24.070312 C 197.09375 24.265625 197.539062 24.503906 197.960938 24.785156 C 198.386719 25.070312 198.777344 25.390625 199.136719 25.75 C 199.496094 26.109375 199.820312 26.5 200.101562 26.925781 C 200.382812 27.347656 200.621094 27.796875 200.816406 28.265625 C 201.011719 28.734375 201.160156 29.21875 201.257812 29.71875 C 201.359375 30.21875 201.40625 30.722656 201.40625 31.230469 Z M 201.40625 31.230469 " fill-opacity="1" fill-rule="nonzero"/></g><path fill="#000000" d="M 200.121094 31.253906 L 200.121094 111.367188 C 200.121094 111.792969 200.082031 112.214844 199.996094 112.632812 C 199.914062 113.050781 199.789062 113.457031 199.628906 113.851562 C 199.464844 114.242188 199.265625 114.617188 199.027344 114.972656 C 198.792969 115.324219 198.523438 115.652344 198.222656 115.953125 C 197.921875 116.253906 197.59375 116.523438 197.238281 116.761719 C 196.882812 117 196.511719 117.199219 196.117188 117.359375 C 195.722656 117.523438 195.316406 117.648438 194.898438 117.730469 C 194.480469 117.8125 194.058594 117.855469 193.632812 117.855469 L 28.910156 117.855469 C 28.484375 117.855469 28.0625 117.8125 27.644531 117.730469 C 27.226562 117.648438 26.820312 117.523438 26.425781 117.359375 C 26.03125 117.199219 25.660156 117 25.304688 116.761719 C 24.949219 116.523438 24.621094 116.253906 24.320312 115.953125 C 24.019531 115.652344 23.75 115.324219 23.515625 114.972656 C 23.277344 114.617188 23.078125 114.242188 22.914062 113.851562 C 22.753906 113.457031 22.628906 113.050781 22.546875 112.632812 C 22.464844 112.214844 22.421875 111.792969 22.421875 111.367188 L 22.421875 31.253906 C 22.421875 30.828125 22.464844 30.40625 22.546875 29.988281 C 22.628906 29.570312 22.753906 29.164062 22.914062 28.769531 C 23.078125 28.378906 23.277344 28.003906 23.515625 27.648438 C 23.75 27.296875 24.019531 26.96875 24.320312 26.667969 C 24.621094 26.367188 24.949219 26.097656 25.304688 25.859375 C 25.660156 25.621094 26.03125 25.421875 26.425781 25.261719 C 26.820312 25.097656 27.226562 24.972656 27.644531 24.890625 C 28.0625 24.808594 28.484375 24.765625 28.910156 24.765625 L 193.632812 24.765625 C 194.058594 24.765625 194.480469 24.808594 194.898438 24.890625 C 195.316406 24.972656 195.722656 25.097656 196.117188 25.261719 C 196.511719 25.421875 196.882812 25.621094 197.238281 25.859375 C 197.59375 26.097656 197.921875 26.367188 198.222656 26.667969 C 198.523438 26.96875 198.792969 27.296875 199.027344 27.648438 C 199.265625 28.003906 199.464844 28.378906 199.628906 28.769531 C 199.789062 29.164062 199.914062 29.570312 199.996094 29.988281 C 200.082031 30.40625 200.121094 30.828125 200.121094 31.253906 Z M 200.121094 31.253906 " fill-opacity="1" fill-rule="nonzero"/><path fill="#537cd1" d="M 28.929688 26.050781 L 193.613281 26.050781 C 193.953125 26.050781 194.292969 26.085938 194.628906 26.152344 C 194.96875 26.21875 195.292969 26.320312 195.609375 26.449219 C 195.925781 26.582031 196.230469 26.742188 196.515625 26.933594 C 196.800781 27.125 197.0625 27.339844 197.304688 27.582031 C 197.546875 27.824219 197.765625 28.089844 197.953125 28.375 C 198.144531 28.660156 198.304688 28.960938 198.4375 29.277344 C 198.570312 29.59375 198.667969 29.921875 198.734375 30.257812 C 198.800781 30.59375 198.835938 30.933594 198.835938 31.277344 L 198.835938 111.34375 C 198.835938 111.6875 198.800781 112.027344 198.734375 112.363281 C 198.667969 112.699219 198.570312 113.027344 198.4375 113.34375 C 198.304688 113.660156 198.144531 113.960938 197.953125 114.246094 C 197.765625 114.53125 197.546875 114.796875 197.304688 115.039062 C 197.0625 115.28125 196.800781 115.496094 196.515625 115.6875 C 196.230469 115.878906 195.925781 116.039062 195.609375 116.171875 C 195.292969 116.300781 194.96875 116.402344 194.628906 116.46875 C 194.292969 116.535156 193.953125 116.566406 193.613281 116.566406 L 28.929688 116.566406 C 28.589844 116.566406 28.25 116.535156 27.910156 116.46875 C 27.574219 116.402344 27.25 116.300781 26.933594 116.171875 C 26.613281 116.039062 26.3125 115.878906 26.027344 115.6875 C 25.742188 115.496094 25.480469 115.28125 25.238281 115.039062 C 24.996094 114.796875 24.777344 114.53125 24.585938 114.246094 C 24.398438 113.960938 24.234375 113.660156 24.105469 113.34375 C 23.972656 113.027344 23.875 112.699219 23.808594 112.363281 C 23.742188 112.027344 23.707031 111.6875 23.707031 111.34375 L 23.707031 31.277344 C 23.707031 30.933594 23.742188 30.59375 23.808594 30.257812 C 23.875 29.921875 23.972656 29.59375 24.105469 29.277344 C 24.234375 28.960938 24.398438 28.660156 24.585938 28.375 C 24.777344 28.089844 24.996094 27.824219 25.238281 27.582031 C 25.480469 27.339844 25.742188 27.125 26.027344 26.933594 C 26.3125 26.742188 26.613281 26.582031 26.933594 26.449219 C 27.25 26.320312 27.574219 26.21875 27.910156 26.152344 C 28.25 26.085938 28.589844 26.050781 28.929688 26.050781 Z M 28.929688 26.050781 " fill-opacity="1" fill-rule="nonzero"/><g clip-path="url(#491afed324)"><path fill="#1c3872" d="M 192.011719 21.835938 L 192.011719 101.992188 C 192.011719 102.503906 191.964844 103.007812 191.863281 103.507812 C 191.765625 104.003906 191.617188 104.488281 191.421875 104.960938 C 191.226562 105.429688 190.988281 105.878906 190.707031 106.300781 C 190.421875 106.722656 190.101562 107.117188 189.742188 107.476562 C 189.382812 107.835938 188.992188 108.15625 188.566406 108.4375 C 188.144531 108.722656 187.699219 108.960938 187.226562 109.15625 C 186.757812 109.351562 186.273438 109.496094 185.773438 109.597656 C 185.273438 109.695312 184.769531 109.746094 184.261719 109.746094 L 19.492188 109.746094 C 18.984375 109.746094 18.480469 109.695312 17.980469 109.597656 C 17.480469 109.496094 16.996094 109.351562 16.527344 109.15625 C 16.054688 108.960938 15.609375 108.722656 15.183594 108.4375 C 14.761719 108.15625 14.371094 107.835938 14.011719 107.476562 C 13.652344 107.117188 13.328125 106.722656 13.046875 106.300781 C 12.765625 105.878906 12.523438 105.429688 12.332031 104.960938 C 12.136719 104.488281 11.988281 104.003906 11.890625 103.507812 C 11.789062 103.007812 11.738281 102.503906 11.738281 101.992188 L 11.738281 21.835938 C 11.738281 21.328125 11.789062 20.824219 11.890625 20.324219 C 11.988281 19.824219 12.136719 19.339844 12.332031 18.871094 C 12.523438 18.398438 12.765625 17.953125 13.046875 17.53125 C 13.328125 17.105469 13.652344 16.714844 14.011719 16.355469 C 14.371094 15.996094 14.761719 15.675781 15.183594 15.390625 C 15.609375 15.109375 16.054688 14.871094 16.527344 14.675781 C 16.996094 14.480469 17.480469 14.332031 17.980469 14.234375 C 18.480469 14.132812 18.984375 14.085938 19.492188 14.085938 L 184.261719 14.085938 C 184.769531 14.085938 185.273438 14.132812 185.773438 14.234375 C 186.273438 14.332031 186.757812 14.480469 187.226562 14.675781 C 187.699219 14.871094 188.144531 15.109375 188.566406 15.390625 C 188.992188 15.675781 189.382812 15.996094 189.742188 16.355469 C 190.101562 16.714844 190.421875 17.105469 190.707031 17.53125 C 190.988281 17.953125 191.226562 18.398438 191.421875 18.871094 C 191.617188 19.339844 191.765625 19.824219 191.863281 20.324219 C 191.964844 20.824219 192.011719 21.328125 192.011719 21.835938 Z M 192.011719 21.835938 " fill-opacity="1" fill-rule="nonzero"/></g><path fill="#000000" d="M 190.726562 21.859375 L 190.726562 101.972656 C 190.726562 102.398438 190.683594 102.820312 190.601562 103.238281 C 190.519531 103.65625 190.394531 104.0625 190.230469 104.453125 C 190.070312 104.847656 189.871094 105.222656 189.632812 105.574219 C 189.394531 105.929688 189.128906 106.257812 188.824219 106.558594 C 188.523438 106.859375 188.195312 107.128906 187.84375 107.367188 C 187.488281 107.601562 187.113281 107.800781 186.722656 107.964844 C 186.328125 108.128906 185.921875 108.25 185.503906 108.335938 C 185.085938 108.417969 184.664062 108.460938 184.238281 108.460938 L 19.515625 108.460938 C 19.089844 108.460938 18.664062 108.417969 18.25 108.335938 C 17.832031 108.25 17.425781 108.128906 17.03125 107.964844 C 16.636719 107.800781 16.261719 107.601562 15.910156 107.367188 C 15.554688 107.128906 15.226562 106.859375 14.925781 106.558594 C 14.625 106.257812 14.355469 105.929688 14.121094 105.574219 C 13.882812 105.222656 13.683594 104.847656 13.519531 104.453125 C 13.355469 104.0625 13.234375 103.65625 13.152344 103.238281 C 13.066406 102.820312 13.027344 102.398438 13.027344 101.972656 L 13.027344 21.859375 C 13.027344 21.433594 13.066406 21.011719 13.152344 20.59375 C 13.234375 20.175781 13.355469 19.769531 13.519531 19.375 C 13.683594 18.980469 13.882812 18.609375 14.121094 18.253906 C 14.355469 17.898438 14.625 17.570312 14.925781 17.269531 C 15.226562 16.96875 15.554688 16.699219 15.910156 16.464844 C 16.261719 16.226562 16.636719 16.027344 17.03125 15.863281 C 17.425781 15.703125 17.832031 15.578125 18.25 15.496094 C 18.664062 15.414062 19.089844 15.371094 19.515625 15.371094 L 184.238281 15.371094 C 184.664062 15.371094 185.085938 15.414062 185.503906 15.496094 C 185.921875 15.578125 186.328125 15.703125 186.722656 15.863281 C 187.113281 16.027344 187.488281 16.226562 187.84375 16.464844 C 188.195312 16.699219 188.523438 16.96875 188.824219 17.269531 C 189.128906 17.570312 189.394531 17.898438 189.632812 18.253906 C 189.871094 18.609375 190.070312 18.980469 190.230469 19.375 C 190.394531 19.769531 190.519531 20.175781 190.601562 20.59375 C 190.683594 21.011719 190.726562 21.433594 190.726562 21.859375 Z M 190.726562 21.859375 " fill-opacity="1" fill-rule="nonzero"/><path fill="#1c3872" d="M 19.535156 16.65625 L 184.214844 16.65625 C 184.558594 16.65625 184.898438 16.691406 185.234375 16.757812 C 185.570312 16.824219 185.898438 16.921875 186.214844 17.054688 C 186.53125 17.1875 186.832031 17.347656 187.117188 17.539062 C 187.402344 17.726562 187.667969 17.945312 187.910156 18.1875 C 188.152344 18.429688 188.367188 18.695312 188.558594 18.980469 C 188.75 19.265625 188.910156 19.566406 189.042969 19.882812 C 189.171875 20.199219 189.273438 20.523438 189.339844 20.863281 C 189.40625 21.199219 189.441406 21.539062 189.441406 21.878906 L 189.441406 101.949219 C 189.441406 102.292969 189.40625 102.632812 189.339844 102.96875 C 189.273438 103.304688 189.171875 103.632812 189.042969 103.949219 C 188.910156 104.265625 188.75 104.566406 188.558594 104.851562 C 188.367188 105.136719 188.152344 105.402344 187.910156 105.644531 C 187.667969 105.886719 187.402344 106.101562 187.117188 106.292969 C 186.832031 106.484375 186.53125 106.644531 186.214844 106.777344 C 185.898438 106.90625 185.570312 107.007812 185.234375 107.074219 C 184.898438 107.140625 184.558594 107.171875 184.214844 107.171875 L 19.535156 107.171875 C 19.191406 107.171875 18.851562 107.140625 18.515625 107.074219 C 18.179688 107.007812 17.851562 106.90625 17.535156 106.777344 C 17.21875 106.644531 16.917969 106.484375 16.632812 106.292969 C 16.347656 106.101562 16.085938 105.886719 15.84375 105.644531 C 15.597656 105.402344 15.382812 105.136719 15.191406 104.851562 C 15 104.566406 14.839844 104.265625 14.710938 103.949219 C 14.578125 103.632812 14.480469 103.304688 14.414062 102.96875 C 14.34375 102.632812 14.3125 102.292969 14.3125 101.949219 L 14.3125 21.878906 C 14.3125 21.539062 14.34375 21.199219 14.414062 20.863281 C 14.480469 20.523438 14.578125 20.199219 14.710938 19.882812 C 14.839844 19.566406 15 19.265625 15.191406 18.980469 C 15.382812 18.695312 15.597656 18.429688 15.84375 18.1875 C 16.085938 17.945312 16.347656 17.726562 16.632812 17.539062 C 16.917969 17.347656 17.21875 17.1875 17.535156 17.054688 C 17.851562 16.921875 18.179688 16.824219 18.515625 16.757812 C 18.851562 16.691406 19.191406 16.65625 19.535156 16.65625 Z M 19.535156 16.65625 " fill-opacity="1" fill-rule="nonzero"/><g clip-path="url(#0d666912cf)"><path fill="#1c3872" d="M 36.175781 31.648438 C 35.890625 31.648438 35.613281 31.605469 35.34375 31.515625 C 35.074219 31.429688 34.828125 31.296875 34.597656 31.128906 C 34.371094 30.960938 34.175781 30.757812 34.011719 30.523438 C 33.847656 30.292969 33.726562 30.039062 33.648438 29.765625 C 31.859375 23.808594 28.234375 20.105469 22.570312 18.441406 C 22.296875 18.359375 22.042969 18.238281 21.808594 18.078125 C 21.574219 17.914062 21.371094 17.71875 21.203125 17.492188 C 21.03125 17.261719 20.898438 17.011719 20.808594 16.742188 C 20.71875 16.472656 20.675781 16.195312 20.675781 15.910156 C 20.675781 15.625 20.71875 15.34375 20.808594 15.074219 C 20.898438 14.804688 21.03125 14.554688 21.203125 14.328125 C 21.371094 14.097656 21.574219 13.902344 21.808594 13.738281 C 22.042969 13.578125 22.296875 13.457031 22.570312 13.375 C 28.234375 11.710938 31.859375 8.007812 33.648438 2.050781 C 33.726562 1.777344 33.851562 1.527344 34.011719 1.292969 C 34.175781 1.058594 34.371094 0.859375 34.597656 0.691406 C 34.828125 0.519531 35.074219 0.390625 35.34375 0.300781 C 35.613281 0.210938 35.890625 0.167969 36.175781 0.167969 C 36.460938 0.167969 36.734375 0.210938 37.003906 0.300781 C 37.273438 0.390625 37.523438 0.519531 37.75 0.691406 C 37.980469 0.859375 38.175781 1.058594 38.335938 1.292969 C 38.5 1.527344 38.621094 1.777344 38.703125 2.050781 C 40.492188 8.007812 44.117188 11.710938 49.78125 13.375 C 50.054688 13.457031 50.308594 13.578125 50.542969 13.738281 C 50.777344 13.902344 50.980469 14.097656 51.152344 14.328125 C 51.320312 14.554688 51.453125 14.804688 51.542969 15.074219 C 51.632812 15.34375 51.675781 15.625 51.675781 15.910156 C 51.675781 16.195312 51.632812 16.472656 51.542969 16.742188 C 51.453125 17.011719 51.320312 17.261719 51.152344 17.492188 C 50.980469 17.71875 50.777344 17.914062 50.542969 18.078125 C 50.308594 18.238281 50.054688 18.359375 49.78125 18.441406 C 44.117188 20.105469 40.492188 23.808594 38.703125 29.765625 C 38.625 30.039062 38.503906 30.292969 38.339844 30.527344 C 38.175781 30.757812 37.980469 30.960938 37.753906 31.128906 C 37.527344 31.296875 37.277344 31.429688 37.007812 31.515625 C 36.738281 31.605469 36.460938 31.648438 36.175781 31.648438 Z M 36.175781 31.648438 " fill-opacity="1" fill-rule="nonzero"/></g><path fill="#000000" d="M 36.175781 30.363281 C 35.875 30.363281 35.605469 30.273438 35.367188 30.09375 C 35.125 29.917969 34.964844 29.683594 34.878906 29.398438 C 32.957031 22.992188 29.046875 19.003906 22.933594 17.207031 C 22.644531 17.121094 22.410156 16.960938 22.230469 16.71875 C 22.050781 16.480469 21.960938 16.207031 21.960938 15.910156 C 21.960938 15.609375 22.050781 15.339844 22.230469 15.097656 C 22.410156 14.855469 22.644531 14.695312 22.933594 14.609375 C 29.046875 12.8125 32.957031 8.824219 34.878906 2.417969 C 34.964844 2.132812 35.125 1.898438 35.367188 1.722656 C 35.605469 1.542969 35.875 1.453125 36.175781 1.457031 C 36.472656 1.453125 36.742188 1.542969 36.984375 1.722656 C 37.222656 1.898438 37.386719 2.132812 37.472656 2.417969 C 39.398438 8.824219 43.304688 12.8125 49.421875 14.609375 C 49.707031 14.695312 49.941406 14.855469 50.121094 15.097656 C 50.300781 15.339844 50.390625 15.609375 50.390625 15.910156 C 50.390625 16.207031 50.300781 16.480469 50.121094 16.71875 C 49.941406 16.960938 49.707031 17.121094 49.421875 17.207031 C 43.304688 19.003906 39.398438 22.992188 37.472656 29.398438 C 37.386719 29.683594 37.222656 29.917969 36.984375 30.09375 C 36.742188 30.273438 36.472656 30.363281 36.175781 30.363281 Z M 36.175781 30.363281 " fill-opacity="1" fill-rule="nonzero"/><path fill="#537cd1" d="M 36.109375 2.789062 C 34.070312 9.582031 29.800781 13.933594 23.296875 15.839844 C 23.265625 15.851562 23.25 15.871094 23.25 15.90625 C 23.25 15.941406 23.265625 15.960938 23.296875 15.972656 C 29.800781 17.882812 34.070312 22.234375 36.109375 29.023438 C 36.121094 29.058594 36.140625 29.074219 36.175781 29.074219 C 36.210938 29.074219 36.230469 29.058594 36.242188 29.023438 C 38.28125 22.234375 42.550781 17.882812 49.054688 15.972656 C 49.085938 15.960938 49.105469 15.941406 49.105469 15.90625 C 49.105469 15.871094 49.085938 15.851562 49.054688 15.839844 C 42.550781 13.933594 38.28125 9.582031 36.242188 2.789062 C 36.230469 2.757812 36.210938 2.742188 36.175781 2.742188 C 36.140625 2.742188 36.121094 2.757812 36.109375 2.789062 Z M 36.109375 2.789062 " fill-opacity="1" fill-rule="nonzero"/><path fill="#1c3872" d="M 67.023438 27.441406 C 66.742188 27.441406 66.46875 27.398438 66.199219 27.308594 C 65.933594 27.222656 65.6875 27.09375 65.460938 26.925781 C 65.234375 26.757812 65.039062 26.558594 64.878906 26.328125 C 64.71875 26.097656 64.597656 25.847656 64.515625 25.578125 C 63.371094 21.757812 61.152344 19.488281 57.535156 18.421875 C 57.261719 18.34375 57.011719 18.222656 56.78125 18.0625 C 56.546875 17.902344 56.347656 17.707031 56.175781 17.480469 C 56.007812 17.253906 55.878906 17.007812 55.789062 16.738281 C 55.699219 16.46875 55.65625 16.195312 55.65625 15.910156 C 55.65625 15.628906 55.699219 15.351562 55.789062 15.085938 C 55.878906 14.816406 56.007812 14.570312 56.175781 14.34375 C 56.347656 14.117188 56.546875 13.921875 56.78125 13.761719 C 57.011719 13.601562 57.261719 13.480469 57.535156 13.398438 C 61.152344 12.335938 63.371094 10.0625 64.515625 6.246094 C 64.597656 5.976562 64.71875 5.726562 64.878906 5.496094 C 65.042969 5.265625 65.234375 5.066406 65.460938 4.898438 C 65.6875 4.730469 65.933594 4.601562 66.203125 4.511719 C 66.46875 4.425781 66.742188 4.378906 67.023438 4.378906 C 67.304688 4.378906 67.582031 4.425781 67.847656 4.511719 C 68.113281 4.601562 68.363281 4.730469 68.585938 4.898438 C 68.8125 5.066406 69.007812 5.265625 69.167969 5.496094 C 69.332031 5.726562 69.453125 5.976562 69.53125 6.246094 C 70.679688 10.0625 72.898438 12.335938 76.511719 13.398438 C 76.785156 13.480469 77.035156 13.597656 77.269531 13.761719 C 77.5 13.921875 77.703125 14.117188 77.871094 14.34375 C 78.039062 14.570312 78.167969 14.816406 78.257812 15.085938 C 78.347656 15.351562 78.394531 15.628906 78.394531 15.910156 C 78.394531 16.195312 78.347656 16.46875 78.257812 16.738281 C 78.167969 17.007812 78.039062 17.253906 77.871094 17.480469 C 77.703125 17.707031 77.5 17.898438 77.269531 18.0625 C 77.035156 18.222656 76.785156 18.34375 76.511719 18.421875 C 72.898438 19.484375 70.679688 21.757812 69.53125 25.578125 C 69.453125 25.847656 69.332031 26.097656 69.167969 26.328125 C 69.007812 26.558594 68.8125 26.757812 68.589844 26.925781 C 68.363281 27.09375 68.117188 27.222656 67.847656 27.308594 C 67.582031 27.398438 67.304688 27.441406 67.023438 27.441406 Z M 67.023438 27.441406 " fill-opacity="1" fill-rule="nonzero"/><path fill="#000000" d="M 67.023438 26.152344 C 66.730469 26.152344 66.464844 26.066406 66.226562 25.890625 C 65.992188 25.714844 65.832031 25.488281 65.75 25.203125 C 64.484375 20.988281 61.914062 18.367188 57.898438 17.1875 C 57.613281 17.105469 57.382812 16.945312 57.207031 16.707031 C 57.03125 16.46875 56.941406 16.203125 56.941406 15.910156 C 56.941406 15.613281 57.03125 15.347656 57.207031 15.109375 C 57.382812 14.875 57.613281 14.714844 57.898438 14.632812 C 61.914062 13.449219 64.480469 10.828125 65.75 6.609375 C 65.832031 6.328125 65.992188 6.101562 66.230469 5.925781 C 66.464844 5.75 66.730469 5.664062 67.023438 5.664062 C 67.316406 5.664062 67.582031 5.75 67.820312 5.925781 C 68.054688 6.101562 68.214844 6.328125 68.300781 6.609375 C 69.5625 10.824219 72.132812 13.449219 76.148438 14.628906 C 76.433594 14.710938 76.664062 14.871094 76.839844 15.109375 C 77.019531 15.34375 77.105469 15.613281 77.105469 15.90625 C 77.105469 16.203125 77.019531 16.46875 76.839844 16.707031 C 76.664062 16.941406 76.433594 17.101562 76.148438 17.183594 C 72.132812 18.367188 69.566406 20.988281 68.300781 25.203125 C 68.214844 25.484375 68.054688 25.714844 67.820312 25.890625 C 67.582031 26.066406 67.320312 26.15625 67.023438 26.152344 Z M 67.023438 26.152344 " fill-opacity="1" fill-rule="nonzero"/><path fill="#ffdea4" d="M 66.980469 6.980469 C 65.59375 11.601562 62.6875 14.5625 58.261719 15.863281 C 58.238281 15.871094 58.226562 15.886719 58.226562 15.910156 C 58.226562 15.933594 58.238281 15.945312 58.261719 15.953125 C 62.6875 17.253906 65.59375 20.214844 66.980469 24.835938 C 66.988281 24.855469 67 24.867188 67.023438 24.867188 C 67.046875 24.867188 67.0625 24.855469 67.066406 24.835938 C 68.457031 20.214844 71.363281 17.253906 75.789062 15.953125 C 75.808594 15.945312 75.820312 15.929688 75.820312 15.910156 C 75.820312 15.886719 75.808594 15.871094 75.789062 15.863281 C 71.363281 14.5625 68.457031 11.601562 67.066406 6.980469 C 67.0625 6.960938 67.046875 6.949219 67.023438 6.949219 C 67 6.949219 66.988281 6.960938 66.980469 6.980469 Z M 66.980469 6.980469 " fill-opacity="1" fill-rule="nonzero"/><g fill="#ffffff" fill-opacity="0.4"><g transform="translate(29.521874, 72.953345)"><g><path d="M 3.40625 -0.53125 C 3.3125 -0.195312 3.148438 0.046875 2.921875 0.203125 C 2.691406 0.367188 2.40625 0.453125 2.0625 0.453125 C 1.6875 0.453125 1.359375 0.335938 1.078125 0.109375 C 0.796875 -0.117188 0.65625 -0.414062 0.65625 -0.78125 C 0.65625 -0.875 0.675781 -0.992188 0.71875 -1.140625 C 0.757812 -1.296875 0.847656 -1.5625 0.984375 -1.9375 C 1.660156 -3.675781 2.382812 -5.40625 3.15625 -7.125 C 3.925781 -8.851562 4.722656 -10.585938 5.546875 -12.328125 C 6.378906 -14.066406 7.222656 -15.804688 8.078125 -17.546875 C 8.929688 -19.296875 9.78125 -21.054688 10.625 -22.828125 C 10.738281 -23.085938 10.910156 -23.28125 11.140625 -23.40625 C 11.367188 -23.539062 11.613281 -23.609375 11.875 -23.609375 C 12.21875 -23.609375 12.523438 -23.515625 12.796875 -23.328125 C 13.066406 -23.148438 13.25 -22.914062 13.34375 -22.625 C 13.445312 -22.382812 13.664062 -21.828125 14 -20.953125 C 14.34375 -20.085938 14.753906 -19.023438 15.234375 -17.765625 C 15.710938 -16.515625 16.234375 -15.160156 16.796875 -13.703125 C 17.367188 -12.242188 17.9375 -10.785156 18.5 -9.328125 C 19.070312 -7.878906 19.613281 -6.523438 20.125 -5.265625 C 20.632812 -4.003906 21.054688 -2.957031 21.390625 -2.125 C 21.492188 -1.925781 21.59375 -1.703125 21.6875 -1.453125 C 21.789062 -1.203125 21.84375 -1 21.84375 -0.84375 C 21.84375 -0.394531 21.707031 -0.0507812 21.4375 0.1875 C 21.164062 0.4375 20.863281 0.5625 20.53125 0.5625 C 20.332031 0.5625 20.097656 0.515625 19.828125 0.421875 C 19.554688 0.335938 19.359375 0.15625 19.234375 -0.125 C 18.554688 -1.738281 17.875 -3.441406 17.1875 -5.234375 C 16.5 -7.023438 15.828125 -8.800781 15.171875 -10.5625 C 14.515625 -12.332031 13.894531 -13.976562 13.3125 -15.5 C 12.738281 -17.03125 12.238281 -18.347656 11.8125 -19.453125 C 10.84375 -17.273438 9.863281 -15.132812 8.875 -13.03125 C 7.882812 -10.925781 6.925781 -8.835938 6 -6.765625 C 5.070312 -4.691406 4.207031 -2.613281 3.40625 -0.53125 Z M 4.375 -8.5625 C 4.375 -8.820312 4.460938 -9.035156 4.640625 -9.203125 C 4.816406 -9.367188 5.03125 -9.5 5.28125 -9.59375 C 5.53125 -9.695312 5.765625 -9.769531 5.984375 -9.8125 C 6.421875 -9.914062 7.023438 -10 7.796875 -10.0625 C 8.578125 -10.132812 9.488281 -10.179688 10.53125 -10.203125 C 11.570312 -10.222656 12.695312 -10.203125 13.90625 -10.140625 C 14.289062 -10.117188 14.679688 -10.113281 15.078125 -10.125 C 15.472656 -10.132812 15.851562 -10.148438 16.21875 -10.171875 C 16.59375 -10.191406 16.9375 -10.21875 17.25 -10.25 C 17.5625 -10.28125 17.828125 -10.316406 18.046875 -10.359375 C 18.460938 -10.410156 18.800781 -10.296875 19.0625 -10.015625 C 19.320312 -9.742188 19.453125 -9.414062 19.453125 -9.03125 C 19.453125 -8.695312 19.347656 -8.425781 19.140625 -8.21875 C 18.929688 -8.019531 18.65625 -7.867188 18.3125 -7.765625 C 17.96875 -7.671875 17.613281 -7.609375 17.25 -7.578125 C 16.882812 -7.554688 16.539062 -7.546875 16.21875 -7.546875 C 15.082031 -7.546875 13.925781 -7.539062 12.75 -7.53125 C 11.570312 -7.519531 10.410156 -7.484375 9.265625 -7.421875 C 8.117188 -7.359375 6.984375 -7.257812 5.859375 -7.125 C 5.566406 -7.101562 5.242188 -7.238281 4.890625 -7.53125 C 4.546875 -7.832031 4.375 -8.175781 4.375 -8.5625 Z M 4.375 -8.5625 "/></g></g></g><g fill="#ffffff" fill-opacity="0.4"><g transform="translate(52.445249, 72.953345)"><g><path d="M 3.5625 -23.703125 C 3.601562 -24.140625 3.75 -24.460938 4 -24.671875 C 4.25 -24.878906 4.570312 -24.984375 4.96875 -24.984375 C 5.34375 -24.984375 5.664062 -24.878906 5.9375 -24.671875 C 6.207031 -24.460938 6.332031 -24.140625 6.3125 -23.703125 C 6.226562 -22.921875 6.15625 -22.128906 6.09375 -21.328125 C 6.039062 -20.535156 5.992188 -19.726562 5.953125 -18.90625 C 5.910156 -18.09375 5.875 -17.25 5.84375 -16.375 C 5.820312 -15.507812 5.789062 -14.617188 5.75 -13.703125 C 6.101562 -14.222656 6.5 -14.65625 6.9375 -15 C 7.375 -15.351562 7.835938 -15.625 8.328125 -15.8125 C 8.816406 -16 9.332031 -16.09375 9.875 -16.09375 C 11.132812 -16.09375 12.1875 -15.753906 13.03125 -15.078125 C 13.875 -14.398438 14.507812 -13.492188 14.9375 -12.359375 C 15.375 -11.222656 15.59375 -9.96875 15.59375 -8.59375 C 15.59375 -6.96875 15.3125 -5.488281 14.75 -4.15625 C 14.1875 -2.820312 13.390625 -1.75 12.359375 -0.9375 C 11.335938 -0.132812 10.117188 0.265625 8.703125 0.265625 C 8.046875 0.265625 7.390625 0.175781 6.734375 0 C 6.078125 -0.175781 5.488281 -0.425781 4.96875 -0.75 C 4.863281 -0.40625 4.695312 -0.171875 4.46875 -0.046875 C 4.238281 0.0664062 3.992188 0.125 3.734375 0.125 C 3.398438 0.125 3.097656 0.0234375 2.828125 -0.171875 C 2.554688 -0.378906 2.421875 -0.671875 2.421875 -1.046875 C 2.421875 -1.171875 2.425781 -1.363281 2.4375 -1.625 C 2.445312 -1.894531 2.460938 -2.09375 2.484375 -2.21875 C 2.304688 -2.375 2.175781 -2.53125 2.09375 -2.6875 C 2.007812 -2.851562 1.96875 -3.054688 1.96875 -3.296875 C 1.96875 -3.453125 2.019531 -3.617188 2.125 -3.796875 C 2.238281 -3.972656 2.398438 -4.132812 2.609375 -4.28125 C 2.722656 -6.488281 2.816406 -8.644531 2.890625 -10.75 C 2.972656 -12.851562 3.0625 -14.972656 3.15625 -17.109375 C 3.25 -19.242188 3.382812 -21.441406 3.5625 -23.703125 Z M 5.265625 -3.296875 C 5.722656 -2.929688 6.203125 -2.664062 6.703125 -2.5 C 7.203125 -2.332031 7.738281 -2.25 8.3125 -2.25 C 9.09375 -2.25 9.828125 -2.445312 10.515625 -2.84375 C 11.203125 -3.238281 11.753906 -3.890625 12.171875 -4.796875 C 12.597656 -5.703125 12.8125 -6.914062 12.8125 -8.4375 C 12.8125 -9.332031 12.703125 -10.171875 12.484375 -10.953125 C 12.273438 -11.734375 11.941406 -12.359375 11.484375 -12.828125 C 11.023438 -13.296875 10.398438 -13.53125 9.609375 -13.53125 C 9.046875 -13.53125 8.519531 -13.335938 8.03125 -12.953125 C 7.539062 -12.578125 7.101562 -12.101562 6.71875 -11.53125 C 6.34375 -10.96875 6.046875 -10.367188 5.828125 -9.734375 C 5.609375 -9.109375 5.488281 -8.535156 5.46875 -8.015625 C 5.457031 -7.484375 5.441406 -6.941406 5.421875 -6.390625 C 5.398438 -5.835938 5.378906 -5.300781 5.359375 -4.78125 C 5.335938 -4.269531 5.304688 -3.773438 5.265625 -3.296875 Z M 5.265625 -3.296875 "/></g></g></g><g fill="#ffffff" fill-opacity="0.4"><g transform="translate(69.682671, 72.953345)"><g><path d="M 8.703125 -16.34375 C 9.160156 -16.34375 9.617188 -16.296875 10.078125 -16.203125 C 10.535156 -16.109375 10.960938 -15.976562 11.359375 -15.8125 C 11.765625 -15.644531 12.109375 -15.429688 12.390625 -15.171875 C 13.304688 -14.429688 13.976562 -13.472656 14.40625 -12.296875 C 14.832031 -11.117188 15.046875 -9.882812 15.046875 -8.59375 C 15.046875 -7.488281 14.90625 -6.421875 14.625 -5.390625 C 14.351562 -4.367188 13.945312 -3.441406 13.40625 -2.609375 C 12.863281 -1.785156 12.203125 -1.128906 11.421875 -0.640625 C 10.648438 -0.148438 9.765625 0.09375 8.765625 0.09375 C 7.742188 0.09375 6.800781 -0.125 5.9375 -0.5625 C 5.070312 -1.007812 4.304688 -1.609375 3.640625 -2.359375 C 2.984375 -3.117188 2.472656 -3.992188 2.109375 -4.984375 C 1.753906 -5.972656 1.578125 -7.015625 1.578125 -8.109375 C 1.578125 -9.148438 1.734375 -10.15625 2.046875 -11.125 C 2.359375 -12.101562 2.816406 -12.984375 3.421875 -13.765625 C 4.035156 -14.554688 4.785156 -15.179688 5.671875 -15.640625 C 6.554688 -16.109375 7.566406 -16.34375 8.703125 -16.34375 Z M 4.34375 -8.3125 C 4.34375 -7.320312 4.507812 -6.378906 4.84375 -5.484375 C 5.1875 -4.597656 5.679688 -3.878906 6.328125 -3.328125 C 6.972656 -2.785156 7.753906 -2.515625 8.671875 -2.515625 C 9.316406 -2.515625 9.867188 -2.6875 10.328125 -3.03125 C 10.785156 -3.382812 11.160156 -3.851562 11.453125 -4.4375 C 11.753906 -5.03125 11.972656 -5.675781 12.109375 -6.375 C 12.253906 -7.070312 12.328125 -7.757812 12.328125 -8.4375 C 12.328125 -9.65625 12.128906 -10.6875 11.734375 -11.53125 C 11.347656 -12.382812 10.828125 -13.039062 10.171875 -13.5 C 9.910156 -13.570312 9.65625 -13.625 9.40625 -13.65625 C 9.15625 -13.6875 8.898438 -13.703125 8.640625 -13.703125 C 7.960938 -13.703125 7.351562 -13.554688 6.8125 -13.265625 C 6.28125 -12.984375 5.828125 -12.585938 5.453125 -12.078125 C 5.085938 -11.566406 4.8125 -10.988281 4.625 -10.34375 C 4.4375 -9.707031 4.34375 -9.03125 4.34375 -8.3125 Z M 4.34375 -8.3125 "/></g></g></g><g fill="#ffffff" fill-opacity="0.4"><g transform="translate(86.291647, 72.953345)"><g><path d="M 7.296875 0.359375 C 6.316406 0.359375 5.488281 0.109375 4.8125 -0.390625 C 4.132812 -0.890625 3.585938 -1.546875 3.171875 -2.359375 C 2.753906 -3.179688 2.445312 -4.085938 2.25 -5.078125 C 2.0625 -6.078125 1.96875 -7.066406 1.96875 -8.046875 C 1.96875 -9.285156 2.054688 -10.519531 2.234375 -11.75 C 2.421875 -12.988281 2.613281 -14.175781 2.8125 -15.3125 C 2.851562 -15.59375 3.007812 -15.820312 3.28125 -16 C 3.550781 -16.1875 3.851562 -16.28125 4.1875 -16.28125 C 4.582031 -16.28125 4.898438 -16.140625 5.140625 -15.859375 C 5.378906 -15.578125 5.5 -15.238281 5.5 -14.84375 C 5.476562 -14.476562 5.40625 -14.015625 5.28125 -13.453125 C 5.15625 -12.898438 5.03125 -12.195312 4.90625 -11.34375 C 4.789062 -10.5 4.734375 -9.453125 4.734375 -8.203125 C 4.742188 -7.285156 4.832031 -6.363281 5 -5.4375 C 5.175781 -4.519531 5.457031 -3.753906 5.84375 -3.140625 C 6.238281 -2.523438 6.753906 -2.21875 7.390625 -2.21875 C 8.046875 -2.21875 8.640625 -2.453125 9.171875 -2.921875 C 9.703125 -3.390625 10.175781 -3.976562 10.59375 -4.6875 C 11.007812 -5.394531 11.363281 -6.132812 11.65625 -6.90625 C 11.945312 -7.6875 12.171875 -8.375 12.328125 -8.96875 C 12.390625 -10.113281 12.429688 -11.191406 12.453125 -12.203125 C 12.472656 -13.222656 12.488281 -14.179688 12.5 -15.078125 C 12.519531 -15.472656 12.664062 -15.773438 12.9375 -15.984375 C 13.207031 -16.203125 13.53125 -16.3125 13.90625 -16.3125 C 14.164062 -16.3125 14.394531 -16.257812 14.59375 -16.15625 C 14.800781 -16.0625 14.960938 -15.914062 15.078125 -15.71875 C 15.203125 -15.53125 15.265625 -15.296875 15.265625 -15.015625 C 15.285156 -14.816406 15.296875 -14.503906 15.296875 -14.078125 C 15.296875 -13.648438 15.285156 -13.164062 15.265625 -12.625 C 15.242188 -12.082031 15.207031 -11.515625 15.15625 -10.921875 C 15.101562 -10.335938 15.03125 -9.78125 14.9375 -9.25 C 14.875 -7.769531 14.828125 -6.332031 14.796875 -4.9375 C 14.765625 -3.539062 14.679688 -2.164062 14.546875 -0.8125 C 14.523438 -0.488281 14.382812 -0.21875 14.125 0 C 13.863281 0.21875 13.535156 0.328125 13.140625 0.328125 C 12.617188 0.328125 12.269531 0.195312 12.09375 -0.0625 C 11.925781 -0.320312 11.84375 -0.597656 11.84375 -0.890625 C 11.84375 -1.078125 11.859375 -1.269531 11.890625 -1.46875 C 11.921875 -1.664062 11.953125 -1.882812 11.984375 -2.125 C 12.015625 -2.363281 12.03125 -2.632812 12.03125 -2.9375 C 11.726562 -2.476562 11.40625 -2.046875 11.0625 -1.640625 C 10.726562 -1.242188 10.367188 -0.894531 9.984375 -0.59375 C 9.609375 -0.300781 9.195312 -0.0703125 8.75 0.09375 C 8.300781 0.269531 7.816406 0.359375 7.296875 0.359375 Z M 7.296875 0.359375 "/></g></g></g><g fill="#ffffff" fill-opacity="0.4"><g transform="translate(103.708629, 72.953345)"><g><path d="M 3.953125 -19.328125 C 3.992188 -19.722656 4.132812 -20.019531 4.375 -20.21875 C 4.625 -20.425781 4.929688 -20.53125 5.296875 -20.53125 C 5.535156 -20.53125 5.769531 -20.484375 6 -20.390625 C 6.226562 -20.296875 6.410156 -20.160156 6.546875 -19.984375 C 6.691406 -19.804688 6.742188 -19.578125 6.703125 -19.296875 C 6.546875 -18.023438 6.410156 -16.800781 6.296875 -15.625 C 6.191406 -14.445312 6.109375 -13.28125 6.046875 -12.125 C 5.984375 -10.96875 5.953125 -9.769531 5.953125 -8.53125 C 5.972656 -7.007812 6.035156 -5.796875 6.140625 -4.890625 C 6.253906 -3.984375 6.390625 -3.328125 6.546875 -2.921875 C 6.710938 -2.523438 6.851562 -2.328125 6.96875 -2.328125 C 7.144531 -2.328125 7.375 -2.441406 7.65625 -2.671875 C 7.9375 -2.898438 8.210938 -3.160156 8.484375 -3.453125 C 8.753906 -3.742188 8.945312 -3.957031 9.0625 -4.09375 C 9.1875 -4.238281 9.320312 -4.332031 9.46875 -4.375 C 9.613281 -4.425781 9.757812 -4.453125 9.90625 -4.453125 C 10.144531 -4.453125 10.363281 -4.390625 10.5625 -4.265625 C 10.757812 -4.148438 10.914062 -3.992188 11.03125 -3.796875 C 11.15625 -3.597656 11.21875 -3.378906 11.21875 -3.140625 C 11.21875 -3.003906 11.179688 -2.851562 11.109375 -2.6875 C 11.046875 -2.53125 10.929688 -2.351562 10.765625 -2.15625 C 10.367188 -1.632812 9.9375 -1.191406 9.46875 -0.828125 C 9 -0.472656 8.535156 -0.207031 8.078125 -0.03125 C 7.617188 0.144531 7.171875 0.234375 6.734375 0.234375 C 5.953125 0.234375 5.285156 -0.046875 4.734375 -0.609375 C 4.191406 -1.179688 3.8125 -2.078125 3.59375 -3.296875 C 3.445312 -4.171875 3.335938 -5.050781 3.265625 -5.9375 C 3.203125 -6.820312 3.171875 -7.71875 3.171875 -8.625 C 3.171875 -9.832031 3.195312 -10.992188 3.25 -12.109375 C 3.3125 -13.234375 3.398438 -14.378906 3.515625 -15.546875 C 3.640625 -16.710938 3.785156 -17.972656 3.953125 -19.328125 Z M 2.390625 -13.3125 C 2.015625 -13.289062 1.722656 -13.40625 1.515625 -13.65625 C 1.304688 -13.90625 1.203125 -14.210938 1.203125 -14.578125 C 1.203125 -14.910156 1.304688 -15.195312 1.515625 -15.4375 C 1.722656 -15.675781 2.015625 -15.804688 2.390625 -15.828125 C 2.910156 -15.867188 3.453125 -15.90625 4.015625 -15.9375 C 4.585938 -15.96875 5.179688 -15.988281 5.796875 -16 C 6.421875 -16.007812 7.09375 -16.015625 7.8125 -16.015625 C 8.53125 -16.023438 9.296875 -16.03125 10.109375 -16.03125 C 10.453125 -16.03125 10.742188 -15.910156 10.984375 -15.671875 C 11.222656 -15.429688 11.351562 -15.125 11.375 -14.75 C 11.375 -14.394531 11.242188 -14.101562 10.984375 -13.875 C 10.722656 -13.644531 10.429688 -13.53125 10.109375 -13.53125 C 9.273438 -13.53125 8.554688 -13.523438 7.953125 -13.515625 C 7.359375 -13.503906 6.789062 -13.492188 6.25 -13.484375 C 5.71875 -13.472656 5.148438 -13.453125 4.546875 -13.421875 C 3.953125 -13.390625 3.234375 -13.351562 2.390625 -13.3125 Z M 2.390625 -13.3125 "/></g></g></g><g fill="#ffffff" fill-opacity="0.4"><g transform="translate(115.918475, 72.953345)"><g/></g></g><g fill="#ffffff" fill-opacity="0.4"><g transform="translate(128.607137, 72.953345)"><g><path d="M 3.375 -15.4375 C 3.4375 -15.738281 3.597656 -15.96875 3.859375 -16.125 C 4.117188 -16.289062 4.398438 -16.375 4.703125 -16.375 C 5.097656 -16.375 5.410156 -16.253906 5.640625 -16.015625 C 5.867188 -15.785156 5.984375 -15.484375 5.984375 -15.109375 C 5.984375 -14.910156 5.957031 -14.6875 5.90625 -14.4375 C 5.851562 -14.1875 5.800781 -13.832031 5.75 -13.375 C 6.207031 -14.03125 6.6875 -14.582031 7.1875 -15.03125 C 7.695312 -15.476562 8.234375 -15.816406 8.796875 -16.046875 C 9.359375 -16.273438 9.925781 -16.390625 10.5 -16.390625 C 11.0625 -16.390625 11.613281 -16.28125 12.15625 -16.0625 C 12.707031 -15.84375 13.195312 -15.492188 13.625 -15.015625 C 14.050781 -14.535156 14.378906 -13.898438 14.609375 -13.109375 C 15.066406 -13.804688 15.578125 -14.40625 16.140625 -14.90625 C 16.710938 -15.414062 17.320312 -15.8125 17.96875 -16.09375 C 18.613281 -16.375 19.273438 -16.515625 19.953125 -16.515625 C 20.953125 -16.515625 21.769531 -16.300781 22.40625 -15.875 C 23.050781 -15.445312 23.5625 -14.867188 23.9375 -14.140625 C 24.3125 -13.410156 24.570312 -12.570312 24.71875 -11.625 C 24.875 -10.675781 24.953125 -9.691406 24.953125 -8.671875 C 24.953125 -8.015625 24.9375 -7.421875 24.90625 -6.890625 C 24.875 -6.367188 24.828125 -5.832031 24.765625 -5.28125 C 24.710938 -4.726562 24.648438 -4.125 24.578125 -3.46875 C 24.503906 -2.8125 24.421875 -2.035156 24.328125 -1.140625 C 24.265625 -0.734375 24.101562 -0.414062 23.84375 -0.1875 C 23.582031 0.0390625 23.285156 0.15625 22.953125 0.15625 C 22.492188 0.15625 22.15625 0.0234375 21.9375 -0.234375 C 21.71875 -0.492188 21.609375 -0.828125 21.609375 -1.234375 C 21.609375 -1.410156 21.632812 -1.726562 21.6875 -2.1875 C 21.75 -2.644531 21.820312 -3.203125 21.90625 -3.859375 C 22 -4.515625 22.078125 -5.238281 22.140625 -6.03125 C 22.203125 -6.832031 22.234375 -7.664062 22.234375 -8.53125 C 22.234375 -10.539062 22.015625 -11.941406 21.578125 -12.734375 C 21.148438 -13.535156 20.53125 -13.9375 19.71875 -13.9375 C 19.28125 -13.9375 18.8125 -13.785156 18.3125 -13.484375 C 17.8125 -13.191406 17.332031 -12.789062 16.875 -12.28125 C 16.414062 -11.769531 16.023438 -11.203125 15.703125 -10.578125 C 15.390625 -9.953125 15.179688 -9.300781 15.078125 -8.625 C 15.078125 -8.238281 15.066406 -7.90625 15.046875 -7.625 C 15.023438 -7.351562 15.007812 -7.09375 15 -6.84375 C 14.988281 -6.59375 14.972656 -6.328125 14.953125 -6.046875 C 14.941406 -5.460938 14.910156 -4.882812 14.859375 -4.3125 C 14.804688 -3.75 14.757812 -3.1875 14.71875 -2.625 C 14.675781 -2.070312 14.644531 -1.503906 14.625 -0.921875 C 14.625 -0.503906 14.492188 -0.191406 14.234375 0.015625 C 13.984375 0.222656 13.65625 0.328125 13.25 0.328125 C 12.875 0.328125 12.554688 0.222656 12.296875 0.015625 C 12.035156 -0.191406 11.90625 -0.515625 11.90625 -0.953125 C 11.925781 -1.847656 11.96875 -2.722656 12.03125 -3.578125 C 12.101562 -4.441406 12.171875 -5.304688 12.234375 -6.171875 C 12.296875 -7.046875 12.328125 -7.941406 12.328125 -8.859375 C 12.328125 -10.671875 12.148438 -11.960938 11.796875 -12.734375 C 11.453125 -13.503906 10.972656 -13.890625 10.359375 -13.890625 C 9.835938 -13.890625 9.28125 -13.6875 8.6875 -13.28125 C 8.101562 -12.882812 7.539062 -12.332031 7 -11.625 C 6.457031 -10.914062 5.988281 -10.113281 5.59375 -9.21875 C 5.550781 -8.21875 5.507812 -7.210938 5.46875 -6.203125 C 5.4375 -5.203125 5.398438 -4.25 5.359375 -3.34375 C 5.316406 -2.445312 5.273438 -1.640625 5.234375 -0.921875 C 5.210938 -0.503906 5.078125 -0.191406 4.828125 0.015625 C 4.578125 0.222656 4.265625 0.328125 3.890625 0.328125 C 3.515625 0.328125 3.1875 0.222656 2.90625 0.015625 C 2.625 -0.191406 2.492188 -0.515625 2.515625 -0.953125 C 2.578125 -2.347656 2.625 -3.734375 2.65625 -5.109375 C 2.695312 -6.492188 2.75 -7.875 2.8125 -9.25 C 2.851562 -10.28125 2.910156 -11.3125 2.984375 -12.34375 C 3.066406 -13.375 3.195312 -14.40625 3.375 -15.4375 Z M 3.375 -15.4375 "/></g></g></g><g fill="#ffffff" fill-opacity="0.4"><g transform="translate(155.839867, 72.953345)"><g><path d="M 8.4375 0 C 7.34375 0 6.363281 -0.21875 5.5 -0.65625 C 4.644531 -1.09375 3.914062 -1.6875 3.3125 -2.4375 C 2.71875 -3.1875 2.265625 -4.023438 1.953125 -4.953125 C 1.648438 -5.878906 1.5 -6.820312 1.5 -7.78125 C 1.5 -8.800781 1.703125 -9.804688 2.109375 -10.796875 C 2.515625 -11.796875 3.082031 -12.710938 3.8125 -13.546875 C 4.539062 -14.390625 5.382812 -15.0625 6.34375 -15.5625 C 7.300781 -16.0625 8.328125 -16.3125 9.421875 -16.3125 C 10.285156 -16.3125 11.039062 -16.132812 11.6875 -15.78125 C 12.332031 -15.4375 12.835938 -14.960938 13.203125 -14.359375 C 13.578125 -13.765625 13.765625 -13.066406 13.765625 -12.265625 C 13.765625 -11.429688 13.550781 -10.640625 13.125 -9.890625 C 12.707031 -9.140625 12.125 -8.535156 11.375 -8.078125 C 10.351562 -7.378906 9.238281 -6.894531 8.03125 -6.625 C 6.820312 -6.351562 5.601562 -6.195312 4.375 -6.15625 C 4.53125 -5.582031 4.785156 -5.015625 5.140625 -4.453125 C 5.503906 -3.898438 5.96875 -3.4375 6.53125 -3.0625 C 7.101562 -2.695312 7.78125 -2.515625 8.5625 -2.515625 C 9.300781 -2.515625 10.015625 -2.726562 10.703125 -3.15625 C 11.390625 -3.582031 11.984375 -4.078125 12.484375 -4.640625 C 12.597656 -4.796875 12.726562 -4.90625 12.875 -4.96875 C 13.03125 -5.03125 13.175781 -5.0625 13.3125 -5.0625 C 13.550781 -5.0625 13.769531 -5 13.96875 -4.875 C 14.164062 -4.757812 14.320312 -4.597656 14.4375 -4.390625 C 14.5625 -4.191406 14.625 -3.972656 14.625 -3.734375 C 14.644531 -3.578125 14.625 -3.421875 14.5625 -3.265625 C 14.507812 -3.117188 14.410156 -2.976562 14.265625 -2.84375 C 13.535156 -2.039062 12.675781 -1.363281 11.6875 -0.8125 C 10.695312 -0.269531 9.613281 0 8.4375 0 Z M 4.25 -8.625 C 5.050781 -8.65625 5.789062 -8.71875 6.46875 -8.8125 C 7.144531 -8.90625 7.851562 -9.097656 8.59375 -9.390625 C 9.25 -9.648438 9.828125 -10.023438 10.328125 -10.515625 C 10.828125 -11.003906 11.078125 -11.597656 11.078125 -12.296875 C 11.078125 -12.578125 11.007812 -12.832031 10.875 -13.0625 C 10.75 -13.289062 10.5625 -13.476562 10.3125 -13.625 C 10.0625 -13.78125 9.734375 -13.859375 9.328125 -13.859375 C 8.691406 -13.859375 8.082031 -13.695312 7.5 -13.375 C 6.925781 -13.050781 6.410156 -12.632812 5.953125 -12.125 C 5.492188 -11.625 5.117188 -11.0625 4.828125 -10.4375 C 4.546875 -9.820312 4.351562 -9.21875 4.25 -8.625 Z M 4.25 -8.625 "/></g></g></g><g fill="#ffffff" fill-opacity="1"><g transform="translate(28.199312, 71.630781)"><g><path d="M 3.40625 -0.53125 C 3.3125 -0.195312 3.148438 0.046875 2.921875 0.203125 C 2.691406 0.367188 2.40625 0.453125 2.0625 0.453125 C 1.6875 0.453125 1.359375 0.335938 1.078125 0.109375 C 0.796875 -0.117188 0.65625 -0.414062 0.65625 -0.78125 C 0.65625 -0.875 0.675781 -0.992188 0.71875 -1.140625 C 0.757812 -1.296875 0.847656 -1.5625 0.984375 -1.9375 C 1.660156 -3.675781 2.382812 -5.40625 3.15625 -7.125 C 3.925781 -8.851562 4.722656 -10.585938 5.546875 -12.328125 C 6.378906 -14.066406 7.222656 -15.804688 8.078125 -17.546875 C 8.929688 -19.296875 9.78125 -21.054688 10.625 -22.828125 C 10.738281 -23.085938 10.910156 -23.28125 11.140625 -23.40625 C 11.367188 -23.539062 11.613281 -23.609375 11.875 -23.609375 C 12.21875 -23.609375 12.523438 -23.515625 12.796875 -23.328125 C 13.066406 -23.148438 13.25 -22.914062 13.34375 -22.625 C 13.445312 -22.382812 13.664062 -21.828125 14 -20.953125 C 14.34375 -20.085938 14.753906 -19.023438 15.234375 -17.765625 C 15.710938 -16.515625 16.234375 -15.160156 16.796875 -13.703125 C 17.367188 -12.242188 17.9375 -10.785156 18.5 -9.328125 C 19.070312 -7.878906 19.613281 -6.523438 20.125 -5.265625 C 20.632812 -4.003906 21.054688 -2.957031 21.390625 -2.125 C 21.492188 -1.925781 21.59375 -1.703125 21.6875 -1.453125 C 21.789062 -1.203125 21.84375 -1 21.84375 -0.84375 C 21.84375 -0.394531 21.707031 -0.0507812 21.4375 0.1875 C 21.164062 0.4375 20.863281 0.5625 20.53125 0.5625 C 20.332031 0.5625 20.097656 0.515625 19.828125 0.421875 C 19.554688 0.335938 19.359375 0.15625 19.234375 -0.125 C 18.554688 -1.738281 17.875 -3.441406 17.1875 -5.234375 C 16.5 -7.023438 15.828125 -8.800781 15.171875 -10.5625 C 14.515625 -12.332031 13.894531 -13.976562 13.3125 -15.5 C 12.738281 -17.03125 12.238281 -18.347656 11.8125 -19.453125 C 10.84375 -17.273438 9.863281 -15.132812 8.875 -13.03125 C 7.882812 -10.925781 6.925781 -8.835938 6 -6.765625 C 5.070312 -4.691406 4.207031 -2.613281 3.40625 -0.53125 Z M 4.375 -8.5625 C 4.375 -8.820312 4.460938 -9.035156 4.640625 -9.203125 C 4.816406 -9.367188 5.03125 -9.5 5.28125 -9.59375 C 5.53125 -9.695312 5.765625 -9.769531 5.984375 -9.8125 C 6.421875 -9.914062 7.023438 -10 7.796875 -10.0625 C 8.578125 -10.132812 9.488281 -10.179688 10.53125 -10.203125 C 11.570312 -10.222656 12.695312 -10.203125 13.90625 -10.140625 C 14.289062 -10.117188 14.679688 -10.113281 15.078125 -10.125 C 15.472656 -10.132812 15.851562 -10.148438 16.21875 -10.171875 C 16.59375 -10.191406 16.9375 -10.21875 17.25 -10.25 C 17.5625 -10.28125 17.828125 -10.316406 18.046875 -10.359375 C 18.460938 -10.410156 18.800781 -10.296875 19.0625 -10.015625 C 19.320312 -9.742188 19.453125 -9.414062 19.453125 -9.03125 C 19.453125 -8.695312 19.347656 -8.425781 19.140625 -8.21875 C 18.929688 -8.019531 18.65625 -7.867188 18.3125 -7.765625 C 17.96875 -7.671875 17.613281 -7.609375 17.25 -7.578125 C 16.882812 -7.554688 16.539062 -7.546875 16.21875 -7.546875 C 15.082031 -7.546875 13.925781 -7.539062 12.75 -7.53125 C 11.570312 -7.519531 10.410156 -7.484375 9.265625 -7.421875 C 8.117188 -7.359375 6.984375 -7.257812 5.859375 -7.125 C 5.566406 -7.101562 5.242188 -7.238281 4.890625 -7.53125 C 4.546875 -7.832031 4.375 -8.175781 4.375 -8.5625 Z M 4.375 -8.5625 "/></g></g></g><g fill="#ffffff" fill-opacity="1"><g transform="translate(51.122687, 71.630781)"><g><path d="M 3.5625 -23.703125 C 3.601562 -24.140625 3.75 -24.460938 4 -24.671875 C 4.25 -24.878906 4.570312 -24.984375 4.96875 -24.984375 C 5.34375 -24.984375 5.664062 -24.878906 5.9375 -24.671875 C 6.207031 -24.460938 6.332031 -24.140625 6.3125 -23.703125 C 6.226562 -22.921875 6.15625 -22.128906 6.09375 -21.328125 C 6.039062 -20.535156 5.992188 -19.726562 5.953125 -18.90625 C 5.910156 -18.09375 5.875 -17.25 5.84375 -16.375 C 5.820312 -15.507812 5.789062 -14.617188 5.75 -13.703125 C 6.101562 -14.222656 6.5 -14.65625 6.9375 -15 C 7.375 -15.351562 7.835938 -15.625 8.328125 -15.8125 C 8.816406 -16 9.332031 -16.09375 9.875 -16.09375 C 11.132812 -16.09375 12.1875 -15.753906 13.03125 -15.078125 C 13.875 -14.398438 14.507812 -13.492188 14.9375 -12.359375 C 15.375 -11.222656 15.59375 -9.96875 15.59375 -8.59375 C 15.59375 -6.96875 15.3125 -5.488281 14.75 -4.15625 C 14.1875 -2.820312 13.390625 -1.75 12.359375 -0.9375 C 11.335938 -0.132812 10.117188 0.265625 8.703125 0.265625 C 8.046875 0.265625 7.390625 0.175781 6.734375 0 C 6.078125 -0.175781 5.488281 -0.425781 4.96875 -0.75 C 4.863281 -0.40625 4.695312 -0.171875 4.46875 -0.046875 C 4.238281 0.0664062 3.992188 0.125 3.734375 0.125 C 3.398438 0.125 3.097656 0.0234375 2.828125 -0.171875 C 2.554688 -0.378906 2.421875 -0.671875 2.421875 -1.046875 C 2.421875 -1.171875 2.425781 -1.363281 2.4375 -1.625 C 2.445312 -1.894531 2.460938 -2.09375 2.484375 -2.21875 C 2.304688 -2.375 2.175781 -2.53125 2.09375 -2.6875 C 2.007812 -2.851562 1.96875 -3.054688 1.96875 -3.296875 C 1.96875 -3.453125 2.019531 -3.617188 2.125 -3.796875 C 2.238281 -3.972656 2.398438 -4.132812 2.609375 -4.28125 C 2.722656 -6.488281 2.816406 -8.644531 2.890625 -10.75 C 2.972656 -12.851562 3.0625 -14.972656 3.15625 -17.109375 C 3.25 -19.242188 3.382812 -21.441406 3.5625 -23.703125 Z M 5.265625 -3.296875 C 5.722656 -2.929688 6.203125 -2.664062 6.703125 -2.5 C 7.203125 -2.332031 7.738281 -2.25 8.3125 -2.25 C 9.09375 -2.25 9.828125 -2.445312 10.515625 -2.84375 C 11.203125 -3.238281 11.753906 -3.890625 12.171875 -4.796875 C 12.597656 -5.703125 12.8125 -6.914062 12.8125 -8.4375 C 12.8125 -9.332031 12.703125 -10.171875 12.484375 -10.953125 C 12.273438 -11.734375 11.941406 -12.359375 11.484375 -12.828125 C 11.023438 -13.296875 10.398438 -13.53125 9.609375 -13.53125 C 9.046875 -13.53125 8.519531 -13.335938 8.03125 -12.953125 C 7.539062 -12.578125 7.101562 -12.101562 6.71875 -11.53125 C 6.34375 -10.96875 6.046875 -10.367188 5.828125 -9.734375 C 5.609375 -9.109375 5.488281 -8.535156 5.46875 -8.015625 C 5.457031 -7.484375 5.441406 -6.941406 5.421875 -6.390625 C 5.398438 -5.835938 5.378906 -5.300781 5.359375 -4.78125 C 5.335938 -4.269531 5.304688 -3.773438 5.265625 -3.296875 Z M 5.265625 -3.296875 "/></g></g></g><g fill="#ffffff" fill-opacity="1"><g transform="translate(68.360108, 71.630781)"><g><path d="M 8.703125 -16.34375 C 9.160156 -16.34375 9.617188 -16.296875 10.078125 -16.203125 C 10.535156 -16.109375 10.960938 -15.976562 11.359375 -15.8125 C 11.765625 -15.644531 12.109375 -15.429688 12.390625 -15.171875 C 13.304688 -14.429688 13.976562 -13.472656 14.40625 -12.296875 C 14.832031 -11.117188 15.046875 -9.882812 15.046875 -8.59375 C 15.046875 -7.488281 14.90625 -6.421875 14.625 -5.390625 C 14.351562 -4.367188 13.945312 -3.441406 13.40625 -2.609375 C 12.863281 -1.785156 12.203125 -1.128906 11.421875 -0.640625 C 10.648438 -0.148438 9.765625 0.09375 8.765625 0.09375 C 7.742188 0.09375 6.800781 -0.125 5.9375 -0.5625 C 5.070312 -1.007812 4.304688 -1.609375 3.640625 -2.359375 C 2.984375 -3.117188 2.472656 -3.992188 2.109375 -4.984375 C 1.753906 -5.972656 1.578125 -7.015625 1.578125 -8.109375 C 1.578125 -9.148438 1.734375 -10.15625 2.046875 -11.125 C 2.359375 -12.101562 2.816406 -12.984375 3.421875 -13.765625 C 4.035156 -14.554688 4.785156 -15.179688 5.671875 -15.640625 C 6.554688 -16.109375 7.566406 -16.34375 8.703125 -16.34375 Z M 4.34375 -8.3125 C 4.34375 -7.320312 4.507812 -6.378906 4.84375 -5.484375 C 5.1875 -4.597656 5.679688 -3.878906 6.328125 -3.328125 C 6.972656 -2.785156 7.753906 -2.515625 8.671875 -2.515625 C 9.316406 -2.515625 9.867188 -2.6875 10.328125 -3.03125 C 10.785156 -3.382812 11.160156 -3.851562 11.453125 -4.4375 C 11.753906 -5.03125 11.972656 -5.675781 12.109375 -6.375 C 12.253906 -7.070312 12.328125 -7.757812 12.328125 -8.4375 C 12.328125 -9.65625 12.128906 -10.6875 11.734375 -11.53125 C 11.347656 -12.382812 10.828125 -13.039062 10.171875 -13.5 C 9.910156 -13.570312 9.65625 -13.625 9.40625 -13.65625 C 9.15625 -13.6875 8.898438 -13.703125 8.640625 -13.703125 C 7.960938 -13.703125 7.351562 -13.554688 6.8125 -13.265625 C 6.28125 -12.984375 5.828125 -12.585938 5.453125 -12.078125 C 5.085938 -11.566406 4.8125 -10.988281 4.625 -10.34375 C 4.4375 -9.707031 4.34375 -9.03125 4.34375 -8.3125 Z M 4.34375 -8.3125 "/></g></g></g><g fill="#ffffff" fill-opacity="1"><g transform="translate(84.969084, 71.630781)"><g><path d="M 7.296875 0.359375 C 6.316406 0.359375 5.488281 0.109375 4.8125 -0.390625 C 4.132812 -0.890625 3.585938 -1.546875 3.171875 -2.359375 C 2.753906 -3.179688 2.445312 -4.085938 2.25 -5.078125 C 2.0625 -6.078125 1.96875 -7.066406 1.96875 -8.046875 C 1.96875 -9.285156 2.054688 -10.519531 2.234375 -11.75 C 2.421875 -12.988281 2.613281 -14.175781 2.8125 -15.3125 C 2.851562 -15.59375 3.007812 -15.820312 3.28125 -16 C 3.550781 -16.1875 3.851562 -16.28125 4.1875 -16.28125 C 4.582031 -16.28125 4.898438 -16.140625 5.140625 -15.859375 C 5.378906 -15.578125 5.5 -15.238281 5.5 -14.84375 C 5.476562 -14.476562 5.40625 -14.015625 5.28125 -13.453125 C 5.15625 -12.898438 5.03125 -12.195312 4.90625 -11.34375 C 4.789062 -10.5 4.734375 -9.453125 4.734375 -8.203125 C 4.742188 -7.285156 4.832031 -6.363281 5 -5.4375 C 5.175781 -4.519531 5.457031 -3.753906 5.84375 -3.140625 C 6.238281 -2.523438 6.753906 -2.21875 7.390625 -2.21875 C 8.046875 -2.21875 8.640625 -2.453125 9.171875 -2.921875 C 9.703125 -3.390625 10.175781 -3.976562 10.59375 -4.6875 C 11.007812 -5.394531 11.363281 -6.132812 11.65625 -6.90625 C 11.945312 -7.6875 12.171875 -8.375 12.328125 -8.96875 C 12.390625 -10.113281 12.429688 -11.191406 12.453125 -12.203125 C 12.472656 -13.222656 12.488281 -14.179688 12.5 -15.078125 C 12.519531 -15.472656 12.664062 -15.773438 12.9375 -15.984375 C 13.207031 -16.203125 13.53125 -16.3125 13.90625 -16.3125 C 14.164062 -16.3125 14.394531 -16.257812 14.59375 -16.15625 C 14.800781 -16.0625 14.960938 -15.914062 15.078125 -15.71875 C 15.203125 -15.53125 15.265625 -15.296875 15.265625 -15.015625 C 15.285156 -14.816406 15.296875 -14.503906 15.296875 -14.078125 C 15.296875 -13.648438 15.285156 -13.164062 15.265625 -12.625 C 15.242188 -12.082031 15.207031 -11.515625 15.15625 -10.921875 C 15.101562 -10.335938 15.03125 -9.78125 14.9375 -9.25 C 14.875 -7.769531 14.828125 -6.332031 14.796875 -4.9375 C 14.765625 -3.539062 14.679688 -2.164062 14.546875 -0.8125 C 14.523438 -0.488281 14.382812 -0.21875 14.125 0 C 13.863281 0.21875 13.535156 0.328125 13.140625 0.328125 C 12.617188 0.328125 12.269531 0.195312 12.09375 -0.0625 C 11.925781 -0.320312 11.84375 -0.597656 11.84375 -0.890625 C 11.84375 -1.078125 11.859375 -1.269531 11.890625 -1.46875 C 11.921875 -1.664062 11.953125 -1.882812 11.984375 -2.125 C 12.015625 -2.363281 12.03125 -2.632812 12.03125 -2.9375 C 11.726562 -2.476562 11.40625 -2.046875 11.0625 -1.640625 C 10.726562 -1.242188 10.367188 -0.894531 9.984375 -0.59375 C 9.609375 -0.300781 9.195312 -0.0703125 8.75 0.09375 C 8.300781 0.269531 7.816406 0.359375 7.296875 0.359375 Z M 7.296875 0.359375 "/></g></g></g><g fill="#ffffff" fill-opacity="1"><g transform="translate(102.386066, 71.630781)"><g><path d="M 3.953125 -19.328125 C 3.992188 -19.722656 4.132812 -20.019531 4.375 -20.21875 C 4.625 -20.425781 4.929688 -20.53125 5.296875 -20.53125 C 5.535156 -20.53125 5.769531 -20.484375 6 -20.390625 C 6.226562 -20.296875 6.410156 -20.160156 6.546875 -19.984375 C 6.691406 -19.804688 6.742188 -19.578125 6.703125 -19.296875 C 6.546875 -18.023438 6.410156 -16.800781 6.296875 -15.625 C 6.191406 -14.445312 6.109375 -13.28125 6.046875 -12.125 C 5.984375 -10.96875 5.953125 -9.769531 5.953125 -8.53125 C 5.972656 -7.007812 6.035156 -5.796875 6.140625 -4.890625 C 6.253906 -3.984375 6.390625 -3.328125 6.546875 -2.921875 C 6.710938 -2.523438 6.851562 -2.328125 6.96875 -2.328125 C 7.144531 -2.328125 7.375 -2.441406 7.65625 -2.671875 C 7.9375 -2.898438 8.210938 -3.160156 8.484375 -3.453125 C 8.753906 -3.742188 8.945312 -3.957031 9.0625 -4.09375 C 9.1875 -4.238281 9.320312 -4.332031 9.46875 -4.375 C 9.613281 -4.425781 9.757812 -4.453125 9.90625 -4.453125 C 10.144531 -4.453125 10.363281 -4.390625 10.5625 -4.265625 C 10.757812 -4.148438 10.914062 -3.992188 11.03125 -3.796875 C 11.15625 -3.597656 11.21875 -3.378906 11.21875 -3.140625 C 11.21875 -3.003906 11.179688 -2.851562 11.109375 -2.6875 C 11.046875 -2.53125 10.929688 -2.351562 10.765625 -2.15625 C 10.367188 -1.632812 9.9375 -1.191406 9.46875 -0.828125 C 9 -0.472656 8.535156 -0.207031 8.078125 -0.03125 C 7.617188 0.144531 7.171875 0.234375 6.734375 0.234375 C 5.953125 0.234375 5.285156 -0.046875 4.734375 -0.609375 C 4.191406 -1.179688 3.8125 -2.078125 3.59375 -3.296875 C 3.445312 -4.171875 3.335938 -5.050781 3.265625 -5.9375 C 3.203125 -6.820312 3.171875 -7.71875 3.171875 -8.625 C 3.171875 -9.832031 3.195312 -10.992188 3.25 -12.109375 C 3.3125 -13.234375 3.398438 -14.378906 3.515625 -15.546875 C 3.640625 -16.710938 3.785156 -17.972656 3.953125 -19.328125 Z M 2.390625 -13.3125 C 2.015625 -13.289062 1.722656 -13.40625 1.515625 -13.65625 C 1.304688 -13.90625 1.203125 -14.210938 1.203125 -14.578125 C 1.203125 -14.910156 1.304688 -15.195312 1.515625 -15.4375 C 1.722656 -15.675781 2.015625 -15.804688 2.390625 -15.828125 C 2.910156 -15.867188 3.453125 -15.90625 4.015625 -15.9375 C 4.585938 -15.96875 5.179688 -15.988281 5.796875 -16 C 6.421875 -16.007812 7.09375 -16.015625 7.8125 -16.015625 C 8.53125 -16.023438 9.296875 -16.03125 10.109375 -16.03125 C 10.453125 -16.03125 10.742188 -15.910156 10.984375 -15.671875 C 11.222656 -15.429688 11.351562 -15.125 11.375 -14.75 C 11.375 -14.394531 11.242188 -14.101562 10.984375 -13.875 C 10.722656 -13.644531 10.429688 -13.53125 10.109375 -13.53125 C 9.273438 -13.53125 8.554688 -13.523438 7.953125 -13.515625 C 7.359375 -13.503906 6.789062 -13.492188 6.25 -13.484375 C 5.71875 -13.472656 5.148438 -13.453125 4.546875 -13.421875 C 3.953125 -13.390625 3.234375 -13.351562 2.390625 -13.3125 Z M 2.390625 -13.3125 "/></g></g></g><g fill="#ffffff" fill-opacity="1"><g transform="translate(114.595912, 71.630781)"><g/></g></g><g fill="#ffffff" fill-opacity="1"><g transform="translate(127.284575, 71.630781)"><g><path d="M 3.375 -15.4375 C 3.4375 -15.738281 3.597656 -15.96875 3.859375 -16.125 C 4.117188 -16.289062 4.398438 -16.375 4.703125 -16.375 C 5.097656 -16.375 5.410156 -16.253906 5.640625 -16.015625 C 5.867188 -15.785156 5.984375 -15.484375 5.984375 -15.109375 C 5.984375 -14.910156 5.957031 -14.6875 5.90625 -14.4375 C 5.851562 -14.1875 5.800781 -13.832031 5.75 -13.375 C 6.207031 -14.03125 6.6875 -14.582031 7.1875 -15.03125 C 7.695312 -15.476562 8.234375 -15.816406 8.796875 -16.046875 C 9.359375 -16.273438 9.925781 -16.390625 10.5 -16.390625 C 11.0625 -16.390625 11.613281 -16.28125 12.15625 -16.0625 C 12.707031 -15.84375 13.195312 -15.492188 13.625 -15.015625 C 14.050781 -14.535156 14.378906 -13.898438 14.609375 -13.109375 C 15.066406 -13.804688 15.578125 -14.40625 16.140625 -14.90625 C 16.710938 -15.414062 17.320312 -15.8125 17.96875 -16.09375 C 18.613281 -16.375 19.273438 -16.515625 19.953125 -16.515625 C 20.953125 -16.515625 21.769531 -16.300781 22.40625 -15.875 C 23.050781 -15.445312 23.5625 -14.867188 23.9375 -14.140625 C 24.3125 -13.410156 24.570312 -12.570312 24.71875 -11.625 C 24.875 -10.675781 24.953125 -9.691406 24.953125 -8.671875 C 24.953125 -8.015625 24.9375 -7.421875 24.90625 -6.890625 C 24.875 -6.367188 24.828125 -5.832031 24.765625 -5.28125 C 24.710938 -4.726562 24.648438 -4.125 24.578125 -3.46875 C 24.503906 -2.8125 24.421875 -2.035156 24.328125 -1.140625 C 24.265625 -0.734375 24.101562 -0.414062 23.84375 -0.1875 C 23.582031 0.0390625 23.285156 0.15625 22.953125 0.15625 C 22.492188 0.15625 22.15625 0.0234375 21.9375 -0.234375 C 21.71875 -0.492188 21.609375 -0.828125 21.609375 -1.234375 C 21.609375 -1.410156 21.632812 -1.726562 21.6875 -2.1875 C 21.75 -2.644531 21.820312 -3.203125 21.90625 -3.859375 C 22 -4.515625 22.078125 -5.238281 22.140625 -6.03125 C 22.203125 -6.832031 22.234375 -7.664062 22.234375 -8.53125 C 22.234375 -10.539062 22.015625 -11.941406 21.578125 -12.734375 C 21.148438 -13.535156 20.53125 -13.9375 19.71875 -13.9375 C 19.28125 -13.9375 18.8125 -13.785156 18.3125 -13.484375 C 17.8125 -13.191406 17.332031 -12.789062 16.875 -12.28125 C 16.414062 -11.769531 16.023438 -11.203125 15.703125 -10.578125 C 15.390625 -9.953125 15.179688 -9.300781 15.078125 -8.625 C 15.078125 -8.238281 15.066406 -7.90625 15.046875 -7.625 C 15.023438 -7.351562 15.007812 -7.09375 15 -6.84375 C 14.988281 -6.59375 14.972656 -6.328125 14.953125 -6.046875 C 14.941406 -5.460938 14.910156 -4.882812 14.859375 -4.3125 C 14.804688 -3.75 14.757812 -3.1875 14.71875 -2.625 C 14.675781 -2.070312 14.644531 -1.503906 14.625 -0.921875 C 14.625 -0.503906 14.492188 -0.191406 14.234375 0.015625 C 13.984375 0.222656 13.65625 0.328125 13.25 0.328125 C 12.875 0.328125 12.554688 0.222656 12.296875 0.015625 C 12.035156 -0.191406 11.90625 -0.515625 11.90625 -0.953125 C 11.925781 -1.847656 11.96875 -2.722656 12.03125 -3.578125 C 12.101562 -4.441406 12.171875 -5.304688 12.234375 -6.171875 C 12.296875 -7.046875 12.328125 -7.941406 12.328125 -8.859375 C 12.328125 -10.671875 12.148438 -11.960938 11.796875 -12.734375 C 11.453125 -13.503906 10.972656 -13.890625 10.359375 -13.890625 C 9.835938 -13.890625 9.28125 -13.6875 8.6875 -13.28125 C 8.101562 -12.882812 7.539062 -12.332031 7 -11.625 C 6.457031 -10.914062 5.988281 -10.113281 5.59375 -9.21875 C 5.550781 -8.21875 5.507812 -7.210938 5.46875 -6.203125 C 5.4375 -5.203125 5.398438 -4.25 5.359375 -3.34375 C 5.316406 -2.445312 5.273438 -1.640625 5.234375 -0.921875 C 5.210938 -0.503906 5.078125 -0.191406 4.828125 0.015625 C 4.578125 0.222656 4.265625 0.328125 3.890625 0.328125 C 3.515625 0.328125 3.1875 0.222656 2.90625 0.015625 C 2.625 -0.191406 2.492188 -0.515625 2.515625 -0.953125 C 2.578125 -2.347656 2.625 -3.734375 2.65625 -5.109375 C 2.695312 -6.492188 2.75 -7.875 2.8125 -9.25 C 2.851562 -10.28125 2.910156 -11.3125 2.984375 -12.34375 C 3.066406 -13.375 3.195312 -14.40625 3.375 -15.4375 Z M 3.375 -15.4375 "/></g></g></g><g fill="#ffffff" fill-opacity="1"><g transform="translate(154.517305, 71.630781)"><g><path d="M 8.4375 0 C 7.34375 0 6.363281 -0.21875 5.5 -0.65625 C 4.644531 -1.09375 3.914062 -1.6875 3.3125 -2.4375 C 2.71875 -3.1875 2.265625 -4.023438 1.953125 -4.953125 C 1.648438 -5.878906 1.5 -6.820312 1.5 -7.78125 C 1.5 -8.800781 1.703125 -9.804688 2.109375 -10.796875 C 2.515625 -11.796875 3.082031 -12.710938 3.8125 -13.546875 C 4.539062 -14.390625 5.382812 -15.0625 6.34375 -15.5625 C 7.300781 -16.0625 8.328125 -16.3125 9.421875 -16.3125 C 10.285156 -16.3125 11.039062 -16.132812 11.6875 -15.78125 C 12.332031 -15.4375 12.835938 -14.960938 13.203125 -14.359375 C 13.578125 -13.765625 13.765625 -13.066406 13.765625 -12.265625 C 13.765625 -11.429688 13.550781 -10.640625 13.125 -9.890625 C 12.707031 -9.140625 12.125 -8.535156 11.375 -8.078125 C 10.351562 -7.378906 9.238281 -6.894531 8.03125 -6.625 C 6.820312 -6.351562 5.601562 -6.195312 4.375 -6.15625 C 4.53125 -5.582031 4.785156 -5.015625 5.140625 -4.453125 C 5.503906 -3.898438 5.96875 -3.4375 6.53125 -3.0625 C 7.101562 -2.695312 7.78125 -2.515625 8.5625 -2.515625 C 9.300781 -2.515625 10.015625 -2.726562 10.703125 -3.15625 C 11.390625 -3.582031 11.984375 -4.078125 12.484375 -4.640625 C 12.597656 -4.796875 12.726562 -4.90625 12.875 -4.96875 C 13.03125 -5.03125 13.175781 -5.0625 13.3125 -5.0625 C 13.550781 -5.0625 13.769531 -5 13.96875 -4.875 C 14.164062 -4.757812 14.320312 -4.597656 14.4375 -4.390625 C 14.5625 -4.191406 14.625 -3.972656 14.625 -3.734375 C 14.644531 -3.578125 14.625 -3.421875 14.5625 -3.265625 C 14.507812 -3.117188 14.410156 -2.976562 14.265625 -2.84375 C 13.535156 -2.039062 12.675781 -1.363281 11.6875 -0.8125 C 10.695312 -0.269531 9.613281 0 8.4375 0 Z M 4.25 -8.625 C 5.050781 -8.65625 5.789062 -8.71875 6.46875 -8.8125 C 7.144531 -8.90625 7.851562 -9.097656 8.59375 -9.390625 C 9.25 -9.648438 9.828125 -10.023438 10.328125 -10.515625 C 10.828125 -11.003906 11.078125 -11.597656 11.078125 -12.296875 C 11.078125 -12.578125 11.007812 -12.832031 10.875 -13.0625 C 10.75 -13.289062 10.5625 -13.476562 10.3125 -13.625 C 10.0625 -13.78125 9.734375 -13.859375 9.328125 -13.859375 C 8.691406 -13.859375 8.082031 -13.695312 7.5 -13.375 C 6.925781 -13.050781 6.410156 -12.632812 5.953125 -12.125 C 5.492188 -11.625 5.117188 -11.0625 4.828125 -10.4375 C 4.546875 -9.820312 4.351562 -9.21875 4.25 -8.625 Z M 4.25 -8.625 "/></g></g></g></svg>