<svg xmlns="http://www.w3.org/2000/svg" xmlns:xlink="http://www.w3.org/1999/xlink" width="132" zoomAndPan="magnify" viewBox="0 0 98.88 70.499998" height="94" preserveAspectRatio="xMidYMid meet" version="1.0"><defs><g/><clipPath id="8d92691f7d"><path d="M 7 15 L 97.84375 15 L 97.84375 63.386719 L 7 63.386719 Z M 7 15 " clip-rule="nonzero"/></clipPath><clipPath id="ba3cb8d641"><path d="M 8 16 L 97.84375 16 L 97.84375 63 L 8 63 Z M 8 16 " clip-rule="nonzero"/></clipPath><clipPath id="b11f2389a1"><path d="M 3.261719 10 L 94 10 L 94 59 L 3.261719 59 Z M 3.261719 10 " clip-rule="nonzero"/></clipPath><clipPath id="ae8f19f216"><path d="M 3.261719 11 L 93 11 L 93 59 L 3.261719 59 Z M 3.261719 11 " clip-rule="nonzero"/></clipPath><clipPath id="21c77070f0"><path d="M 7 3.808594 L 24 3.808594 L 24 20 L 7 20 Z M 7 3.808594 " clip-rule="nonzero"/></clipPath><clipPath id="4463f16bda"><path d="M 0.40625 8 L 27 8 L 27 47 L 0.40625 47 Z M 0.40625 8 " clip-rule="nonzero"/></clipPath><clipPath id="c27324a8c8"><rect x="0" width="47" y="0" height="55"/></clipPath></defs><g clip-path="url(#8d92691f7d)"><path fill="#1c3872" d="M 98.191406 19.363281 L 98.191406 59.484375 C 98.191406 59.996094 98.09375 60.492188 97.894531 60.96875 C 97.699219 61.441406 97.417969 61.863281 97.054688 62.226562 C 96.691406 62.589844 96.269531 62.871094 95.796875 63.066406 C 95.320312 63.265625 94.824219 63.363281 94.3125 63.363281 L 11.84375 63.363281 C 11.332031 63.363281 10.835938 63.265625 10.359375 63.066406 C 9.886719 62.871094 9.464844 62.589844 9.101562 62.226562 C 8.738281 61.863281 8.457031 61.441406 8.261719 60.96875 C 8.0625 60.492188 7.964844 59.996094 7.964844 59.484375 L 7.964844 19.363281 C 7.964844 18.851562 8.0625 18.355469 8.261719 17.878906 C 8.457031 17.40625 8.738281 16.984375 9.101562 16.621094 C 9.464844 16.257812 9.886719 15.976562 10.359375 15.78125 C 10.835938 15.582031 11.332031 15.484375 11.84375 15.484375 L 94.3125 15.484375 C 94.824219 15.484375 95.320312 15.582031 95.796875 15.78125 C 96.269531 15.976562 96.691406 16.257812 97.054688 16.621094 C 97.417969 16.984375 97.699219 17.40625 97.894531 17.878906 C 98.09375 18.355469 98.191406 18.851562 98.191406 19.363281 Z M 98.191406 19.363281 " fill-opacity="1" fill-rule="nonzero"/></g><g clip-path="url(#ba3cb8d641)"><path fill="#000000" d="M 97.546875 19.375 L 97.546875 59.472656 C 97.546875 59.902344 97.464844 60.316406 97.300781 60.714844 C 97.136719 61.113281 96.902344 61.464844 96.597656 61.769531 C 96.292969 62.074219 95.941406 62.308594 95.542969 62.472656 C 95.144531 62.636719 94.730469 62.71875 94.300781 62.71875 L 11.855469 62.71875 C 11.425781 62.71875 11.011719 62.636719 10.613281 62.472656 C 10.214844 62.308594 9.863281 62.074219 9.558594 61.769531 C 9.257812 61.464844 9.019531 61.113281 8.855469 60.714844 C 8.691406 60.316406 8.609375 59.902344 8.609375 59.472656 L 8.609375 19.375 C 8.609375 18.945312 8.691406 18.53125 8.855469 18.132812 C 9.019531 17.734375 9.257812 17.382812 9.558594 17.078125 C 9.863281 16.777344 10.214844 16.539062 10.613281 16.375 C 11.011719 16.210938 11.425781 16.128906 11.855469 16.128906 L 94.300781 16.128906 C 94.730469 16.128906 95.144531 16.210938 95.542969 16.375 C 95.941406 16.539062 96.292969 16.777344 96.597656 17.078125 C 96.902344 17.382812 97.136719 17.734375 97.300781 18.132812 C 97.464844 18.53125 97.546875 18.945312 97.546875 19.375 Z M 97.546875 19.375 " fill-opacity="1" fill-rule="nonzero"/></g><path fill="#537cd1" d="M 11.867188 16.773438 L 94.289062 16.773438 C 94.636719 16.773438 94.96875 16.839844 95.289062 16.972656 C 95.609375 17.105469 95.894531 17.292969 96.136719 17.539062 C 96.382812 17.785156 96.570312 18.066406 96.703125 18.386719 C 96.835938 18.707031 96.902344 19.039062 96.902344 19.386719 L 96.902344 59.460938 C 96.902344 59.808594 96.835938 60.140625 96.703125 60.460938 C 96.570312 60.78125 96.382812 61.066406 96.136719 61.308594 C 95.894531 61.554688 95.609375 61.742188 95.289062 61.875 C 94.96875 62.007812 94.636719 62.074219 94.289062 62.074219 L 11.867188 62.074219 C 11.519531 62.074219 11.1875 62.007812 10.867188 61.875 C 10.546875 61.742188 10.265625 61.554688 10.019531 61.308594 C 9.773438 61.066406 9.585938 60.78125 9.453125 60.460938 C 9.320312 60.140625 9.253906 59.808594 9.253906 59.460938 L 9.253906 19.386719 C 9.253906 19.039062 9.320312 18.707031 9.453125 18.386719 C 9.585938 18.066406 9.773438 17.785156 10.019531 17.539062 C 10.265625 17.292969 10.546875 17.105469 10.867188 16.972656 C 11.1875 16.839844 11.519531 16.773438 11.867188 16.773438 Z M 11.867188 16.773438 " fill-opacity="1" fill-rule="nonzero"/><g clip-path="url(#b11f2389a1)"><path fill="#1c3872" d="M 93.488281 14.664062 L 93.488281 54.78125 C 93.488281 55.296875 93.390625 55.789062 93.195312 56.265625 C 92.996094 56.742188 92.714844 57.160156 92.351562 57.523438 C 91.988281 57.886719 91.570312 58.167969 91.09375 58.367188 C 90.617188 58.5625 90.125 58.660156 89.609375 58.660156 L 7.144531 58.660156 C 6.628906 58.660156 6.132812 58.5625 5.660156 58.367188 C 5.183594 58.167969 4.761719 57.886719 4.398438 57.523438 C 4.035156 57.160156 3.753906 56.742188 3.558594 56.265625 C 3.363281 55.789062 3.261719 55.296875 3.261719 54.78125 L 3.261719 14.664062 C 3.261719 14.148438 3.363281 13.652344 3.558594 13.179688 C 3.753906 12.703125 4.035156 12.28125 4.398438 11.917969 C 4.761719 11.554688 5.183594 11.273438 5.660156 11.078125 C 6.132812 10.882812 6.628906 10.78125 7.144531 10.78125 L 89.609375 10.78125 C 90.125 10.78125 90.617188 10.882812 91.09375 11.078125 C 91.570312 11.273438 91.988281 11.554688 92.351562 11.917969 C 92.714844 12.28125 92.996094 12.703125 93.195312 13.179688 C 93.390625 13.652344 93.488281 14.148438 93.488281 14.664062 Z M 93.488281 14.664062 " fill-opacity="1" fill-rule="nonzero"/></g><g clip-path="url(#ae8f19f216)"><path fill="#000000" d="M 92.84375 14.671875 L 92.84375 54.769531 C 92.84375 55.199219 92.761719 55.613281 92.597656 56.011719 C 92.433594 56.410156 92.199219 56.761719 91.894531 57.066406 C 91.589844 57.371094 91.238281 57.605469 90.839844 57.769531 C 90.441406 57.933594 90.027344 58.015625 89.597656 58.015625 L 7.152344 58.015625 C 6.722656 58.015625 6.308594 57.933594 5.910156 57.769531 C 5.511719 57.605469 5.164062 57.371094 4.859375 57.066406 C 4.554688 56.761719 4.320312 56.410156 4.152344 56.011719 C 3.988281 55.613281 3.90625 55.199219 3.90625 54.769531 L 3.90625 14.671875 C 3.90625 14.242188 3.988281 13.828125 4.152344 13.429688 C 4.320312 13.03125 4.554688 12.683594 4.859375 12.378906 C 5.164062 12.074219 5.511719 11.839844 5.910156 11.671875 C 6.308594 11.507812 6.722656 11.425781 7.152344 11.425781 L 89.597656 11.425781 C 90.027344 11.425781 90.441406 11.507812 90.839844 11.671875 C 91.238281 11.839844 91.589844 12.074219 91.894531 12.378906 C 92.199219 12.683594 92.433594 13.03125 92.597656 13.429688 C 92.761719 13.828125 92.84375 14.242188 92.84375 14.671875 Z M 92.84375 14.671875 " fill-opacity="1" fill-rule="nonzero"/></g><path fill="#1c3872" d="M 7.164062 12.070312 L 89.585938 12.070312 C 89.933594 12.070312 90.265625 12.136719 90.585938 12.269531 C 90.90625 12.402344 91.191406 12.589844 91.433594 12.835938 C 91.679688 13.082031 91.871094 13.363281 92.003906 13.683594 C 92.136719 14.003906 92.203125 14.339844 92.203125 14.683594 L 92.203125 54.757812 C 92.203125 55.105469 92.136719 55.4375 92.003906 55.757812 C 91.871094 56.078125 91.679688 56.363281 91.433594 56.609375 C 91.191406 56.851562 90.90625 57.042969 90.585938 57.175781 C 90.265625 57.308594 89.933594 57.375 89.585938 57.375 L 7.164062 57.375 C 6.816406 57.375 6.484375 57.308594 6.164062 57.175781 C 5.84375 57.042969 5.5625 56.851562 5.316406 56.609375 C 5.070312 56.363281 4.882812 56.078125 4.75 55.757812 C 4.617188 55.4375 4.550781 55.105469 4.550781 54.757812 L 4.550781 14.683594 C 4.550781 14.339844 4.617188 14.003906 4.75 13.683594 C 4.882812 13.363281 5.070312 13.082031 5.316406 12.835938 C 5.5625 12.589844 5.84375 12.402344 6.164062 12.269531 C 6.484375 12.136719 6.816406 12.070312 7.164062 12.070312 Z M 7.164062 12.070312 " fill-opacity="1" fill-rule="nonzero"/><g clip-path="url(#21c77070f0)"><path fill="#1c3872" d="M 15.492188 19.574219 C 15.203125 19.574219 14.9375 19.488281 14.703125 19.3125 C 14.46875 19.140625 14.3125 18.910156 14.226562 18.632812 C 13.332031 15.652344 11.519531 13.796875 8.683594 12.964844 C 8.402344 12.878906 8.175781 12.722656 8 12.488281 C 7.824219 12.253906 7.734375 11.988281 7.734375 11.695312 C 7.734375 11.402344 7.824219 11.136719 8 10.902344 C 8.175781 10.667969 8.402344 10.511719 8.683594 10.429688 C 11.519531 9.59375 13.332031 7.742188 14.226562 4.757812 C 14.3125 4.480469 14.46875 4.253906 14.703125 4.078125 C 14.9375 3.90625 15.203125 3.816406 15.492188 3.816406 C 15.785156 3.816406 16.046875 3.90625 16.28125 4.078125 C 16.515625 4.253906 16.675781 4.480469 16.757812 4.757812 C 17.65625 7.742188 19.46875 9.59375 22.300781 10.429688 C 22.582031 10.511719 22.8125 10.667969 22.988281 10.902344 C 23.164062 11.136719 23.25 11.402344 23.25 11.695312 C 23.25 11.988281 23.164062 12.253906 22.988281 12.488281 C 22.8125 12.722656 22.582031 12.878906 22.300781 12.964844 C 19.46875 13.796875 17.65625 15.648438 16.757812 18.632812 C 16.675781 18.910156 16.519531 19.140625 16.28125 19.3125 C 16.046875 19.488281 15.785156 19.574219 15.492188 19.574219 Z M 15.492188 19.574219 " fill-opacity="1" fill-rule="nonzero"/></g><path fill="#000000" d="M 15.492188 18.929688 C 15.34375 18.929688 15.207031 18.886719 15.089844 18.796875 C 14.96875 18.707031 14.886719 18.589844 14.84375 18.445312 C 13.882812 15.242188 11.925781 13.246094 8.867188 12.34375 C 8.722656 12.304688 8.605469 12.222656 8.515625 12.101562 C 8.425781 11.980469 8.378906 11.847656 8.378906 11.695312 C 8.378906 11.546875 8.425781 11.410156 8.515625 11.289062 C 8.605469 11.167969 8.722656 11.089844 8.867188 11.046875 C 11.925781 10.144531 13.882812 8.148438 14.84375 4.945312 C 14.886719 4.800781 14.96875 4.683594 15.089844 4.59375 C 15.207031 4.503906 15.34375 4.460938 15.492188 4.460938 C 15.640625 4.460938 15.777344 4.503906 15.898438 4.59375 C 16.019531 4.683594 16.097656 4.800781 16.140625 4.945312 C 17.105469 8.148438 19.0625 10.144531 22.121094 11.046875 C 22.265625 11.089844 22.382812 11.167969 22.472656 11.289062 C 22.5625 11.410156 22.609375 11.546875 22.609375 11.695312 C 22.609375 11.847656 22.5625 11.980469 22.472656 12.101562 C 22.382812 12.222656 22.265625 12.304688 22.121094 12.34375 C 19.0625 13.246094 17.105469 15.242188 16.140625 18.445312 C 16.097656 18.589844 16.019531 18.707031 15.898438 18.796875 C 15.777344 18.886719 15.640625 18.929688 15.492188 18.929688 Z M 15.492188 18.929688 " fill-opacity="1" fill-rule="nonzero"/><path fill="#537cd1" d="M 15.460938 5.128906 C 14.441406 8.527344 12.300781 10.707031 9.046875 11.664062 C 9.03125 11.667969 9.023438 11.679688 9.023438 11.695312 C 9.023438 11.710938 9.03125 11.722656 9.046875 11.726562 C 12.300781 12.683594 14.441406 14.859375 15.460938 18.261719 C 15.464844 18.277344 15.476562 18.285156 15.492188 18.285156 C 15.511719 18.285156 15.519531 18.277344 15.527344 18.261719 C 16.546875 14.859375 18.683594 12.683594 21.9375 11.726562 C 21.957031 11.722656 21.964844 11.710938 21.964844 11.695312 C 21.964844 11.679688 21.957031 11.667969 21.9375 11.664062 C 18.683594 10.707031 16.546875 8.527344 15.527344 5.128906 C 15.519531 5.113281 15.511719 5.105469 15.492188 5.105469 C 15.476562 5.105469 15.464844 5.113281 15.460938 5.128906 Z M 15.460938 5.128906 " fill-opacity="1" fill-rule="nonzero"/><path fill="#1c3872" d="M 30.933594 17.46875 C 30.644531 17.46875 30.382812 17.382812 30.148438 17.210938 C 29.917969 17.039062 29.761719 16.8125 29.675781 16.535156 C 29.105469 14.625 27.992188 13.488281 26.183594 12.953125 C 25.90625 12.871094 25.679688 12.714844 25.503906 12.480469 C 25.328125 12.25 25.242188 11.988281 25.242188 11.695312 C 25.242188 11.40625 25.328125 11.144531 25.503906 10.910156 C 25.679688 10.679688 25.90625 10.523438 26.183594 10.441406 C 27.992188 9.90625 29.105469 8.769531 29.675781 6.859375 C 29.761719 6.582031 29.917969 6.355469 30.152344 6.183594 C 30.382812 6.011719 30.644531 5.925781 30.933594 5.925781 C 31.222656 5.925781 31.484375 6.011719 31.714844 6.183594 C 31.949219 6.355469 32.105469 6.582031 32.1875 6.859375 C 32.761719 8.769531 33.871094 9.90625 35.683594 10.441406 C 35.960938 10.523438 36.1875 10.679688 36.363281 10.910156 C 36.535156 11.144531 36.621094 11.40625 36.621094 11.695312 C 36.621094 11.988281 36.535156 12.25 36.363281 12.480469 C 36.1875 12.714844 35.960938 12.871094 35.683594 12.953125 C 33.871094 13.484375 32.761719 14.621094 32.1875 16.535156 C 32.105469 16.8125 31.949219 17.039062 31.714844 17.210938 C 31.484375 17.382812 31.222656 17.46875 30.933594 17.46875 Z M 30.933594 17.46875 " fill-opacity="1" fill-rule="nonzero"/><path fill="#000000" d="M 30.933594 16.824219 C 30.785156 16.824219 30.652344 16.78125 30.535156 16.691406 C 30.417969 16.605469 30.335938 16.488281 30.292969 16.347656 C 29.660156 14.238281 28.375 12.925781 26.363281 12.335938 C 26.222656 12.292969 26.109375 12.214844 26.019531 12.09375 C 25.929688 11.976562 25.886719 11.84375 25.886719 11.695312 C 25.886719 11.546875 25.929688 11.414062 26.019531 11.296875 C 26.109375 11.179688 26.222656 11.097656 26.363281 11.054688 C 28.375 10.464844 29.660156 9.152344 30.292969 7.042969 C 30.335938 6.902344 30.417969 6.785156 30.535156 6.699219 C 30.652344 6.609375 30.785156 6.566406 30.933594 6.566406 C 31.078125 6.566406 31.210938 6.609375 31.332031 6.699219 C 31.449219 6.785156 31.527344 6.902344 31.570312 7.042969 C 32.203125 9.152344 33.488281 10.464844 35.5 11.054688 C 35.640625 11.097656 35.757812 11.175781 35.847656 11.296875 C 35.933594 11.414062 35.980469 11.546875 35.980469 11.695312 C 35.980469 11.84375 35.933594 11.976562 35.847656 12.09375 C 35.757812 12.210938 35.640625 12.292969 35.5 12.335938 C 33.488281 12.925781 32.203125 14.238281 31.570312 16.347656 C 31.527344 16.488281 31.449219 16.605469 31.332031 16.691406 C 31.214844 16.78125 31.078125 16.824219 30.933594 16.824219 Z M 30.933594 16.824219 " fill-opacity="1" fill-rule="nonzero"/><path fill="#c1ff72" d="M 30.910156 7.226562 C 30.214844 9.539062 28.761719 11.023438 26.546875 11.671875 C 26.535156 11.675781 26.53125 11.683594 26.53125 11.695312 C 26.53125 11.707031 26.535156 11.714844 26.546875 11.71875 C 28.761719 12.367188 30.214844 13.851562 30.910156 16.164062 C 30.914062 16.171875 30.921875 16.179688 30.933594 16.179688 C 30.945312 16.179688 30.953125 16.171875 30.953125 16.164062 C 31.648438 13.851562 33.105469 12.367188 35.320312 11.71875 C 35.328125 11.714844 35.335938 11.707031 35.335938 11.695312 C 35.335938 11.683594 35.328125 11.675781 35.320312 11.671875 C 33.105469 11.023438 31.648438 9.539062 30.953125 7.226562 C 30.953125 7.21875 30.945312 7.210938 30.933594 7.210938 C 30.921875 7.210938 30.914062 7.21875 30.910156 7.226562 Z M 30.910156 7.226562 " fill-opacity="1" fill-rule="nonzero"/><g transform="matrix(1, 0, 0, 1, 23, 7)"><g clip-path="url(#c27324a8c8)"><g fill="#ffffff" fill-opacity="0.4"><g transform="translate(2.133912, 32.440595)"><g><path d="M 8.59375 14.5 C 9.070312 14.5 9.609375 14.332031 10.203125 14 C 10.804688 13.675781 11.375 13.296875 11.90625 12.859375 C 12.4375 12.421875 12.835938 12.015625 13.109375 11.640625 C 13.273438 11.429688 13.421875 11.25 13.546875 11.09375 C 13.679688 10.9375 13.820312 10.753906 13.96875 10.546875 C 14.070312 10.335938 14.1875 10.140625 14.3125 9.953125 C 14.4375 9.773438 14.539062 9.582031 14.625 9.375 C 14.957031 8.726562 15.175781 8.164062 15.28125 7.6875 C 15.382812 7.207031 15.429688 6.726562 15.421875 6.25 C 15.410156 5.78125 15.375 5.253906 15.3125 4.671875 C 15.164062 4.710938 15.050781 4.769531 14.96875 4.84375 C 14.882812 4.914062 14.769531 5.003906 14.625 5.109375 C 14.539062 5.191406 14.453125 5.265625 14.359375 5.328125 C 14.265625 5.390625 14.164062 5.460938 14.0625 5.546875 L 12.359375 7.0625 C 11.796875 7.582031 11.335938 8.003906 10.984375 8.328125 C 10.628906 8.648438 10.285156 8.988281 9.953125 9.34375 C 9.628906 9.707031 9.226562 10.210938 8.75 10.859375 C 8.601562 11.046875 8.421875 11.304688 8.203125 11.640625 C 7.984375 11.972656 7.789062 12.328125 7.625 12.703125 C 7.457031 13.078125 7.375 13.410156 7.375 13.703125 C 7.375 14.085938 7.453125 14.316406 7.609375 14.390625 C 7.765625 14.460938 8.03125 14.5 8.40625 14.5 C 8.445312 14.5 8.484375 14.5 8.515625 14.5 C 8.546875 14.5 8.570312 14.5 8.59375 14.5 Z M 0 -3.734375 C 0 -4.859375 0.191406 -6.035156 0.578125 -7.265625 C 0.960938 -8.503906 1.453125 -9.71875 2.046875 -10.90625 C 2.648438 -12.101562 3.253906 -13.175781 3.859375 -14.125 C 4.128906 -14.625 4.476562 -15.160156 4.90625 -15.734375 C 5.332031 -16.304688 5.78125 -16.875 6.25 -17.4375 C 6.726562 -18.007812 7.164062 -18.503906 7.5625 -18.921875 C 8.269531 -19.609375 8.988281 -20.238281 9.71875 -20.8125 C 10.457031 -21.394531 11.25 -21.863281 12.09375 -22.21875 C 12.9375 -22.570312 13.875 -22.75 14.90625 -22.75 C 15.90625 -22.6875 16.722656 -22.300781 17.359375 -21.59375 C 18.003906 -20.894531 18.484375 -20.03125 18.796875 -19 C 19.109375 -17.976562 19.265625 -16.925781 19.265625 -15.84375 C 19.265625 -14.613281 19.140625 -13.359375 18.890625 -12.078125 C 18.640625 -10.804688 18.367188 -9.613281 18.078125 -8.5 C 17.972656 -8.019531 17.859375 -7.597656 17.734375 -7.234375 C 17.617188 -6.867188 17.382812 -6.6875 17.03125 -6.6875 C 16.78125 -6.6875 16.644531 -6.875 16.625 -7.25 C 16.601562 -7.625 16.640625 -8.078125 16.734375 -8.609375 C 16.828125 -9.140625 16.929688 -9.632812 17.046875 -10.09375 C 17.160156 -10.5625 17.238281 -10.867188 17.28125 -11.015625 C 17.425781 -11.910156 17.554688 -12.875 17.671875 -13.90625 C 17.796875 -14.945312 17.8125 -15.976562 17.71875 -17 C 17.632812 -18.03125 17.375 -18.960938 16.9375 -19.796875 C 16.625 -20.398438 16.25 -20.820312 15.8125 -21.0625 C 15.375 -21.300781 14.90625 -21.421875 14.40625 -21.421875 C 13.96875 -21.421875 13.519531 -21.34375 13.0625 -21.1875 C 12.613281 -21.03125 12.179688 -20.835938 11.765625 -20.609375 C 11.472656 -20.421875 11.144531 -20.207031 10.78125 -19.96875 C 10.414062 -19.726562 10.109375 -19.484375 9.859375 -19.234375 C 9.703125 -19.085938 9.554688 -18.96875 9.421875 -18.875 C 9.285156 -18.78125 9.144531 -18.648438 9 -18.484375 L 5.296875 -14.0625 C 4.878906 -13.40625 4.550781 -12.863281 4.3125 -12.4375 C 4.070312 -12.007812 3.804688 -11.523438 3.515625 -10.984375 C 3.222656 -10.523438 2.921875 -9.929688 2.609375 -9.203125 C 2.296875 -8.484375 2.019531 -7.753906 1.78125 -7.015625 C 1.550781 -6.273438 1.382812 -5.640625 1.28125 -5.109375 C 1.21875 -4.628906 1.175781 -4.160156 1.15625 -3.703125 C 1.132812 -3.242188 1.195312 -2.785156 1.34375 -2.328125 C 1.550781 -1.796875 1.9375 -1.421875 2.5 -1.203125 C 3.070312 -0.984375 3.703125 -0.851562 4.390625 -0.8125 C 5.078125 -0.769531 5.707031 -0.738281 6.28125 -0.71875 C 7.03125 -0.675781 7.707031 -0.648438 8.3125 -0.640625 C 8.914062 -0.628906 9.519531 -0.59375 10.125 -0.53125 C 10.738281 -0.46875 11.410156 -0.3125 12.140625 -0.0625 C 12.554688 0.0625 13.019531 0.269531 13.53125 0.5625 C 14.050781 0.851562 14.519531 1.195312 14.9375 1.59375 C 15.351562 2 15.613281 2.421875 15.71875 2.859375 C 16.175781 2.546875 16.707031 2.140625 17.3125 1.640625 C 17.925781 1.148438 18.539062 0.644531 19.15625 0.125 C 19.769531 -0.394531 20.304688 -0.84375 20.765625 -1.21875 L 23.1875 -3.359375 C 23.394531 -3.566406 23.59375 -3.742188 23.78125 -3.890625 C 23.96875 -4.035156 24.164062 -4.210938 24.375 -4.421875 C 24.726562 -4.796875 24.992188 -5.046875 25.171875 -5.171875 C 25.347656 -5.296875 25.503906 -5.359375 25.640625 -5.359375 C 25.722656 -5.359375 25.796875 -5.347656 25.859375 -5.328125 C 25.921875 -5.304688 25.992188 -5.285156 26.078125 -5.265625 C 26.078125 -5.054688 26.097656 -4.929688 26.140625 -4.890625 C 26.179688 -4.847656 26.195312 -4.8125 26.1875 -4.78125 C 26.175781 -4.75 26.101562 -4.675781 25.96875 -4.5625 C 25.832031 -4.445312 25.582031 -4.210938 25.21875 -3.859375 C 24.53125 -3.191406 23.898438 -2.601562 23.328125 -2.09375 C 22.753906 -1.59375 22.140625 -1.03125 21.484375 -0.40625 L 19.484375 1.21875 C 19.316406 1.34375 19.070312 1.535156 18.75 1.796875 C 18.425781 2.066406 18.078125 2.347656 17.703125 2.640625 C 17.335938 2.929688 17.015625 3.195312 16.734375 3.4375 C 16.453125 3.675781 16.28125 3.847656 16.21875 3.953125 C 16.300781 4.285156 16.375 4.625 16.4375 4.96875 C 16.5 5.3125 16.53125 5.6875 16.53125 6.09375 C 16.53125 7.195312 16.273438 8.300781 15.765625 9.40625 C 15.253906 10.519531 14.59375 11.539062 13.78125 12.46875 C 12.976562 13.40625 12.128906 14.148438 11.234375 14.703125 C 10.335938 15.253906 9.5 15.53125 8.71875 15.53125 C 8.425781 15.53125 8.097656 15.5 7.734375 15.4375 C 7.367188 15.375 7.050781 15.242188 6.78125 15.046875 C 6.507812 14.847656 6.375 14.53125 6.375 14.09375 C 6.375 13.3125 6.503906 12.640625 6.765625 12.078125 C 7.023438 11.515625 7.382812 10.921875 7.84375 10.296875 C 8.53125 9.328125 9.25 8.488281 10 7.78125 C 10.757812 7.070312 11.554688 6.347656 12.390625 5.609375 L 14.90625 3.546875 C 14.34375 2.472656 13.628906 1.734375 12.765625 1.328125 C 11.910156 0.921875 10.863281 0.644531 9.625 0.5 L 7.09375 0.3125 C 6.101562 0.289062 5.1875 0.269531 4.34375 0.25 C 3.5 0.226562 2.722656 0.0820312 2.015625 -0.1875 C 1.335938 -0.4375 0.832031 -0.863281 0.5 -1.46875 C 0.164062 -2.082031 0 -2.835938 0 -3.734375 Z M 0 -3.734375 "/></g></g></g><g fill="#ffffff" fill-opacity="0.4"><g transform="translate(24.156958, 32.440595)"><g><path d="M 1.4375 8.375 C 1.90625 8.375 2.351562 8.175781 2.78125 7.78125 C 3.207031 7.382812 3.59375 6.925781 3.9375 6.40625 C 4.28125 5.894531 4.535156 5.460938 4.703125 5.109375 C 5.304688 3.898438 5.703125 2.875 5.890625 2.03125 C 6.085938 1.195312 6.257812 0.65625 6.40625 0.40625 C 6.28125 0.425781 6.085938 0.535156 5.828125 0.734375 C 5.578125 0.929688 5.332031 1.132812 5.09375 1.34375 C 4.851562 1.550781 4.679688 1.71875 4.578125 1.84375 C 4.222656 2.207031 3.816406 2.640625 3.359375 3.140625 C 2.898438 3.640625 2.457031 4.179688 2.03125 4.765625 C 1.613281 5.347656 1.296875 5.9375 1.078125 6.53125 C 0.859375 7.132812 0.8125 7.71875 0.9375 8.28125 C 1.0625 8.300781 1.144531 8.320312 1.1875 8.34375 C 1.226562 8.363281 1.3125 8.375 1.4375 8.375 Z M 16.75 -6.71875 C 16.832031 -7.007812 16.894531 -7.332031 16.9375 -7.6875 C 16.976562 -8.039062 17.019531 -8.375 17.0625 -8.6875 C 17.1875 -9.59375 17.347656 -10.617188 17.546875 -11.765625 C 17.753906 -12.910156 17.972656 -14.054688 18.203125 -15.203125 C 18.429688 -16.359375 18.640625 -17.390625 18.828125 -18.296875 C 18.890625 -18.585938 18.960938 -18.96875 19.046875 -19.4375 C 19.128906 -19.90625 19.203125 -20.410156 19.265625 -20.953125 C 19.328125 -21.503906 19.347656 -22.015625 19.328125 -22.484375 C 19.304688 -22.953125 19.210938 -23.320312 19.046875 -23.59375 C 18.609375 -23.570312 18.132812 -23.351562 17.625 -22.9375 C 17.125 -22.519531 16.617188 -21.988281 16.109375 -21.34375 C 15.597656 -20.707031 15.117188 -20.039062 14.671875 -19.34375 C 14.222656 -18.644531 13.816406 -17.988281 13.453125 -17.375 C 13.097656 -16.769531 12.835938 -16.289062 12.671875 -15.9375 L 11.390625 -13.171875 C 11.097656 -12.523438 10.796875 -11.753906 10.484375 -10.859375 C 10.171875 -9.972656 9.875 -9.082031 9.59375 -8.1875 C 9.320312 -7.289062 9.09375 -6.484375 8.90625 -5.765625 C 8.863281 -5.535156 8.785156 -5.207031 8.671875 -4.78125 C 8.554688 -4.351562 8.445312 -3.929688 8.34375 -3.515625 C 8.238281 -3.097656 8.175781 -2.785156 8.15625 -2.578125 C 8.34375 -2.640625 8.523438 -2.734375 8.703125 -2.859375 C 8.878906 -2.984375 9.050781 -3.097656 9.21875 -3.203125 L 12.296875 -4.890625 C 12.773438 -5.117188 13.304688 -5.367188 13.890625 -5.640625 C 14.484375 -5.921875 15.039062 -6.15625 15.5625 -6.34375 C 15.769531 -6.382812 15.984375 -6.4375 16.203125 -6.5 C 16.421875 -6.5625 16.601562 -6.632812 16.75 -6.71875 Z M 1.25 9.4375 C 0.769531 9.4375 0.390625 9.253906 0.109375 8.890625 C -0.171875 8.523438 -0.3125 8.09375 -0.3125 7.59375 C -0.289062 6.90625 -0.0820312 6.175781 0.3125 5.40625 C 0.707031 4.644531 1.203125 3.898438 1.796875 3.171875 C 2.398438 2.441406 3.019531 1.757812 3.65625 1.125 C 4.289062 0.5 4.859375 -0.0195312 5.359375 -0.4375 C 5.804688 -0.789062 6.132812 -1.039062 6.34375 -1.1875 C 6.550781 -1.332031 6.695312 -1.472656 6.78125 -1.609375 C 6.863281 -1.742188 6.9375 -1.960938 7 -2.265625 C 7.351562 -3.867188 7.773438 -5.546875 8.265625 -7.296875 C 8.753906 -9.046875 9.328125 -10.773438 9.984375 -12.484375 C 10.648438 -14.203125 11.40625 -15.84375 12.25 -17.40625 C 13.09375 -18.976562 14.03125 -20.394531 15.0625 -21.65625 C 15.289062 -21.945312 15.617188 -22.328125 16.046875 -22.796875 C 16.472656 -23.265625 16.941406 -23.679688 17.453125 -24.046875 C 17.972656 -24.410156 18.472656 -24.59375 18.953125 -24.59375 C 19.492188 -24.59375 19.859375 -24.414062 20.046875 -24.0625 C 20.234375 -23.707031 20.335938 -23.300781 20.359375 -22.84375 C 20.378906 -22.382812 20.390625 -21.988281 20.390625 -21.65625 C 20.390625 -21.25 20.332031 -20.644531 20.21875 -19.84375 C 20.101562 -19.039062 19.960938 -18.132812 19.796875 -17.125 C 19.628906 -16.125 19.445312 -15.097656 19.25 -14.046875 C 19.050781 -13.003906 18.875 -12.039062 18.71875 -11.15625 C 18.5625 -10.269531 18.441406 -9.539062 18.359375 -8.96875 C 18.316406 -8.632812 18.269531 -8.332031 18.21875 -8.0625 C 18.164062 -7.789062 18.140625 -7.476562 18.140625 -7.125 C 18.492188 -7.125 18.8125 -7.15625 19.09375 -7.21875 C 19.375 -7.28125 19.710938 -7.3125 20.109375 -7.3125 C 20.503906 -7.3125 20.765625 -7.21875 20.890625 -7.03125 C 21.015625 -6.84375 21.035156 -6.648438 20.953125 -6.453125 C 20.867188 -6.253906 20.710938 -6.15625 20.484375 -6.15625 C 20.210938 -6.15625 20.101562 -6.179688 20.15625 -6.234375 C 20.207031 -6.285156 20.148438 -6.3125 19.984375 -6.3125 C 19.898438 -6.3125 19.742188 -6.300781 19.515625 -6.28125 C 19.285156 -6.257812 18.960938 -6.207031 18.546875 -6.125 C 18.253906 -6.0625 18.078125 -5.992188 18.015625 -5.921875 C 17.953125 -5.859375 17.898438 -5.660156 17.859375 -5.328125 L 16.34375 10.953125 C 16.34375 11.410156 16.328125 11.863281 16.296875 12.3125 C 16.265625 12.757812 16.25 13.257812 16.25 13.8125 C 16.25 14.4375 16.269531 14.941406 16.3125 15.328125 C 16.351562 15.710938 16.347656 16 16.296875 16.1875 C 16.242188 16.375 16.0625 16.46875 15.75 16.46875 C 15.519531 16.46875 15.347656 16.28125 15.234375 15.90625 C 15.117188 15.53125 15.039062 15.078125 15 14.546875 C 14.957031 14.015625 14.941406 13.5 14.953125 13 C 14.960938 12.507812 14.976562 12.148438 15 11.921875 C 15 11.671875 15.015625 11.484375 15.046875 11.359375 C 15.078125 11.234375 15.09375 11.035156 15.09375 10.765625 C 15.09375 10.390625 15.113281 9.910156 15.15625 9.328125 C 15.195312 8.753906 15.238281 8.160156 15.28125 7.546875 C 15.320312 6.929688 15.351562 6.382812 15.375 5.90625 L 16.34375 -3.265625 C 16.382812 -3.679688 16.429688 -4.054688 16.484375 -4.390625 C 16.535156 -4.722656 16.5625 -5.109375 16.5625 -5.546875 C 16.269531 -5.398438 15.882812 -5.25 15.40625 -5.09375 C 14.925781 -4.9375 14.40625 -4.710938 13.84375 -4.421875 C 13.207031 -4.109375 12.695312 -3.859375 12.3125 -3.671875 C 11.925781 -3.484375 11.585938 -3.304688 11.296875 -3.140625 C 11.003906 -2.972656 10.6875 -2.78125 10.34375 -2.5625 C 10 -2.34375 9.539062 -2.050781 8.96875 -1.6875 C 8.925781 -1.664062 8.816406 -1.597656 8.640625 -1.484375 C 8.460938 -1.367188 8.296875 -1.25 8.140625 -1.125 C 7.984375 -1 7.894531 -0.925781 7.875 -0.90625 C 7.8125 -0.84375 7.710938 -0.550781 7.578125 -0.03125 C 7.441406 0.488281 7.257812 1.140625 7.03125 1.921875 C 6.800781 2.710938 6.515625 3.539062 6.171875 4.40625 C 5.835938 5.269531 5.4375 6.082031 4.96875 6.84375 C 4.5 7.613281 3.957031 8.238281 3.34375 8.71875 C 2.726562 9.195312 2.03125 9.4375 1.25 9.4375 Z M 1.25 9.4375 "/></g></g></g><g clip-path="url(#4463f16bda)"><g fill="#ffffff" fill-opacity="1"><g transform="translate(0.747454, 31.054136)"><g><path d="M 8.59375 14.5 C 9.070312 14.5 9.609375 14.332031 10.203125 14 C 10.804688 13.675781 11.375 13.296875 11.90625 12.859375 C 12.4375 12.421875 12.835938 12.015625 13.109375 11.640625 C 13.273438 11.429688 13.421875 11.25 13.546875 11.09375 C 13.679688 10.9375 13.820312 10.753906 13.96875 10.546875 C 14.070312 10.335938 14.1875 10.140625 14.3125 9.953125 C 14.4375 9.773438 14.539062 9.582031 14.625 9.375 C 14.957031 8.726562 15.175781 8.164062 15.28125 7.6875 C 15.382812 7.207031 15.429688 6.726562 15.421875 6.25 C 15.410156 5.78125 15.375 5.253906 15.3125 4.671875 C 15.164062 4.710938 15.050781 4.769531 14.96875 4.84375 C 14.882812 4.914062 14.769531 5.003906 14.625 5.109375 C 14.539062 5.191406 14.453125 5.265625 14.359375 5.328125 C 14.265625 5.390625 14.164062 5.460938 14.0625 5.546875 L 12.359375 7.0625 C 11.796875 7.582031 11.335938 8.003906 10.984375 8.328125 C 10.628906 8.648438 10.285156 8.988281 9.953125 9.34375 C 9.628906 9.707031 9.226562 10.210938 8.75 10.859375 C 8.601562 11.046875 8.421875 11.304688 8.203125 11.640625 C 7.984375 11.972656 7.789062 12.328125 7.625 12.703125 C 7.457031 13.078125 7.375 13.410156 7.375 13.703125 C 7.375 14.085938 7.453125 14.316406 7.609375 14.390625 C 7.765625 14.460938 8.03125 14.5 8.40625 14.5 C 8.445312 14.5 8.484375 14.5 8.515625 14.5 C 8.546875 14.5 8.570312 14.5 8.59375 14.5 Z M 0 -3.734375 C 0 -4.859375 0.191406 -6.035156 0.578125 -7.265625 C 0.960938 -8.503906 1.453125 -9.71875 2.046875 -10.90625 C 2.648438 -12.101562 3.253906 -13.175781 3.859375 -14.125 C 4.128906 -14.625 4.476562 -15.160156 4.90625 -15.734375 C 5.332031 -16.304688 5.78125 -16.875 6.25 -17.4375 C 6.726562 -18.007812 7.164062 -18.503906 7.5625 -18.921875 C 8.269531 -19.609375 8.988281 -20.238281 9.71875 -20.8125 C 10.457031 -21.394531 11.25 -21.863281 12.09375 -22.21875 C 12.9375 -22.570312 13.875 -22.75 14.90625 -22.75 C 15.90625 -22.6875 16.722656 -22.300781 17.359375 -21.59375 C 18.003906 -20.894531 18.484375 -20.03125 18.796875 -19 C 19.109375 -17.976562 19.265625 -16.925781 19.265625 -15.84375 C 19.265625 -14.613281 19.140625 -13.359375 18.890625 -12.078125 C 18.640625 -10.804688 18.367188 -9.613281 18.078125 -8.5 C 17.972656 -8.019531 17.859375 -7.597656 17.734375 -7.234375 C 17.617188 -6.867188 17.382812 -6.6875 17.03125 -6.6875 C 16.78125 -6.6875 16.644531 -6.875 16.625 -7.25 C 16.601562 -7.625 16.640625 -8.078125 16.734375 -8.609375 C 16.828125 -9.140625 16.929688 -9.632812 17.046875 -10.09375 C 17.160156 -10.5625 17.238281 -10.867188 17.28125 -11.015625 C 17.425781 -11.910156 17.554688 -12.875 17.671875 -13.90625 C 17.796875 -14.945312 17.8125 -15.976562 17.71875 -17 C 17.632812 -18.03125 17.375 -18.960938 16.9375 -19.796875 C 16.625 -20.398438 16.25 -20.820312 15.8125 -21.0625 C 15.375 -21.300781 14.90625 -21.421875 14.40625 -21.421875 C 13.96875 -21.421875 13.519531 -21.34375 13.0625 -21.1875 C 12.613281 -21.03125 12.179688 -20.835938 11.765625 -20.609375 C 11.472656 -20.421875 11.144531 -20.207031 10.78125 -19.96875 C 10.414062 -19.726562 10.109375 -19.484375 9.859375 -19.234375 C 9.703125 -19.085938 9.554688 -18.96875 9.421875 -18.875 C 9.285156 -18.78125 9.144531 -18.648438 9 -18.484375 L 5.296875 -14.0625 C 4.878906 -13.40625 4.550781 -12.863281 4.3125 -12.4375 C 4.070312 -12.007812 3.804688 -11.523438 3.515625 -10.984375 C 3.222656 -10.523438 2.921875 -9.929688 2.609375 -9.203125 C 2.296875 -8.484375 2.019531 -7.753906 1.78125 -7.015625 C 1.550781 -6.273438 1.382812 -5.640625 1.28125 -5.109375 C 1.21875 -4.628906 1.175781 -4.160156 1.15625 -3.703125 C 1.132812 -3.242188 1.195312 -2.785156 1.34375 -2.328125 C 1.550781 -1.796875 1.9375 -1.421875 2.5 -1.203125 C 3.070312 -0.984375 3.703125 -0.851562 4.390625 -0.8125 C 5.078125 -0.769531 5.707031 -0.738281 6.28125 -0.71875 C 7.03125 -0.675781 7.707031 -0.648438 8.3125 -0.640625 C 8.914062 -0.628906 9.519531 -0.59375 10.125 -0.53125 C 10.738281 -0.46875 11.410156 -0.3125 12.140625 -0.0625 C 12.554688 0.0625 13.019531 0.269531 13.53125 0.5625 C 14.050781 0.851562 14.519531 1.195312 14.9375 1.59375 C 15.351562 2 15.613281 2.421875 15.71875 2.859375 C 16.175781 2.546875 16.707031 2.140625 17.3125 1.640625 C 17.925781 1.148438 18.539062 0.644531 19.15625 0.125 C 19.769531 -0.394531 20.304688 -0.84375 20.765625 -1.21875 L 23.1875 -3.359375 C 23.394531 -3.566406 23.59375 -3.742188 23.78125 -3.890625 C 23.96875 -4.035156 24.164062 -4.210938 24.375 -4.421875 C 24.726562 -4.796875 24.992188 -5.046875 25.171875 -5.171875 C 25.347656 -5.296875 25.503906 -5.359375 25.640625 -5.359375 C 25.722656 -5.359375 25.796875 -5.347656 25.859375 -5.328125 C 25.921875 -5.304688 25.992188 -5.285156 26.078125 -5.265625 C 26.078125 -5.054688 26.097656 -4.929688 26.140625 -4.890625 C 26.179688 -4.847656 26.195312 -4.8125 26.1875 -4.78125 C 26.175781 -4.75 26.101562 -4.675781 25.96875 -4.5625 C 25.832031 -4.445312 25.582031 -4.210938 25.21875 -3.859375 C 24.53125 -3.191406 23.898438 -2.601562 23.328125 -2.09375 C 22.753906 -1.59375 22.140625 -1.03125 21.484375 -0.40625 L 19.484375 1.21875 C 19.316406 1.34375 19.070312 1.535156 18.75 1.796875 C 18.425781 2.066406 18.078125 2.347656 17.703125 2.640625 C 17.335938 2.929688 17.015625 3.195312 16.734375 3.4375 C 16.453125 3.675781 16.28125 3.847656 16.21875 3.953125 C 16.300781 4.285156 16.375 4.625 16.4375 4.96875 C 16.5 5.3125 16.53125 5.6875 16.53125 6.09375 C 16.53125 7.195312 16.273438 8.300781 15.765625 9.40625 C 15.253906 10.519531 14.59375 11.539062 13.78125 12.46875 C 12.976562 13.40625 12.128906 14.148438 11.234375 14.703125 C 10.335938 15.253906 9.5 15.53125 8.71875 15.53125 C 8.425781 15.53125 8.097656 15.5 7.734375 15.4375 C 7.367188 15.375 7.050781 15.242188 6.78125 15.046875 C 6.507812 14.847656 6.375 14.53125 6.375 14.09375 C 6.375 13.3125 6.503906 12.640625 6.765625 12.078125 C 7.023438 11.515625 7.382812 10.921875 7.84375 10.296875 C 8.53125 9.328125 9.25 8.488281 10 7.78125 C 10.757812 7.070312 11.554688 6.347656 12.390625 5.609375 L 14.90625 3.546875 C 14.34375 2.472656 13.628906 1.734375 12.765625 1.328125 C 11.910156 0.921875 10.863281 0.644531 9.625 0.5 L 7.09375 0.3125 C 6.101562 0.289062 5.1875 0.269531 4.34375 0.25 C 3.5 0.226562 2.722656 0.0820312 2.015625 -0.1875 C 1.335938 -0.4375 0.832031 -0.863281 0.5 -1.46875 C 0.164062 -2.082031 0 -2.835938 0 -3.734375 Z M 0 -3.734375 "/></g></g></g></g><g fill="#ffffff" fill-opacity="1"><g transform="translate(22.7705, 31.054136)"><g><path d="M 1.4375 8.375 C 1.90625 8.375 2.351562 8.175781 2.78125 7.78125 C 3.207031 7.382812 3.59375 6.925781 3.9375 6.40625 C 4.28125 5.894531 4.535156 5.460938 4.703125 5.109375 C 5.304688 3.898438 5.703125 2.875 5.890625 2.03125 C 6.085938 1.195312 6.257812 0.65625 6.40625 0.40625 C 6.28125 0.425781 6.085938 0.535156 5.828125 0.734375 C 5.578125 0.929688 5.332031 1.132812 5.09375 1.34375 C 4.851562 1.550781 4.679688 1.71875 4.578125 1.84375 C 4.222656 2.207031 3.816406 2.640625 3.359375 3.140625 C 2.898438 3.640625 2.457031 4.179688 2.03125 4.765625 C 1.613281 5.347656 1.296875 5.9375 1.078125 6.53125 C 0.859375 7.132812 0.8125 7.71875 0.9375 8.28125 C 1.0625 8.300781 1.144531 8.320312 1.1875 8.34375 C 1.226562 8.363281 1.3125 8.375 1.4375 8.375 Z M 16.75 -6.71875 C 16.832031 -7.007812 16.894531 -7.332031 16.9375 -7.6875 C 16.976562 -8.039062 17.019531 -8.375 17.0625 -8.6875 C 17.1875 -9.59375 17.347656 -10.617188 17.546875 -11.765625 C 17.753906 -12.910156 17.972656 -14.054688 18.203125 -15.203125 C 18.429688 -16.359375 18.640625 -17.390625 18.828125 -18.296875 C 18.890625 -18.585938 18.960938 -18.96875 19.046875 -19.4375 C 19.128906 -19.90625 19.203125 -20.410156 19.265625 -20.953125 C 19.328125 -21.503906 19.347656 -22.015625 19.328125 -22.484375 C 19.304688 -22.953125 19.210938 -23.320312 19.046875 -23.59375 C 18.609375 -23.570312 18.132812 -23.351562 17.625 -22.9375 C 17.125 -22.519531 16.617188 -21.988281 16.109375 -21.34375 C 15.597656 -20.707031 15.117188 -20.039062 14.671875 -19.34375 C 14.222656 -18.644531 13.816406 -17.988281 13.453125 -17.375 C 13.097656 -16.769531 12.835938 -16.289062 12.671875 -15.9375 L 11.390625 -13.171875 C 11.097656 -12.523438 10.796875 -11.753906 10.484375 -10.859375 C 10.171875 -9.972656 9.875 -9.082031 9.59375 -8.1875 C 9.320312 -7.289062 9.09375 -6.484375 8.90625 -5.765625 C 8.863281 -5.535156 8.785156 -5.207031 8.671875 -4.78125 C 8.554688 -4.351562 8.445312 -3.929688 8.34375 -3.515625 C 8.238281 -3.097656 8.175781 -2.785156 8.15625 -2.578125 C 8.34375 -2.640625 8.523438 -2.734375 8.703125 -2.859375 C 8.878906 -2.984375 9.050781 -3.097656 9.21875 -3.203125 L 12.296875 -4.890625 C 12.773438 -5.117188 13.304688 -5.367188 13.890625 -5.640625 C 14.484375 -5.921875 15.039062 -6.15625 15.5625 -6.34375 C 15.769531 -6.382812 15.984375 -6.4375 16.203125 -6.5 C 16.421875 -6.5625 16.601562 -6.632812 16.75 -6.71875 Z M 1.25 9.4375 C 0.769531 9.4375 0.390625 9.253906 0.109375 8.890625 C -0.171875 8.523438 -0.3125 8.09375 -0.3125 7.59375 C -0.289062 6.90625 -0.0820312 6.175781 0.3125 5.40625 C 0.707031 4.644531 1.203125 3.898438 1.796875 3.171875 C 2.398438 2.441406 3.019531 1.757812 3.65625 1.125 C 4.289062 0.5 4.859375 -0.0195312 5.359375 -0.4375 C 5.804688 -0.789062 6.132812 -1.039062 6.34375 -1.1875 C 6.550781 -1.332031 6.695312 -1.472656 6.78125 -1.609375 C 6.863281 -1.742188 6.9375 -1.960938 7 -2.265625 C 7.351562 -3.867188 7.773438 -5.546875 8.265625 -7.296875 C 8.753906 -9.046875 9.328125 -10.773438 9.984375 -12.484375 C 10.648438 -14.203125 11.40625 -15.84375 12.25 -17.40625 C 13.09375 -18.976562 14.03125 -20.394531 15.0625 -21.65625 C 15.289062 -21.945312 15.617188 -22.328125 16.046875 -22.796875 C 16.472656 -23.265625 16.941406 -23.679688 17.453125 -24.046875 C 17.972656 -24.410156 18.472656 -24.59375 18.953125 -24.59375 C 19.492188 -24.59375 19.859375 -24.414062 20.046875 -24.0625 C 20.234375 -23.707031 20.335938 -23.300781 20.359375 -22.84375 C 20.378906 -22.382812 20.390625 -21.988281 20.390625 -21.65625 C 20.390625 -21.25 20.332031 -20.644531 20.21875 -19.84375 C 20.101562 -19.039062 19.960938 -18.132812 19.796875 -17.125 C 19.628906 -16.125 19.445312 -15.097656 19.25 -14.046875 C 19.050781 -13.003906 18.875 -12.039062 18.71875 -11.15625 C 18.5625 -10.269531 18.441406 -9.539062 18.359375 -8.96875 C 18.316406 -8.632812 18.269531 -8.332031 18.21875 -8.0625 C 18.164062 -7.789062 18.140625 -7.476562 18.140625 -7.125 C 18.492188 -7.125 18.8125 -7.15625 19.09375 -7.21875 C 19.375 -7.28125 19.710938 -7.3125 20.109375 -7.3125 C 20.503906 -7.3125 20.765625 -7.21875 20.890625 -7.03125 C 21.015625 -6.84375 21.035156 -6.648438 20.953125 -6.453125 C 20.867188 -6.253906 20.710938 -6.15625 20.484375 -6.15625 C 20.210938 -6.15625 20.101562 -6.179688 20.15625 -6.234375 C 20.207031 -6.285156 20.148438 -6.3125 19.984375 -6.3125 C 19.898438 -6.3125 19.742188 -6.300781 19.515625 -6.28125 C 19.285156 -6.257812 18.960938 -6.207031 18.546875 -6.125 C 18.253906 -6.0625 18.078125 -5.992188 18.015625 -5.921875 C 17.953125 -5.859375 17.898438 -5.660156 17.859375 -5.328125 L 16.34375 10.953125 C 16.34375 11.410156 16.328125 11.863281 16.296875 12.3125 C 16.265625 12.757812 16.25 13.257812 16.25 13.8125 C 16.25 14.4375 16.269531 14.941406 16.3125 15.328125 C 16.351562 15.710938 16.347656 16 16.296875 16.1875 C 16.242188 16.375 16.0625 16.46875 15.75 16.46875 C 15.519531 16.46875 15.347656 16.28125 15.234375 15.90625 C 15.117188 15.53125 15.039062 15.078125 15 14.546875 C 14.957031 14.015625 14.941406 13.5 14.953125 13 C 14.960938 12.507812 14.976562 12.148438 15 11.921875 C 15 11.671875 15.015625 11.484375 15.046875 11.359375 C 15.078125 11.234375 15.09375 11.035156 15.09375 10.765625 C 15.09375 10.390625 15.113281 9.910156 15.15625 9.328125 C 15.195312 8.753906 15.238281 8.160156 15.28125 7.546875 C 15.320312 6.929688 15.351562 6.382812 15.375 5.90625 L 16.34375 -3.265625 C 16.382812 -3.679688 16.429688 -4.054688 16.484375 -4.390625 C 16.535156 -4.722656 16.5625 -5.109375 16.5625 -5.546875 C 16.269531 -5.398438 15.882812 -5.25 15.40625 -5.09375 C 14.925781 -4.9375 14.40625 -4.710938 13.84375 -4.421875 C 13.207031 -4.109375 12.695312 -3.859375 12.3125 -3.671875 C 11.925781 -3.484375 11.585938 -3.304688 11.296875 -3.140625 C 11.003906 -2.972656 10.6875 -2.78125 10.34375 -2.5625 C 10 -2.34375 9.539062 -2.050781 8.96875 -1.6875 C 8.925781 -1.664062 8.816406 -1.597656 8.640625 -1.484375 C 8.460938 -1.367188 8.296875 -1.25 8.140625 -1.125 C 7.984375 -1 7.894531 -0.925781 7.875 -0.90625 C 7.8125 -0.84375 7.710938 -0.550781 7.578125 -0.03125 C 7.441406 0.488281 7.257812 1.140625 7.03125 1.921875 C 6.800781 2.710938 6.515625 3.539062 6.171875 4.40625 C 5.835938 5.269531 5.4375 6.082031 4.96875 6.84375 C 4.5 7.613281 3.957031 8.238281 3.34375 8.71875 C 2.726562 9.195312 2.03125 9.4375 1.25 9.4375 Z M 1.25 9.4375 "/></g></g></g></g></g></svg>