<svg xmlns="http://www.w3.org/2000/svg" xmlns:xlink="http://www.w3.org/1999/xlink" width="268" zoomAndPan="magnify" viewBox="0 0 200.87999 119.999999" height="160" preserveAspectRatio="xMidYMid meet" version="1.0"><defs><g/><clipPath id="af83bc1ab9"><path d="M 15 23 L 196.953125 23 L 196.953125 119.214844 L 15 119.214844 Z M 15 23 " clip-rule="nonzero"/></clipPath><clipPath id="b05f00d469"><path d="M 6.566406 14 L 188 14 L 188 110 L 6.566406 110 Z M 6.566406 14 " clip-rule="nonzero"/></clipPath><clipPath id="efcc0a9c31"><path d="M 15 0.0351562 L 47 0.0351562 L 47 32 L 15 32 Z M 15 0.0351562 " clip-rule="nonzero"/></clipPath></defs><g clip-path="url(#af83bc1ab9)"><path fill="#1c3872" d="M 196.589844 31.179688 L 196.589844 111.484375 C 196.589844 111.996094 196.539062 112.5 196.4375 113 C 196.339844 113.5 196.191406 113.984375 195.996094 114.457031 C 195.800781 114.929688 195.5625 115.375 195.28125 115.800781 C 194.996094 116.222656 194.675781 116.617188 194.3125 116.976562 C 193.953125 117.335938 193.558594 117.660156 193.136719 117.941406 C 192.710938 118.226562 192.265625 118.464844 191.792969 118.660156 C 191.324219 118.855469 190.835938 119.003906 190.335938 119.101562 C 189.835938 119.203125 189.332031 119.25 188.820312 119.25 L 23.746094 119.25 C 23.234375 119.25 22.730469 119.203125 22.230469 119.101562 C 21.730469 119.003906 21.242188 118.855469 20.773438 118.660156 C 20.300781 118.464844 19.855469 118.226562 19.429688 117.941406 C 19.007812 117.660156 18.613281 117.335938 18.253906 116.976562 C 17.890625 116.617188 17.570312 116.222656 17.289062 115.800781 C 17.003906 115.375 16.765625 114.929688 16.570312 114.457031 C 16.375 113.984375 16.226562 113.5 16.128906 113 C 16.027344 112.5 15.976562 111.996094 15.976562 111.484375 L 15.976562 31.179688 C 15.976562 30.667969 16.027344 30.164062 16.128906 29.664062 C 16.226562 29.164062 16.375 28.675781 16.570312 28.207031 C 16.765625 27.734375 17.003906 27.289062 17.289062 26.863281 C 17.570312 26.4375 17.890625 26.046875 18.253906 25.6875 C 18.613281 25.324219 19.007812 25.003906 19.429688 24.71875 C 19.855469 24.4375 20.300781 24.199219 20.773438 24.003906 C 21.242188 23.808594 21.730469 23.660156 22.230469 23.5625 C 22.730469 23.460938 23.234375 23.410156 23.746094 23.410156 L 188.820312 23.410156 C 189.332031 23.410156 189.835938 23.460938 190.335938 23.5625 C 190.835938 23.660156 191.324219 23.808594 191.792969 24.003906 C 192.265625 24.199219 192.710938 24.4375 193.136719 24.71875 C 193.558594 25.003906 193.953125 25.324219 194.3125 25.6875 C 194.675781 26.046875 194.996094 26.4375 195.28125 26.863281 C 195.5625 27.289062 195.800781 27.734375 195.996094 28.207031 C 196.191406 28.675781 196.339844 29.164062 196.4375 29.664062 C 196.539062 30.164062 196.589844 30.667969 196.589844 31.179688 Z M 196.589844 31.179688 " fill-opacity="1" fill-rule="nonzero"/></g><path fill="#000000" d="M 195.300781 31.199219 L 195.300781 111.464844 C 195.300781 111.890625 195.257812 112.3125 195.175781 112.730469 C 195.09375 113.148438 194.96875 113.554688 194.804688 113.949219 C 194.640625 114.34375 194.441406 114.71875 194.203125 115.074219 C 193.96875 115.429688 193.699219 115.757812 193.394531 116.058594 C 193.09375 116.359375 192.765625 116.628906 192.410156 116.867188 C 192.054688 117.105469 191.683594 117.304688 191.289062 117.46875 C 190.894531 117.632812 190.488281 117.753906 190.066406 117.839844 C 189.648438 117.921875 189.226562 117.964844 188.800781 117.964844 L 23.765625 117.964844 C 23.339844 117.964844 22.917969 117.921875 22.5 117.839844 C 22.082031 117.753906 21.675781 117.632812 21.28125 117.46875 C 20.886719 117.304688 20.511719 117.105469 20.15625 116.867188 C 19.800781 116.628906 19.472656 116.359375 19.171875 116.058594 C 18.871094 115.757812 18.601562 115.429688 18.363281 115.074219 C 18.125 114.71875 17.925781 114.34375 17.761719 113.949219 C 17.597656 113.554688 17.476562 113.148438 17.390625 112.730469 C 17.308594 112.3125 17.265625 111.890625 17.265625 111.464844 L 17.265625 31.199219 C 17.265625 30.773438 17.308594 30.351562 17.390625 29.933594 C 17.476562 29.515625 17.597656 29.105469 17.761719 28.714844 C 17.925781 28.320312 18.125 27.945312 18.363281 27.589844 C 18.601562 27.234375 18.871094 26.90625 19.171875 26.605469 C 19.472656 26.300781 19.800781 26.03125 20.15625 25.796875 C 20.511719 25.558594 20.886719 25.359375 21.28125 25.195312 C 21.675781 25.03125 22.082031 24.910156 22.5 24.824219 C 22.917969 24.742188 23.339844 24.699219 23.765625 24.699219 L 188.800781 24.699219 C 189.226562 24.699219 189.648438 24.742188 190.066406 24.824219 C 190.488281 24.910156 190.894531 25.03125 191.289062 25.195312 C 191.683594 25.359375 192.054688 25.558594 192.410156 25.796875 C 192.765625 26.03125 193.09375 26.300781 193.394531 26.605469 C 193.699219 26.90625 193.96875 27.234375 194.203125 27.589844 C 194.441406 27.945312 194.640625 28.320312 194.804688 28.714844 C 194.96875 29.105469 195.09375 29.515625 195.175781 29.933594 C 195.257812 30.351562 195.300781 30.773438 195.300781 31.199219 Z M 195.300781 31.199219 " fill-opacity="1" fill-rule="nonzero"/><path fill="#537cd1" d="M 23.789062 25.988281 L 188.777344 25.988281 C 189.121094 25.988281 189.460938 26.023438 189.796875 26.089844 C 190.136719 26.15625 190.464844 26.253906 190.78125 26.386719 C 191.097656 26.519531 191.398438 26.679688 191.683594 26.871094 C 191.972656 27.0625 192.234375 27.277344 192.476562 27.523438 C 192.722656 27.765625 192.9375 28.027344 193.128906 28.316406 C 193.320312 28.601562 193.480469 28.902344 193.613281 29.21875 C 193.742188 29.535156 193.84375 29.863281 193.910156 30.199219 C 193.976562 30.539062 194.011719 30.878906 194.011719 31.222656 L 194.011719 111.441406 C 194.011719 111.785156 193.976562 112.125 193.910156 112.460938 C 193.84375 112.796875 193.742188 113.125 193.613281 113.445312 C 193.480469 113.761719 193.320312 114.0625 193.128906 114.347656 C 192.9375 114.632812 192.722656 114.898438 192.476562 115.140625 C 192.234375 115.382812 191.972656 115.601562 191.683594 115.792969 C 191.398438 115.984375 191.097656 116.144531 190.78125 116.277344 C 190.464844 116.40625 190.136719 116.507812 189.796875 116.574219 C 189.460938 116.640625 189.121094 116.675781 188.777344 116.675781 L 23.789062 116.675781 C 23.445312 116.675781 23.105469 116.640625 22.769531 116.574219 C 22.429688 116.507812 22.105469 116.40625 21.785156 116.277344 C 21.46875 116.144531 21.167969 115.984375 20.882812 115.792969 C 20.59375 115.601562 20.332031 115.382812 20.089844 115.140625 C 19.84375 114.898438 19.628906 114.632812 19.4375 114.347656 C 19.246094 114.0625 19.085938 113.761719 18.953125 113.445312 C 18.824219 113.125 18.722656 112.796875 18.65625 112.460938 C 18.589844 112.125 18.554688 111.785156 18.554688 111.441406 L 18.554688 31.222656 C 18.554688 30.878906 18.589844 30.539062 18.65625 30.199219 C 18.722656 29.863281 18.824219 29.535156 18.953125 29.21875 C 19.085938 28.902344 19.246094 28.601562 19.4375 28.316406 C 19.628906 28.027344 19.84375 27.765625 20.089844 27.523438 C 20.332031 27.277344 20.59375 27.0625 20.882812 26.871094 C 21.167969 26.679688 21.46875 26.519531 21.785156 26.386719 C 22.105469 26.253906 22.429688 26.15625 22.769531 26.089844 C 23.105469 26.023438 23.445312 25.988281 23.789062 25.988281 Z M 23.789062 25.988281 " fill-opacity="1" fill-rule="nonzero"/><g clip-path="url(#b05f00d469)"><path fill="#1c3872" d="M 187.175781 21.765625 L 187.175781 102.070312 C 187.175781 102.582031 187.125 103.085938 187.027344 103.585938 C 186.925781 104.085938 186.78125 104.574219 186.585938 105.042969 C 186.390625 105.515625 186.148438 105.964844 185.867188 106.386719 C 185.582031 106.8125 185.261719 107.203125 184.902344 107.5625 C 184.539062 107.925781 184.148438 108.246094 183.722656 108.53125 C 183.300781 108.8125 182.851562 109.050781 182.382812 109.246094 C 181.910156 109.441406 181.425781 109.589844 180.925781 109.691406 C 180.425781 109.789062 179.917969 109.839844 179.410156 109.839844 L 14.332031 109.839844 C 13.824219 109.839844 13.316406 109.789062 12.816406 109.691406 C 12.316406 109.589844 11.832031 109.441406 11.359375 109.246094 C 10.890625 109.050781 10.441406 108.8125 10.019531 108.53125 C 9.59375 108.246094 9.203125 107.925781 8.839844 107.5625 C 8.480469 107.203125 8.15625 106.8125 7.875 106.386719 C 7.589844 105.964844 7.351562 105.515625 7.15625 105.042969 C 6.960938 104.574219 6.816406 104.085938 6.714844 103.585938 C 6.617188 103.085938 6.566406 102.582031 6.566406 102.070312 L 6.566406 21.765625 C 6.566406 21.253906 6.617188 20.75 6.714844 20.25 C 6.816406 19.75 6.960938 19.265625 7.15625 18.792969 C 7.351562 18.324219 7.589844 17.875 7.875 17.449219 C 8.15625 17.027344 8.480469 16.632812 8.839844 16.273438 C 9.203125 15.914062 9.59375 15.589844 10.019531 15.308594 C 10.441406 15.023438 10.890625 14.785156 11.359375 14.589844 C 11.832031 14.394531 12.316406 14.246094 12.816406 14.148438 C 13.316406 14.046875 13.824219 14 14.332031 14 L 179.410156 14 C 179.917969 14 180.425781 14.046875 180.925781 14.148438 C 181.425781 14.246094 181.910156 14.394531 182.382812 14.589844 C 182.851562 14.785156 183.300781 15.023438 183.722656 15.308594 C 184.148438 15.589844 184.539062 15.914062 184.902344 16.273438 C 185.261719 16.632812 185.582031 17.027344 185.867188 17.449219 C 186.148438 17.875 186.390625 18.324219 186.585938 18.792969 C 186.78125 19.265625 186.925781 19.75 187.027344 20.25 C 187.125 20.75 187.175781 21.253906 187.175781 21.765625 Z M 187.175781 21.765625 " fill-opacity="1" fill-rule="nonzero"/></g><path fill="#000000" d="M 185.886719 21.789062 L 185.886719 102.050781 C 185.886719 102.476562 185.84375 102.898438 185.761719 103.316406 C 185.679688 103.738281 185.554688 104.144531 185.390625 104.539062 C 185.230469 104.933594 185.027344 105.304688 184.792969 105.660156 C 184.554688 106.015625 184.285156 106.34375 183.984375 106.644531 C 183.679688 106.949219 183.351562 107.21875 182.996094 107.453125 C 182.644531 107.691406 182.269531 107.890625 181.875 108.054688 C 181.480469 108.21875 181.074219 108.34375 180.65625 108.425781 C 180.234375 108.507812 179.8125 108.550781 179.386719 108.550781 L 14.355469 108.550781 C 13.925781 108.550781 13.503906 108.507812 13.085938 108.425781 C 12.667969 108.34375 12.261719 108.21875 11.867188 108.054688 C 11.472656 107.890625 11.097656 107.691406 10.742188 107.453125 C 10.386719 107.21875 10.058594 106.949219 9.757812 106.644531 C 9.457031 106.34375 9.1875 106.015625 8.949219 105.660156 C 8.710938 105.304688 8.511719 104.933594 8.347656 104.539062 C 8.1875 104.144531 8.0625 103.738281 7.980469 103.316406 C 7.894531 102.898438 7.855469 102.476562 7.855469 102.050781 L 7.855469 21.789062 C 7.855469 21.359375 7.894531 20.9375 7.980469 20.519531 C 8.0625 20.101562 8.1875 19.695312 8.347656 19.300781 C 8.511719 18.90625 8.710938 18.53125 8.949219 18.175781 C 9.1875 17.820312 9.457031 17.492188 9.757812 17.191406 C 10.058594 16.890625 10.386719 16.621094 10.742188 16.382812 C 11.097656 16.144531 11.472656 15.945312 11.867188 15.78125 C 12.261719 15.617188 12.667969 15.496094 13.085938 15.414062 C 13.503906 15.328125 13.925781 15.289062 14.355469 15.289062 L 179.386719 15.289062 C 179.8125 15.289062 180.234375 15.328125 180.65625 15.414062 C 181.074219 15.496094 181.480469 15.617188 181.875 15.78125 C 182.269531 15.945312 182.644531 16.144531 182.996094 16.382812 C 183.351562 16.621094 183.679688 16.890625 183.984375 17.191406 C 184.285156 17.492188 184.554688 17.820312 184.792969 18.175781 C 185.027344 18.53125 185.230469 18.90625 185.390625 19.300781 C 185.554688 19.695312 185.679688 20.101562 185.761719 20.519531 C 185.84375 20.9375 185.886719 21.359375 185.886719 21.789062 Z M 185.886719 21.789062 " fill-opacity="1" fill-rule="nonzero"/><path fill="#1c3872" d="M 14.375 16.578125 L 179.363281 16.578125 C 179.707031 16.578125 180.046875 16.609375 180.386719 16.675781 C 180.722656 16.742188 181.050781 16.84375 181.367188 16.972656 C 181.683594 17.105469 181.984375 17.265625 182.273438 17.457031 C 182.558594 17.648438 182.820312 17.867188 183.066406 18.109375 C 183.308594 18.351562 183.523438 18.617188 183.714844 18.902344 C 183.90625 19.1875 184.066406 19.488281 184.199219 19.808594 C 184.332031 20.125 184.429688 20.453125 184.496094 20.789062 C 184.5625 21.125 184.597656 21.464844 184.597656 21.808594 L 184.597656 102.027344 C 184.597656 102.371094 184.5625 102.710938 184.496094 103.050781 C 184.429688 103.386719 184.332031 103.714844 184.199219 104.03125 C 184.066406 104.347656 183.90625 104.648438 183.714844 104.9375 C 183.523438 105.222656 183.308594 105.484375 183.066406 105.730469 C 182.820312 105.972656 182.558594 106.1875 182.273438 106.378906 C 181.984375 106.570312 181.683594 106.730469 181.367188 106.863281 C 181.050781 106.996094 180.722656 107.09375 180.386719 107.160156 C 180.046875 107.226562 179.707031 107.261719 179.363281 107.261719 L 14.375 107.261719 C 14.03125 107.261719 13.691406 107.226562 13.355469 107.160156 C 13.019531 107.09375 12.691406 106.996094 12.375 106.863281 C 12.054688 106.730469 11.753906 106.570312 11.46875 106.378906 C 11.183594 106.1875 10.917969 105.972656 10.675781 105.730469 C 10.433594 105.484375 10.214844 105.222656 10.023438 104.9375 C 9.832031 104.648438 9.671875 104.347656 9.539062 104.03125 C 9.410156 103.714844 9.308594 103.386719 9.242188 103.050781 C 9.175781 102.710938 9.140625 102.371094 9.140625 102.027344 L 9.140625 21.808594 C 9.140625 21.464844 9.175781 21.125 9.242188 20.789062 C 9.308594 20.453125 9.410156 20.125 9.539062 19.808594 C 9.671875 19.488281 9.832031 19.1875 10.023438 18.902344 C 10.214844 18.617188 10.433594 18.351562 10.675781 18.109375 C 10.917969 17.867188 11.183594 17.648438 11.46875 17.457031 C 11.753906 17.265625 12.054688 17.105469 12.375 16.972656 C 12.691406 16.84375 13.019531 16.742188 13.355469 16.675781 C 13.691406 16.609375 14.03125 16.578125 14.375 16.578125 Z M 14.375 16.578125 " fill-opacity="1" fill-rule="nonzero"/><g clip-path="url(#efcc0a9c31)"><path fill="#1c3872" d="M 31.046875 31.59375 C 30.761719 31.597656 30.484375 31.550781 30.214844 31.464844 C 29.945312 31.375 29.695312 31.246094 29.464844 31.074219 C 29.238281 30.90625 29.042969 30.703125 28.878906 30.46875 C 28.714844 30.238281 28.59375 29.984375 28.515625 29.710938 C 26.722656 23.742188 23.09375 20.03125 17.417969 18.363281 C 17.144531 18.28125 16.886719 18.160156 16.652344 18 C 16.417969 17.835938 16.214844 17.640625 16.046875 17.410156 C 15.875 17.183594 15.742188 16.933594 15.652344 16.660156 C 15.5625 16.390625 15.515625 16.113281 15.515625 15.824219 C 15.515625 15.539062 15.5625 15.261719 15.652344 14.992188 C 15.742188 14.71875 15.875 14.46875 16.046875 14.242188 C 16.214844 14.011719 16.417969 13.816406 16.652344 13.652344 C 16.886719 13.492188 17.144531 13.367188 17.417969 13.289062 C 23.089844 11.621094 26.722656 7.910156 28.511719 1.941406 C 28.59375 1.667969 28.71875 1.417969 28.882812 1.183594 C 29.042969 0.949219 29.238281 0.75 29.46875 0.578125 C 29.695312 0.410156 29.945312 0.28125 30.214844 0.191406 C 30.484375 0.101562 30.761719 0.0546875 31.046875 0.0546875 C 31.332031 0.0546875 31.609375 0.101562 31.878906 0.191406 C 32.148438 0.28125 32.398438 0.410156 32.625 0.578125 C 32.855469 0.75 33.050781 0.949219 33.214844 1.183594 C 33.375 1.417969 33.5 1.667969 33.582031 1.941406 C 35.375 7.910156 39.003906 11.621094 44.679688 13.289062 C 44.953125 13.367188 45.207031 13.492188 45.441406 13.652344 C 45.675781 13.816406 45.878906 14.011719 46.050781 14.242188 C 46.222656 14.46875 46.351562 14.71875 46.441406 14.992188 C 46.53125 15.261719 46.578125 15.539062 46.578125 15.824219 C 46.578125 16.113281 46.53125 16.390625 46.441406 16.660156 C 46.351562 16.933594 46.222656 17.183594 46.050781 17.410156 C 45.878906 17.640625 45.675781 17.835938 45.441406 18 C 45.207031 18.160156 44.953125 18.28125 44.679688 18.363281 C 39.003906 20.03125 35.375 23.738281 33.582031 29.710938 C 33.5 29.984375 33.378906 30.238281 33.214844 30.46875 C 33.050781 30.703125 32.855469 30.90625 32.628906 31.074219 C 32.398438 31.246094 32.152344 31.375 31.878906 31.464844 C 31.609375 31.550781 31.332031 31.597656 31.046875 31.59375 Z M 31.046875 31.59375 " fill-opacity="1" fill-rule="nonzero"/></g><path fill="#000000" d="M 31.046875 30.304688 C 30.746094 30.308594 30.476562 30.21875 30.238281 30.039062 C 29.996094 29.859375 29.832031 29.628906 29.75 29.339844 C 27.820312 22.921875 23.90625 18.925781 17.78125 17.128906 C 17.492188 17.042969 17.257812 16.878906 17.078125 16.636719 C 16.898438 16.398438 16.808594 16.125 16.808594 15.824219 C 16.808594 15.523438 16.898438 15.253906 17.078125 15.011719 C 17.257812 14.773438 17.492188 14.609375 17.78125 14.523438 C 23.90625 12.722656 27.820312 8.726562 29.746094 2.3125 C 29.832031 2.023438 29.996094 1.792969 30.234375 1.613281 C 30.476562 1.433594 30.746094 1.34375 31.046875 1.347656 C 31.347656 1.34375 31.617188 1.433594 31.855469 1.613281 C 32.097656 1.792969 32.261719 2.023438 32.34375 2.3125 C 34.273438 8.726562 38.1875 12.722656 44.316406 14.523438 C 44.605469 14.609375 44.839844 14.773438 45.019531 15.011719 C 45.199219 15.253906 45.289062 15.523438 45.289062 15.824219 C 45.289062 16.125 45.199219 16.398438 45.019531 16.636719 C 44.839844 16.878906 44.605469 17.042969 44.316406 17.128906 C 38.1875 18.925781 34.273438 22.921875 32.34375 29.339844 C 32.261719 29.628906 32.097656 29.859375 31.855469 30.039062 C 31.617188 30.21875 31.347656 30.308594 31.046875 30.304688 Z M 31.046875 30.304688 " fill-opacity="1" fill-rule="nonzero"/><path fill="#537cd1" d="M 30.984375 2.683594 C 28.9375 9.488281 24.660156 13.847656 18.144531 15.757812 C 18.113281 15.769531 18.09375 15.789062 18.09375 15.824219 C 18.09375 15.859375 18.113281 15.878906 18.144531 15.890625 C 24.660156 17.804688 28.9375 22.164062 30.984375 28.96875 C 30.992188 29 31.015625 29.015625 31.046875 29.015625 C 31.082031 29.015625 31.101562 29 31.113281 28.96875 C 33.15625 22.164062 37.433594 17.804688 43.949219 15.890625 C 43.984375 15.878906 44 15.859375 44 15.824219 C 44 15.789062 43.984375 15.769531 43.949219 15.757812 C 37.4375 13.847656 33.15625 9.488281 31.113281 2.683594 C 31.101562 2.652344 31.082031 2.632812 31.046875 2.632812 C 31.015625 2.632812 30.992188 2.652344 30.984375 2.683594 Z M 30.984375 2.683594 " fill-opacity="1" fill-rule="nonzero"/><path fill="#1c3872" d="M 61.953125 27.378906 C 61.671875 27.378906 61.394531 27.335938 61.128906 27.25 C 60.859375 27.160156 60.613281 27.03125 60.386719 26.863281 C 60.160156 26.695312 59.964844 26.496094 59.804688 26.265625 C 59.640625 26.035156 59.519531 25.785156 59.441406 25.511719 C 58.292969 21.6875 56.070312 19.410156 52.445312 18.347656 C 52.175781 18.265625 51.921875 18.144531 51.691406 17.984375 C 51.457031 17.820312 51.257812 17.628906 51.085938 17.402344 C 50.917969 17.175781 50.785156 16.925781 50.699219 16.65625 C 50.609375 16.386719 50.5625 16.113281 50.5625 15.828125 C 50.5625 15.546875 50.609375 15.269531 50.699219 15 C 50.785156 14.730469 50.917969 14.484375 51.085938 14.257812 C 51.257812 14.03125 51.457031 13.835938 51.691406 13.675781 C 51.921875 13.511719 52.175781 13.390625 52.445312 13.3125 C 56.070312 12.246094 58.292969 9.96875 59.441406 6.144531 C 59.523438 5.875 59.644531 5.625 59.804688 5.394531 C 59.96875 5.160156 60.160156 4.960938 60.386719 4.792969 C 60.613281 4.625 60.859375 4.496094 61.128906 4.410156 C 61.398438 4.320312 61.671875 4.277344 61.953125 4.277344 C 62.234375 4.277344 62.511719 4.320312 62.777344 4.410156 C 63.046875 4.496094 63.292969 4.625 63.519531 4.792969 C 63.746094 4.960938 63.941406 5.160156 64.101562 5.394531 C 64.265625 5.625 64.386719 5.875 64.464844 6.144531 C 65.617188 9.96875 67.839844 12.246094 71.460938 13.3125 C 71.730469 13.390625 71.984375 13.511719 72.21875 13.675781 C 72.449219 13.835938 72.652344 14.03125 72.820312 14.257812 C 72.992188 14.484375 73.121094 14.730469 73.210938 15 C 73.296875 15.269531 73.34375 15.546875 73.34375 15.828125 C 73.34375 16.113281 73.296875 16.386719 73.210938 16.65625 C 73.121094 16.925781 72.992188 17.171875 72.820312 17.398438 C 72.652344 17.625 72.449219 17.820312 72.21875 17.984375 C 71.984375 18.144531 71.730469 18.265625 71.460938 18.34375 C 67.835938 19.40625 65.613281 21.683594 64.464844 25.511719 C 64.386719 25.785156 64.265625 26.035156 64.101562 26.265625 C 63.941406 26.496094 63.746094 26.695312 63.519531 26.863281 C 63.292969 27.035156 63.046875 27.160156 62.777344 27.25 C 62.511719 27.335938 62.234375 27.378906 61.953125 27.378906 Z M 61.953125 27.378906 " fill-opacity="1" fill-rule="nonzero"/><path fill="#000000" d="M 61.953125 26.089844 C 61.660156 26.089844 61.394531 26.003906 61.15625 25.828125 C 60.917969 25.652344 60.757812 25.421875 60.675781 25.140625 C 59.40625 20.917969 56.832031 18.289062 52.808594 17.105469 C 52.527344 17.023438 52.296875 16.863281 52.117188 16.625 C 51.941406 16.390625 51.851562 16.121094 51.851562 15.828125 C 51.851562 15.53125 51.941406 15.265625 52.117188 15.027344 C 52.296875 14.789062 52.527344 14.628906 52.808594 14.546875 C 56.832031 13.363281 59.40625 10.734375 60.675781 6.511719 C 60.757812 6.230469 60.921875 6 61.15625 5.824219 C 61.394531 5.648438 61.660156 5.558594 61.953125 5.558594 C 62.246094 5.558594 62.511719 5.648438 62.75 5.824219 C 62.984375 6 63.148438 6.230469 63.230469 6.511719 C 64.5 10.734375 67.074219 13.363281 71.097656 14.542969 C 71.378906 14.628906 71.609375 14.789062 71.789062 15.023438 C 71.964844 15.261719 72.054688 15.527344 72.054688 15.824219 C 72.054688 16.121094 71.964844 16.386719 71.789062 16.625 C 71.609375 16.863281 71.378906 17.023438 71.097656 17.105469 C 67.070312 18.289062 64.5 20.914062 63.230469 25.136719 C 63.148438 25.421875 62.988281 25.652344 62.75 25.828125 C 62.515625 26.003906 62.25 26.089844 61.953125 26.089844 Z M 61.953125 26.089844 " fill-opacity="1" fill-rule="nonzero"/><path fill="#ffdea4" d="M 61.910156 6.882812 C 60.519531 11.511719 57.605469 14.480469 53.171875 15.78125 C 53.152344 15.789062 53.140625 15.800781 53.140625 15.824219 C 53.140625 15.847656 53.152344 15.863281 53.171875 15.871094 C 57.605469 17.171875 60.519531 20.140625 61.910156 24.769531 C 61.917969 24.789062 61.929688 24.800781 61.953125 24.800781 C 61.976562 24.800781 61.992188 24.789062 61.996094 24.769531 C 63.386719 20.140625 66.300781 17.171875 70.734375 15.871094 C 70.753906 15.863281 70.765625 15.847656 70.765625 15.824219 C 70.765625 15.804688 70.753906 15.789062 70.734375 15.78125 C 66.300781 14.480469 63.386719 11.511719 61.996094 6.882812 C 61.992188 6.863281 61.976562 6.851562 61.953125 6.851562 C 61.929688 6.851562 61.917969 6.863281 61.910156 6.882812 Z M 61.910156 6.882812 " fill-opacity="1" fill-rule="nonzero"/><g fill="#ffffff" fill-opacity="0.4"><g transform="translate(31.685213, 51.99123)"><g><path d="M 5.21875 -0.71875 C 5.15625 -0.394531 4.992188 -0.15625 4.734375 0 C 4.472656 0.15625 4.175781 0.234375 3.84375 0.234375 C 3.414062 0.234375 3.082031 0.109375 2.84375 -0.140625 C 2.601562 -0.390625 2.503906 -0.710938 2.546875 -1.109375 C 2.804688 -3.390625 3.003906 -5.453125 3.140625 -7.296875 C 3.285156 -9.148438 3.382812 -10.875 3.4375 -12.46875 C 3.488281 -14.070312 3.515625 -15.632812 3.515625 -17.15625 C 3.515625 -18.675781 3.492188 -20.242188 3.453125 -21.859375 C 3.429688 -22.253906 3.566406 -22.5625 3.859375 -22.78125 C 4.160156 -23.007812 4.503906 -23.125 4.890625 -23.125 C 5.171875 -23.125 5.410156 -23.066406 5.609375 -22.953125 C 5.804688 -22.835938 5.972656 -22.648438 6.109375 -22.390625 C 6.796875 -21.191406 7.472656 -20 8.140625 -18.8125 C 8.804688 -17.625 9.472656 -16.429688 10.140625 -15.234375 C 10.816406 -14.035156 11.5 -12.828125 12.1875 -11.609375 C 12.875 -10.390625 13.566406 -9.140625 14.265625 -7.859375 C 15.085938 -9.035156 15.878906 -10.203125 16.640625 -11.359375 C 17.398438 -12.523438 18.125 -13.691406 18.8125 -14.859375 C 19.5 -16.023438 20.164062 -17.207031 20.8125 -18.40625 C 21.46875 -19.601562 22.109375 -20.832031 22.734375 -22.09375 C 22.847656 -22.332031 23.007812 -22.503906 23.21875 -22.609375 C 23.425781 -22.722656 23.660156 -22.78125 23.921875 -22.78125 C 24.304688 -22.78125 24.628906 -22.664062 24.890625 -22.4375 C 25.148438 -22.207031 25.28125 -21.90625 25.28125 -21.53125 C 25.320312 -20.007812 25.34375 -18.578125 25.34375 -17.234375 C 25.34375 -15.898438 25.332031 -14.554688 25.3125 -13.203125 C 25.289062 -11.859375 25.257812 -10.40625 25.21875 -8.84375 C 25.175781 -7.507812 25.117188 -6.164062 25.046875 -4.8125 C 24.984375 -3.457031 24.898438 -2.125 24.796875 -0.8125 C 24.773438 -0.394531 24.632812 -0.0859375 24.375 0.109375 C 24.113281 0.316406 23.804688 0.421875 23.453125 0.421875 C 23.066406 0.421875 22.738281 0.316406 22.46875 0.109375 C 22.195312 -0.0859375 22.070312 -0.394531 22.09375 -0.8125 L 22.375 -5.34375 C 22.425781 -6.238281 22.46875 -7.128906 22.5 -8.015625 C 22.53125 -8.910156 22.5625 -9.804688 22.59375 -10.703125 C 22.625 -11.597656 22.644531 -12.523438 22.65625 -13.484375 C 22.664062 -14.453125 22.679688 -15.453125 22.703125 -16.484375 C 21.941406 -15.046875 21.160156 -13.675781 20.359375 -12.375 C 19.554688 -11.082031 18.734375 -9.828125 17.890625 -8.609375 C 17.054688 -7.390625 16.191406 -6.1875 15.296875 -5 C 15.148438 -4.800781 14.984375 -4.640625 14.796875 -4.515625 C 14.609375 -4.398438 14.375 -4.34375 14.09375 -4.34375 C 13.851562 -4.34375 13.625 -4.394531 13.40625 -4.5 C 13.1875 -4.613281 13.015625 -4.789062 12.890625 -5.03125 C 12.328125 -6.007812 11.765625 -6.984375 11.203125 -7.953125 C 10.648438 -8.929688 10.097656 -9.914062 9.546875 -10.90625 C 8.992188 -11.894531 8.429688 -12.894531 7.859375 -13.90625 C 7.296875 -14.925781 6.722656 -15.988281 6.140625 -17.09375 C 6.140625 -15.550781 6.128906 -14.070312 6.109375 -12.65625 C 6.097656 -11.25 6.054688 -9.878906 5.984375 -8.546875 C 5.910156 -7.222656 5.8125 -5.910156 5.6875 -4.609375 C 5.570312 -3.316406 5.414062 -2.019531 5.21875 -0.71875 Z M 5.21875 -0.71875 "/></g></g></g><g fill="#ffffff" fill-opacity="0.4"><g transform="translate(59.808379, 51.99123)"><g><path d="M 2.8125 -15.234375 C 2.875 -15.566406 3.023438 -15.800781 3.265625 -15.9375 C 3.503906 -16.082031 3.796875 -16.15625 4.140625 -16.15625 C 4.316406 -16.15625 4.484375 -16.125 4.640625 -16.0625 C 4.804688 -16.007812 4.953125 -15.921875 5.078125 -15.796875 C 5.210938 -15.679688 5.3125 -15.535156 5.375 -15.359375 C 5.445312 -15.191406 5.484375 -15 5.484375 -14.78125 C 5.484375 -14.476562 5.421875 -14.054688 5.296875 -13.515625 C 5.179688 -12.984375 5.0625 -12.300781 4.9375 -11.46875 C 4.820312 -10.632812 4.765625 -9.609375 4.765625 -8.390625 C 4.765625 -7.359375 4.859375 -6.363281 5.046875 -5.40625 C 5.242188 -4.457031 5.535156 -3.679688 5.921875 -3.078125 C 6.304688 -2.484375 6.800781 -2.1875 7.40625 -2.1875 C 7.988281 -2.1875 8.535156 -2.410156 9.046875 -2.859375 C 9.566406 -3.304688 10.039062 -3.867188 10.46875 -4.546875 C 10.90625 -5.234375 11.253906 -5.894531 11.515625 -6.53125 L 11.515625 -7.890625 C 11.515625 -8.828125 11.535156 -9.738281 11.578125 -10.625 C 11.617188 -11.519531 11.691406 -12.347656 11.796875 -13.109375 C 11.910156 -13.867188 12.066406 -14.503906 12.265625 -15.015625 C 12.421875 -15.460938 12.628906 -15.804688 12.890625 -16.046875 C 13.148438 -16.285156 13.460938 -16.40625 13.828125 -16.40625 C 14.160156 -16.40625 14.421875 -16.304688 14.609375 -16.109375 C 14.804688 -15.921875 14.9375 -15.65625 15 -15.3125 C 15.070312 -14.976562 15.109375 -14.582031 15.109375 -14.125 C 15.109375 -12.90625 15.046875 -11.640625 14.921875 -10.328125 C 14.804688 -9.015625 14.570312 -7.738281 14.21875 -6.5 C 14.238281 -6.082031 14.25 -5.65625 14.25 -5.21875 C 14.25 -4.78125 14.25 -4.335938 14.25 -3.890625 C 14.257812 -3.453125 14.265625 -3.015625 14.265625 -2.578125 C 14.265625 -1.160156 14.175781 0.210938 14 1.546875 C 13.820312 2.890625 13.507812 4.101562 13.0625 5.1875 C 12.613281 6.269531 11.972656 7.125 11.140625 7.75 C 10.304688 8.382812 9.242188 8.703125 7.953125 8.703125 C 6.765625 8.703125 5.648438 8.4375 4.609375 7.90625 C 3.578125 7.375 2.78125 6.617188 2.21875 5.640625 C 2.15625 5.492188 2.109375 5.363281 2.078125 5.25 C 2.046875 5.144531 2.03125 5.046875 2.03125 4.953125 C 2.03125 4.691406 2.09375 4.46875 2.21875 4.28125 C 2.351562 4.101562 2.523438 3.957031 2.734375 3.84375 C 2.953125 3.738281 3.160156 3.6875 3.359375 3.6875 C 3.640625 3.6875 3.878906 3.753906 4.078125 3.890625 C 4.273438 4.035156 4.472656 4.25 4.671875 4.53125 C 5.035156 5.09375 5.535156 5.5 6.171875 5.75 C 6.816406 6.007812 7.414062 6.140625 7.96875 6.140625 C 8.851562 6.140625 9.535156 5.828125 10.015625 5.203125 C 10.492188 4.585938 10.847656 3.648438 11.078125 2.390625 C 11.304688 1.140625 11.472656 -0.457031 11.578125 -2.40625 C 11.097656 -1.664062 10.5 -1.007812 9.78125 -0.4375 C 9.0625 0.132812 8.257812 0.421875 7.375 0.421875 C 6.375 0.421875 5.53125 0.164062 4.84375 -0.34375 C 4.15625 -0.851562 3.597656 -1.53125 3.171875 -2.375 C 2.753906 -3.226562 2.457031 -4.164062 2.28125 -5.1875 C 2.101562 -6.207031 2.015625 -7.226562 2.015625 -8.25 C 2.015625 -9.03125 2.046875 -9.820312 2.109375 -10.625 C 2.179688 -11.4375 2.28125 -12.238281 2.40625 -13.03125 C 2.539062 -13.820312 2.675781 -14.554688 2.8125 -15.234375 Z M 2.8125 -15.234375 "/></g></g></g><g fill="#ffffff" fill-opacity="0.4"><g transform="translate(76.988102, 51.99123)"><g/></g></g><g fill="#ffffff" fill-opacity="0.4"><g transform="translate(89.7005, 51.99123)"><g><path d="M 3.84375 -23.390625 C 3.875 -23.785156 4.019531 -24.09375 4.28125 -24.3125 C 4.539062 -24.53125 4.863281 -24.640625 5.25 -24.640625 C 5.601562 -24.640625 5.875 -24.570312 6.0625 -24.4375 C 6.257812 -24.300781 6.390625 -24.109375 6.453125 -23.859375 C 6.523438 -23.609375 6.550781 -23.320312 6.53125 -23 C 6.5 -22.4375 6.414062 -21.546875 6.28125 -20.328125 C 6.15625 -19.109375 6.015625 -17.425781 5.859375 -15.28125 C 5.710938 -13.144531 5.585938 -10.410156 5.484375 -7.078125 C 5.460938 -6.015625 5.429688 -4.976562 5.390625 -3.96875 C 5.359375 -2.957031 5.320312 -1.953125 5.28125 -0.953125 C 5.28125 -0.515625 5.148438 -0.195312 4.890625 0 C 4.628906 0.195312 4.296875 0.296875 3.890625 0.296875 C 3.515625 0.296875 3.191406 0.195312 2.921875 0 C 2.648438 -0.195312 2.523438 -0.515625 2.546875 -0.953125 C 2.609375 -2.835938 2.675781 -4.726562 2.75 -6.625 C 2.832031 -8.519531 2.921875 -10.40625 3.015625 -12.28125 C 3.117188 -14.164062 3.234375 -16.035156 3.359375 -17.890625 C 3.492188 -19.753906 3.65625 -21.585938 3.84375 -23.390625 Z M 3.84375 -23.390625 "/></g></g></g><g fill="#ffffff" fill-opacity="0.4"><g transform="translate(97.885609, 51.99123)"><g><path d="M 1.53125 -7.015625 C 1.53125 -8.191406 1.707031 -9.332031 2.0625 -10.4375 C 2.425781 -11.550781 2.9375 -12.546875 3.59375 -13.421875 C 4.257812 -14.304688 5.035156 -15.003906 5.921875 -15.515625 C 6.804688 -16.023438 7.78125 -16.28125 8.84375 -16.28125 C 9.445312 -16.28125 10.050781 -16.1875 10.65625 -16 C 11.269531 -15.8125 11.863281 -15.484375 12.4375 -15.015625 C 12.539062 -15.460938 12.6875 -15.78125 12.875 -15.96875 C 13.0625 -16.15625 13.316406 -16.25 13.640625 -16.25 C 14.046875 -16.25 14.382812 -16.125 14.65625 -15.875 C 14.9375 -15.625 15.066406 -15.269531 15.046875 -14.8125 C 15.023438 -14.1875 14.953125 -13.421875 14.828125 -12.515625 C 14.710938 -11.609375 14.597656 -10.707031 14.484375 -9.8125 C 14.441406 -9.53125 14.378906 -9.132812 14.296875 -8.625 C 14.222656 -8.113281 14.160156 -7.609375 14.109375 -7.109375 C 14.054688 -6.609375 14.03125 -6.207031 14.03125 -5.90625 C 14.03125 -5.53125 14.0625 -5.054688 14.125 -4.484375 C 14.1875 -3.910156 14.300781 -3.40625 14.46875 -2.96875 C 14.632812 -2.53125 14.859375 -2.3125 15.140625 -2.3125 C 15.359375 -2.3125 15.554688 -2.390625 15.734375 -2.546875 C 15.921875 -2.703125 16.09375 -2.941406 16.25 -3.265625 C 16.351562 -3.484375 16.5 -3.640625 16.6875 -3.734375 C 16.875 -3.828125 17.066406 -3.875 17.265625 -3.875 C 17.484375 -3.875 17.691406 -3.816406 17.890625 -3.703125 C 18.097656 -3.585938 18.253906 -3.4375 18.359375 -3.25 C 18.472656 -3.0625 18.519531 -2.828125 18.5 -2.546875 C 18.5 -2.171875 18.347656 -1.757812 18.046875 -1.3125 C 17.742188 -0.875 17.332031 -0.5 16.8125 -0.1875 C 16.300781 0.113281 15.710938 0.265625 15.046875 0.265625 C 14.492188 0.265625 13.992188 0.144531 13.546875 -0.09375 C 13.109375 -0.332031 12.75 -0.675781 12.46875 -1.125 C 12.1875 -1.570312 12 -2.117188 11.90625 -2.765625 C 11.300781 -1.878906 10.640625 -1.191406 9.921875 -0.703125 C 9.203125 -0.210938 8.34375 0.03125 7.34375 0.03125 C 6.0625 0.03125 4.988281 -0.269531 4.125 -0.875 C 3.269531 -1.488281 2.625 -2.328125 2.1875 -3.390625 C 1.75 -4.453125 1.53125 -5.660156 1.53125 -7.015625 Z M 4.3125 -7.140625 C 4.3125 -6.160156 4.425781 -5.320312 4.65625 -4.625 C 4.882812 -3.9375 5.226562 -3.40625 5.6875 -3.03125 C 6.15625 -2.664062 6.738281 -2.484375 7.4375 -2.484375 C 8 -2.484375 8.476562 -2.609375 8.875 -2.859375 C 9.269531 -3.109375 9.617188 -3.453125 9.921875 -3.890625 C 10.222656 -4.335938 10.484375 -4.847656 10.703125 -5.421875 C 10.898438 -5.921875 11.070312 -6.46875 11.21875 -7.0625 C 11.375 -7.664062 11.5 -8.289062 11.59375 -8.9375 C 11.695312 -9.59375 11.78125 -10.226562 11.84375 -10.84375 C 11.90625 -11.46875 11.957031 -12.039062 12 -12.5625 C 11.519531 -12.957031 11.003906 -13.257812 10.453125 -13.46875 C 9.898438 -13.6875 9.40625 -13.796875 8.96875 -13.796875 C 8.25 -13.796875 7.601562 -13.609375 7.03125 -13.234375 C 6.457031 -12.867188 5.96875 -12.367188 5.5625 -11.734375 C 5.15625 -11.109375 4.84375 -10.398438 4.625 -9.609375 C 4.414062 -8.816406 4.3125 -7.992188 4.3125 -7.140625 Z M 4.3125 -7.140625 "/></g></g></g><g fill="#ffffff" fill-opacity="0.4"><g transform="translate(116.204643, 51.99123)"><g><path d="M 3.953125 -19.375 C 3.992188 -19.769531 4.140625 -20.066406 4.390625 -20.265625 C 4.640625 -20.460938 4.945312 -20.5625 5.3125 -20.5625 C 5.550781 -20.5625 5.785156 -20.515625 6.015625 -20.421875 C 6.242188 -20.335938 6.425781 -20.207031 6.5625 -20.03125 C 6.707031 -19.851562 6.757812 -19.625 6.71875 -19.34375 C 6.5625 -18.0625 6.425781 -16.828125 6.3125 -15.640625 C 6.195312 -14.460938 6.109375 -13.296875 6.046875 -12.140625 C 5.992188 -10.984375 5.96875 -9.785156 5.96875 -8.546875 C 5.988281 -7.023438 6.050781 -5.804688 6.15625 -4.890625 C 6.269531 -3.984375 6.40625 -3.332031 6.5625 -2.9375 C 6.726562 -2.539062 6.867188 -2.34375 6.984375 -2.34375 C 7.160156 -2.34375 7.390625 -2.457031 7.671875 -2.6875 C 7.953125 -2.914062 8.226562 -3.171875 8.5 -3.453125 C 8.769531 -3.742188 8.960938 -3.960938 9.078125 -4.109375 C 9.203125 -4.242188 9.335938 -4.335938 9.484375 -4.390625 C 9.640625 -4.441406 9.785156 -4.46875 9.921875 -4.46875 C 10.160156 -4.46875 10.378906 -4.40625 10.578125 -4.28125 C 10.785156 -4.164062 10.945312 -4.007812 11.0625 -3.8125 C 11.1875 -3.613281 11.25 -3.390625 11.25 -3.140625 C 11.25 -3.003906 11.210938 -2.851562 11.140625 -2.6875 C 11.066406 -2.53125 10.953125 -2.351562 10.796875 -2.15625 C 10.390625 -1.632812 9.953125 -1.191406 9.484375 -0.828125 C 9.015625 -0.472656 8.550781 -0.207031 8.09375 -0.03125 C 7.632812 0.144531 7.1875 0.234375 6.75 0.234375 C 5.96875 0.234375 5.300781 -0.046875 4.75 -0.609375 C 4.195312 -1.179688 3.8125 -2.078125 3.59375 -3.296875 C 3.457031 -4.179688 3.351562 -5.066406 3.28125 -5.953125 C 3.207031 -6.835938 3.171875 -7.734375 3.171875 -8.640625 C 3.171875 -9.859375 3.203125 -11.023438 3.265625 -12.140625 C 3.328125 -13.265625 3.414062 -14.410156 3.53125 -15.578125 C 3.65625 -16.742188 3.796875 -18.007812 3.953125 -19.375 Z M 2.40625 -13.34375 C 2.019531 -13.320312 1.722656 -13.4375 1.515625 -13.6875 C 1.304688 -13.9375 1.203125 -14.242188 1.203125 -14.609375 C 1.203125 -14.941406 1.304688 -15.226562 1.515625 -15.46875 C 1.722656 -15.707031 2.019531 -15.835938 2.40625 -15.859375 C 2.914062 -15.898438 3.457031 -15.9375 4.03125 -15.96875 C 4.601562 -16 5.195312 -16.019531 5.8125 -16.03125 C 6.4375 -16.039062 7.109375 -16.050781 7.828125 -16.0625 C 8.546875 -16.070312 9.316406 -16.078125 10.140625 -16.078125 C 10.472656 -16.078125 10.757812 -15.957031 11 -15.71875 C 11.238281 -15.476562 11.367188 -15.164062 11.390625 -14.78125 C 11.390625 -14.425781 11.257812 -14.128906 11 -13.890625 C 10.738281 -13.660156 10.453125 -13.546875 10.140625 -13.546875 C 9.296875 -13.546875 8.570312 -13.539062 7.96875 -13.53125 C 7.375 -13.519531 6.804688 -13.507812 6.265625 -13.5 C 5.722656 -13.5 5.148438 -13.484375 4.546875 -13.453125 C 3.953125 -13.421875 3.238281 -13.382812 2.40625 -13.34375 Z M 2.40625 -13.34375 "/></g></g></g><g fill="#ffffff" fill-opacity="0.4"><g transform="translate(128.28742, 51.99123)"><g><path d="M 8.453125 0 C 7.359375 0 6.378906 -0.21875 5.515625 -0.65625 C 4.660156 -1.09375 3.929688 -1.6875 3.328125 -2.4375 C 2.722656 -3.1875 2.265625 -4.023438 1.953125 -4.953125 C 1.648438 -5.890625 1.5 -6.835938 1.5 -7.796875 C 1.5 -8.816406 1.703125 -9.828125 2.109375 -10.828125 C 2.523438 -11.828125 3.097656 -12.742188 3.828125 -13.578125 C 4.554688 -14.421875 5.398438 -15.09375 6.359375 -15.59375 C 7.316406 -16.09375 8.34375 -16.34375 9.4375 -16.34375 C 10.300781 -16.34375 11.054688 -16.164062 11.703125 -15.8125 C 12.359375 -15.46875 12.867188 -14.992188 13.234375 -14.390625 C 13.609375 -13.796875 13.796875 -13.097656 13.796875 -12.296875 C 13.796875 -11.453125 13.582031 -10.65625 13.15625 -9.90625 C 12.738281 -9.15625 12.148438 -8.550781 11.390625 -8.09375 C 10.367188 -7.394531 9.253906 -6.910156 8.046875 -6.640625 C 6.835938 -6.367188 5.613281 -6.210938 4.375 -6.171875 C 4.539062 -5.597656 4.800781 -5.03125 5.15625 -4.46875 C 5.519531 -3.90625 5.984375 -3.4375 6.546875 -3.0625 C 7.117188 -2.695312 7.796875 -2.515625 8.578125 -2.515625 C 9.316406 -2.515625 10.03125 -2.726562 10.71875 -3.15625 C 11.40625 -3.59375 12 -4.085938 12.5 -4.640625 C 12.625 -4.804688 12.757812 -4.914062 12.90625 -4.96875 C 13.0625 -5.03125 13.207031 -5.0625 13.34375 -5.0625 C 13.582031 -5.0625 13.800781 -5 14 -4.875 C 14.195312 -4.757812 14.351562 -4.601562 14.46875 -4.40625 C 14.59375 -4.207031 14.65625 -3.988281 14.65625 -3.75 C 14.675781 -3.59375 14.65625 -3.4375 14.59375 -3.28125 C 14.539062 -3.132812 14.441406 -2.988281 14.296875 -2.84375 C 13.554688 -2.050781 12.691406 -1.378906 11.703125 -0.828125 C 10.710938 -0.273438 9.628906 0 8.453125 0 Z M 4.25 -8.640625 C 5.050781 -8.679688 5.789062 -8.742188 6.46875 -8.828125 C 7.15625 -8.921875 7.867188 -9.117188 8.609375 -9.421875 C 9.265625 -9.679688 9.84375 -10.054688 10.34375 -10.546875 C 10.84375 -11.035156 11.09375 -11.628906 11.09375 -12.328125 C 11.09375 -12.609375 11.023438 -12.863281 10.890625 -13.09375 C 10.765625 -13.320312 10.578125 -13.507812 10.328125 -13.65625 C 10.078125 -13.800781 9.753906 -13.875 9.359375 -13.875 C 8.710938 -13.875 8.097656 -13.710938 7.515625 -13.390625 C 6.941406 -13.078125 6.425781 -12.664062 5.96875 -12.15625 C 5.507812 -11.644531 5.132812 -11.078125 4.84375 -10.453125 C 4.550781 -9.835938 4.351562 -9.234375 4.25 -8.640625 Z M 4.25 -8.640625 "/></g></g></g><g fill="#ffffff" fill-opacity="0.4"><g transform="translate(144.057981, 51.99123)"><g><path d="M 12.265625 -14.125 C 12.398438 -13.957031 12.488281 -13.796875 12.53125 -13.640625 C 12.570312 -13.484375 12.59375 -13.332031 12.59375 -13.1875 C 12.59375 -12.945312 12.523438 -12.734375 12.390625 -12.546875 C 12.265625 -12.359375 12.101562 -12.207031 11.90625 -12.09375 C 11.707031 -11.988281 11.5 -11.9375 11.28125 -11.9375 C 11.070312 -11.9375 10.890625 -11.984375 10.734375 -12.078125 C 10.578125 -12.179688 10.425781 -12.300781 10.28125 -12.4375 C 10.082031 -12.738281 9.75 -13.039062 9.28125 -13.34375 C 8.8125 -13.644531 8.226562 -13.796875 7.53125 -13.796875 C 6.863281 -13.796875 6.289062 -13.632812 5.8125 -13.3125 C 5.332031 -12.988281 5.09375 -12.566406 5.09375 -12.046875 C 5.09375 -11.429688 5.296875 -10.960938 5.703125 -10.640625 C 6.117188 -10.328125 6.785156 -9.9375 7.703125 -9.46875 C 8.398438 -9.132812 9.070312 -8.734375 9.71875 -8.265625 C 10.375 -7.796875 10.914062 -7.222656 11.34375 -6.546875 C 11.78125 -5.878906 12 -5.078125 12 -4.140625 C 12 -3.335938 11.800781 -2.601562 11.40625 -1.9375 C 11.019531 -1.28125 10.472656 -0.753906 9.765625 -0.359375 C 9.054688 0.0351562 8.207031 0.234375 7.21875 0.234375 C 6.125 0.234375 5.035156 -0.0078125 3.953125 -0.5 C 2.878906 -0.988281 1.960938 -1.5625 1.203125 -2.21875 C 1.054688 -2.34375 0.953125 -2.476562 0.890625 -2.625 C 0.835938 -2.769531 0.8125 -2.914062 0.8125 -3.0625 C 0.8125 -3.414062 0.941406 -3.738281 1.203125 -4.03125 C 1.460938 -4.320312 1.757812 -4.46875 2.09375 -4.46875 C 2.195312 -4.46875 2.300781 -4.445312 2.40625 -4.40625 C 2.519531 -4.363281 2.644531 -4.296875 2.78125 -4.203125 C 3.425781 -3.703125 4.125 -3.25 4.875 -2.84375 C 5.625 -2.445312 6.335938 -2.25 7.015625 -2.25 C 7.773438 -2.25 8.328125 -2.421875 8.671875 -2.765625 C 9.023438 -3.117188 9.203125 -3.515625 9.203125 -3.953125 C 9.203125 -4.671875 8.925781 -5.296875 8.375 -5.828125 C 7.832031 -6.359375 7.117188 -6.816406 6.234375 -7.203125 C 5.316406 -7.617188 4.5625 -8.066406 3.96875 -8.546875 C 3.382812 -9.023438 2.957031 -9.546875 2.6875 -10.109375 C 2.414062 -10.679688 2.28125 -11.3125 2.28125 -12 C 2.28125 -12.832031 2.523438 -13.566406 3.015625 -14.203125 C 3.503906 -14.847656 4.144531 -15.347656 4.9375 -15.703125 C 5.738281 -16.066406 6.601562 -16.25 7.53125 -16.25 C 8.46875 -16.25 9.363281 -16.0625 10.21875 -15.6875 C 11.082031 -15.320312 11.765625 -14.800781 12.265625 -14.125 Z M 12.265625 -14.125 "/></g></g></g><g fill="#ffffff" fill-opacity="0.4"><g transform="translate(157.729805, 51.99123)"><g><path d="M 3.953125 -19.375 C 3.992188 -19.769531 4.140625 -20.066406 4.390625 -20.265625 C 4.640625 -20.460938 4.945312 -20.5625 5.3125 -20.5625 C 5.550781 -20.5625 5.785156 -20.515625 6.015625 -20.421875 C 6.242188 -20.335938 6.425781 -20.207031 6.5625 -20.03125 C 6.707031 -19.851562 6.757812 -19.625 6.71875 -19.34375 C 6.5625 -18.0625 6.425781 -16.828125 6.3125 -15.640625 C 6.195312 -14.460938 6.109375 -13.296875 6.046875 -12.140625 C 5.992188 -10.984375 5.96875 -9.785156 5.96875 -8.546875 C 5.988281 -7.023438 6.050781 -5.804688 6.15625 -4.890625 C 6.269531 -3.984375 6.40625 -3.332031 6.5625 -2.9375 C 6.726562 -2.539062 6.867188 -2.34375 6.984375 -2.34375 C 7.160156 -2.34375 7.390625 -2.457031 7.671875 -2.6875 C 7.953125 -2.914062 8.226562 -3.171875 8.5 -3.453125 C 8.769531 -3.742188 8.960938 -3.960938 9.078125 -4.109375 C 9.203125 -4.242188 9.335938 -4.335938 9.484375 -4.390625 C 9.640625 -4.441406 9.785156 -4.46875 9.921875 -4.46875 C 10.160156 -4.46875 10.378906 -4.40625 10.578125 -4.28125 C 10.785156 -4.164062 10.945312 -4.007812 11.0625 -3.8125 C 11.1875 -3.613281 11.25 -3.390625 11.25 -3.140625 C 11.25 -3.003906 11.210938 -2.851562 11.140625 -2.6875 C 11.066406 -2.53125 10.953125 -2.351562 10.796875 -2.15625 C 10.390625 -1.632812 9.953125 -1.191406 9.484375 -0.828125 C 9.015625 -0.472656 8.550781 -0.207031 8.09375 -0.03125 C 7.632812 0.144531 7.1875 0.234375 6.75 0.234375 C 5.96875 0.234375 5.300781 -0.046875 4.75 -0.609375 C 4.195312 -1.179688 3.8125 -2.078125 3.59375 -3.296875 C 3.457031 -4.179688 3.351562 -5.066406 3.28125 -5.953125 C 3.207031 -6.835938 3.171875 -7.734375 3.171875 -8.640625 C 3.171875 -9.859375 3.203125 -11.023438 3.265625 -12.140625 C 3.328125 -13.265625 3.414062 -14.410156 3.53125 -15.578125 C 3.65625 -16.742188 3.796875 -18.007812 3.953125 -19.375 Z M 2.40625 -13.34375 C 2.019531 -13.320312 1.722656 -13.4375 1.515625 -13.6875 C 1.304688 -13.9375 1.203125 -14.242188 1.203125 -14.609375 C 1.203125 -14.941406 1.304688 -15.226562 1.515625 -15.46875 C 1.722656 -15.707031 2.019531 -15.835938 2.40625 -15.859375 C 2.914062 -15.898438 3.457031 -15.9375 4.03125 -15.96875 C 4.601562 -16 5.195312 -16.019531 5.8125 -16.03125 C 6.4375 -16.039062 7.109375 -16.050781 7.828125 -16.0625 C 8.546875 -16.070312 9.316406 -16.078125 10.140625 -16.078125 C 10.472656 -16.078125 10.757812 -15.957031 11 -15.71875 C 11.238281 -15.476562 11.367188 -15.164062 11.390625 -14.78125 C 11.390625 -14.425781 11.257812 -14.128906 11 -13.890625 C 10.738281 -13.660156 10.453125 -13.546875 10.140625 -13.546875 C 9.296875 -13.546875 8.570312 -13.539062 7.96875 -13.53125 C 7.375 -13.519531 6.804688 -13.507812 6.265625 -13.5 C 5.722656 -13.5 5.148438 -13.484375 4.546875 -13.453125 C 3.953125 -13.421875 3.238281 -13.382812 2.40625 -13.34375 Z M 2.40625 -13.34375 "/></g></g></g><g fill="#ffffff" fill-opacity="0.4"><g transform="translate(65.07542, 93.966151)"><g><path d="M 16.765625 0.453125 C 16.460938 0.453125 16.203125 0.375 15.984375 0.21875 C 15.765625 0.0703125 15.601562 -0.160156 15.5 -0.484375 C 15.21875 -1.378906 14.921875 -2.285156 14.609375 -3.203125 C 14.304688 -4.128906 13.988281 -5.046875 13.65625 -5.953125 C 13.320312 -6.859375 12.992188 -7.773438 12.671875 -8.703125 C 12.359375 -9.640625 12.0625 -10.566406 11.78125 -11.484375 C 10.957031 -9.546875 10.269531 -7.890625 9.71875 -6.515625 C 9.175781 -5.148438 8.722656 -3.992188 8.359375 -3.046875 C 8.003906 -2.097656 7.695312 -1.265625 7.4375 -0.546875 C 7.351562 -0.335938 7.238281 -0.160156 7.09375 -0.015625 C 6.957031 0.117188 6.800781 0.210938 6.625 0.265625 C 6.445312 0.328125 6.269531 0.359375 6.09375 0.359375 C 5.789062 0.359375 5.507812 0.273438 5.25 0.109375 C 4.988281 -0.046875 4.835938 -0.28125 4.796875 -0.59375 C 4.554688 -2.21875 4.207031 -3.800781 3.75 -5.34375 C 3.289062 -6.894531 2.816406 -8.441406 2.328125 -9.984375 C 1.835938 -11.523438 1.421875 -13.066406 1.078125 -14.609375 C 1.054688 -14.765625 1.035156 -14.882812 1.015625 -14.96875 C 0.992188 -15.0625 0.984375 -15.179688 0.984375 -15.328125 C 0.984375 -15.597656 1.128906 -15.835938 1.421875 -16.046875 C 1.710938 -16.265625 2.046875 -16.375 2.421875 -16.375 C 2.703125 -16.375 2.957031 -16.296875 3.1875 -16.140625 C 3.414062 -15.992188 3.570312 -15.769531 3.65625 -15.46875 C 3.851562 -14.59375 4.066406 -13.722656 4.296875 -12.859375 C 4.523438 -12.003906 4.757812 -11.144531 5 -10.28125 C 5.25 -9.425781 5.492188 -8.546875 5.734375 -7.640625 C 5.984375 -6.742188 6.234375 -5.816406 6.484375 -4.859375 C 6.972656 -6.097656 7.445312 -7.289062 7.90625 -8.4375 C 8.375 -9.59375 8.835938 -10.722656 9.296875 -11.828125 C 9.753906 -12.941406 10.203125 -14.035156 10.640625 -15.109375 C 10.660156 -15.390625 10.734375 -15.632812 10.859375 -15.84375 C 10.992188 -16.050781 11.175781 -16.210938 11.40625 -16.328125 C 11.632812 -16.453125 11.898438 -16.515625 12.203125 -16.515625 C 12.460938 -16.515625 12.707031 -16.445312 12.9375 -16.3125 C 13.164062 -16.175781 13.320312 -15.9375 13.40625 -15.59375 C 13.5625 -15.050781 13.695312 -14.507812 13.8125 -13.96875 C 13.9375 -13.425781 14.082031 -12.890625 14.25 -12.359375 C 14.425781 -11.753906 14.601562 -11.148438 14.78125 -10.546875 C 14.957031 -9.953125 15.144531 -9.347656 15.34375 -8.734375 C 15.550781 -8.128906 15.757812 -7.515625 15.96875 -6.890625 C 16.175781 -6.273438 16.378906 -5.644531 16.578125 -5 C 16.921875 -6.28125 17.289062 -7.507812 17.6875 -8.6875 C 18.09375 -9.875 18.507812 -11.035156 18.9375 -12.171875 C 19.363281 -13.304688 19.773438 -14.445312 20.171875 -15.59375 C 20.273438 -15.914062 20.4375 -16.144531 20.65625 -16.28125 C 20.875 -16.414062 21.125 -16.484375 21.40625 -16.484375 C 21.789062 -16.484375 22.113281 -16.375 22.375 -16.15625 C 22.644531 -15.9375 22.78125 -15.648438 22.78125 -15.296875 C 22.78125 -15.210938 22.765625 -15.125 22.734375 -15.03125 C 22.710938 -14.945312 22.679688 -14.84375 22.640625 -14.71875 C 22.097656 -13.175781 21.53125 -11.644531 20.9375 -10.125 C 20.351562 -8.613281 19.816406 -7.085938 19.328125 -5.546875 C 18.835938 -4.003906 18.460938 -2.4375 18.203125 -0.84375 C 18.140625 -0.4375 17.984375 -0.117188 17.734375 0.109375 C 17.484375 0.335938 17.160156 0.453125 16.765625 0.453125 Z M 16.765625 0.453125 "/></g></g></g><g fill="#ffffff" fill-opacity="0.4"><g transform="translate(87.891767, 93.966151)"><g><path d="M 8.71875 -16.375 C 9.1875 -16.375 9.648438 -16.328125 10.109375 -16.234375 C 10.566406 -16.148438 10.992188 -16.019531 11.390625 -15.84375 C 11.796875 -15.675781 12.132812 -15.460938 12.40625 -15.203125 C 13.332031 -14.460938 14.007812 -13.5 14.4375 -12.3125 C 14.863281 -11.132812 15.078125 -9.898438 15.078125 -8.609375 C 15.078125 -7.503906 14.9375 -6.4375 14.65625 -5.40625 C 14.382812 -4.382812 13.976562 -3.457031 13.4375 -2.625 C 12.894531 -1.789062 12.234375 -1.128906 11.453125 -0.640625 C 10.671875 -0.148438 9.78125 0.09375 8.78125 0.09375 C 7.757812 0.09375 6.8125 -0.125 5.9375 -0.5625 C 5.070312 -1.007812 4.3125 -1.613281 3.65625 -2.375 C 3 -3.132812 2.488281 -4.007812 2.125 -5 C 1.769531 -5.988281 1.59375 -7.03125 1.59375 -8.125 C 1.59375 -9.164062 1.742188 -10.175781 2.046875 -11.15625 C 2.359375 -12.132812 2.816406 -13.019531 3.421875 -13.8125 C 4.035156 -14.601562 4.785156 -15.226562 5.671875 -15.6875 C 6.566406 -16.144531 7.582031 -16.375 8.71875 -16.375 Z M 4.34375 -8.328125 C 4.34375 -7.335938 4.515625 -6.394531 4.859375 -5.5 C 5.203125 -4.613281 5.695312 -3.894531 6.34375 -3.34375 C 6.988281 -2.789062 7.773438 -2.515625 8.703125 -2.515625 C 9.335938 -2.515625 9.882812 -2.6875 10.34375 -3.03125 C 10.800781 -3.382812 11.179688 -3.859375 11.484375 -4.453125 C 11.785156 -5.046875 12.003906 -5.691406 12.140625 -6.390625 C 12.285156 -7.085938 12.359375 -7.773438 12.359375 -8.453125 C 12.359375 -9.671875 12.160156 -10.703125 11.765625 -11.546875 C 11.378906 -12.398438 10.851562 -13.054688 10.1875 -13.515625 C 9.9375 -13.597656 9.6875 -13.65625 9.4375 -13.6875 C 9.1875 -13.71875 8.929688 -13.734375 8.671875 -13.734375 C 7.984375 -13.734375 7.367188 -13.585938 6.828125 -13.296875 C 6.296875 -13.003906 5.84375 -12.601562 5.46875 -12.09375 C 5.101562 -11.582031 4.820312 -11.007812 4.625 -10.375 C 4.4375 -9.738281 4.34375 -9.054688 4.34375 -8.328125 Z M 4.34375 -8.328125 "/></g></g></g><g fill="#ffffff" fill-opacity="0.4"><g transform="translate(104.531812, 93.966151)"><g><path d="M 2.96875 -15.078125 C 2.988281 -15.503906 3.140625 -15.820312 3.421875 -16.03125 C 3.703125 -16.238281 4.03125 -16.34375 4.40625 -16.34375 C 4.769531 -16.34375 5.082031 -16.242188 5.34375 -16.046875 C 5.601562 -15.859375 5.734375 -15.566406 5.734375 -15.171875 C 5.734375 -15.054688 5.734375 -14.898438 5.734375 -14.703125 C 5.734375 -14.515625 5.726562 -14.304688 5.71875 -14.078125 C 5.707031 -13.847656 5.679688 -13.59375 5.640625 -13.3125 C 6.210938 -14.3125 6.875 -15.054688 7.625 -15.546875 C 8.375 -16.035156 9.210938 -16.28125 10.140625 -16.28125 C 10.597656 -16.28125 11.085938 -16.210938 11.609375 -16.078125 C 12.140625 -15.953125 12.6875 -15.71875 13.25 -15.375 C 13.488281 -15.238281 13.65625 -15.070312 13.75 -14.875 C 13.851562 -14.675781 13.894531 -14.4375 13.875 -14.15625 C 13.863281 -13.71875 13.734375 -13.378906 13.484375 -13.140625 C 13.234375 -12.910156 12.925781 -12.796875 12.5625 -12.796875 C 12.363281 -12.796875 12.175781 -12.835938 12 -12.921875 C 11.832031 -13.003906 11.671875 -13.09375 11.515625 -13.1875 C 11.316406 -13.3125 11.101562 -13.425781 10.875 -13.53125 C 10.65625 -13.644531 10.378906 -13.703125 10.046875 -13.703125 C 8.867188 -13.703125 7.921875 -13.113281 7.203125 -11.9375 C 6.492188 -10.769531 5.910156 -9.269531 5.453125 -7.4375 C 5.429688 -6.757812 5.414062 -6.125 5.40625 -5.53125 C 5.394531 -4.9375 5.378906 -4.367188 5.359375 -3.828125 C 5.347656 -3.296875 5.335938 -2.78125 5.328125 -2.28125 C 5.316406 -1.78125 5.3125 -1.289062 5.3125 -0.8125 C 5.3125 -0.550781 5.242188 -0.328125 5.109375 -0.140625 C 4.984375 0.0351562 4.8125 0.164062 4.59375 0.25 C 4.382812 0.34375 4.160156 0.390625 3.921875 0.390625 C 3.484375 0.390625 3.15625 0.257812 2.9375 0 C 2.71875 -0.257812 2.566406 -0.601562 2.484375 -1.03125 C 2.410156 -1.457031 2.375 -1.921875 2.375 -2.421875 C 2.375 -2.828125 2.382812 -3.328125 2.40625 -3.921875 C 2.4375 -4.523438 2.476562 -5.125 2.53125 -5.71875 C 2.582031 -6.320312 2.640625 -6.820312 2.703125 -7.21875 Z M 2.96875 -15.078125 "/></g></g></g><g fill="#ffffff" fill-opacity="0.4"><g transform="translate(118.293567, 93.966151)"><g><path d="M 3.75 -23.421875 C 3.789062 -23.796875 3.941406 -24.09375 4.203125 -24.3125 C 4.460938 -24.53125 4.78125 -24.640625 5.15625 -24.640625 C 5.65625 -24.640625 5.988281 -24.484375 6.15625 -24.171875 C 6.332031 -23.867188 6.421875 -23.476562 6.421875 -23 C 6.421875 -22.519531 6.351562 -21.710938 6.21875 -20.578125 C 6.09375 -19.453125 5.953125 -17.992188 5.796875 -16.203125 C 5.648438 -14.410156 5.535156 -12.285156 5.453125 -9.828125 C 5.472656 -9.847656 5.675781 -10.007812 6.0625 -10.3125 C 6.457031 -10.613281 6.953125 -11.003906 7.546875 -11.484375 C 8.148438 -11.960938 8.796875 -12.476562 9.484375 -13.03125 C 10.179688 -13.582031 10.859375 -14.117188 11.515625 -14.640625 C 12.171875 -15.171875 12.738281 -15.628906 13.21875 -16.015625 C 13.382812 -16.128906 13.546875 -16.222656 13.703125 -16.296875 C 13.859375 -16.367188 14.019531 -16.40625 14.1875 -16.40625 C 14.382812 -16.40625 14.5625 -16.375 14.71875 -16.3125 C 14.882812 -16.25 15.019531 -16.160156 15.125 -16.046875 C 15.238281 -15.941406 15.320312 -15.8125 15.375 -15.65625 C 15.4375 -15.507812 15.46875 -15.347656 15.46875 -15.171875 C 15.46875 -14.972656 15.4375 -14.78125 15.375 -14.59375 C 15.320312 -14.414062 15.210938 -14.269531 15.046875 -14.15625 C 14.753906 -13.914062 14.363281 -13.609375 13.875 -13.234375 C 13.382812 -12.867188 12.847656 -12.457031 12.265625 -12 C 11.679688 -11.550781 11.09375 -11.097656 10.5 -10.640625 C 9.914062 -10.179688 9.367188 -9.757812 8.859375 -9.375 C 8.347656 -9 7.925781 -8.679688 7.59375 -8.421875 C 7.90625 -8.023438 8.285156 -7.5 8.734375 -6.84375 C 9.191406 -6.195312 9.640625 -5.566406 10.078125 -4.953125 C 10.410156 -4.484375 10.757812 -4.050781 11.125 -3.65625 C 11.5 -3.257812 11.863281 -2.945312 12.21875 -2.71875 C 12.582031 -2.488281 12.9375 -2.375 13.28125 -2.375 C 13.601562 -2.375 13.925781 -2.53125 14.25 -2.84375 C 14.582031 -3.164062 14.867188 -3.457031 15.109375 -3.71875 C 15.273438 -3.914062 15.441406 -4.070312 15.609375 -4.1875 C 15.773438 -4.3125 15.957031 -4.375 16.15625 -4.375 C 16.375 -4.375 16.582031 -4.320312 16.78125 -4.21875 C 16.988281 -4.125 17.15625 -3.984375 17.28125 -3.796875 C 17.414062 -3.617188 17.484375 -3.398438 17.484375 -3.140625 C 17.484375 -2.898438 17.40625 -2.65625 17.25 -2.40625 C 17.101562 -2.15625 16.910156 -1.90625 16.671875 -1.65625 C 16.390625 -1.332031 16.046875 -1.023438 15.640625 -0.734375 C 15.242188 -0.441406 14.828125 -0.207031 14.390625 -0.03125 C 13.953125 0.144531 13.523438 0.234375 13.109375 0.234375 C 12.390625 0.234375 11.710938 0.046875 11.078125 -0.328125 C 10.453125 -0.710938 9.867188 -1.203125 9.328125 -1.796875 C 8.785156 -2.398438 8.265625 -3.03125 7.765625 -3.6875 C 7.285156 -4.382812 6.847656 -5.023438 6.453125 -5.609375 C 6.066406 -6.203125 5.707031 -6.691406 5.375 -7.078125 C 5.351562 -6.015625 5.320312 -4.976562 5.28125 -3.96875 C 5.238281 -2.957031 5.195312 -1.941406 5.15625 -0.921875 C 5.15625 -0.503906 5.019531 -0.195312 4.75 0 C 4.476562 0.195312 4.164062 0.296875 3.8125 0.296875 C 3.425781 0.296875 3.097656 0.195312 2.828125 0 C 2.554688 -0.195312 2.421875 -0.503906 2.421875 -0.921875 C 2.566406 -4.703125 2.738281 -8.488281 2.9375 -12.28125 C 3.132812 -16.082031 3.40625 -19.796875 3.75 -23.421875 Z M 3.75 -23.421875 "/></g></g></g><g fill="#ffffff" fill-opacity="1"><g transform="translate(30.360177, 50.666193)"><g><path d="M 5.21875 -0.71875 C 5.15625 -0.394531 4.992188 -0.15625 4.734375 0 C 4.472656 0.15625 4.175781 0.234375 3.84375 0.234375 C 3.414062 0.234375 3.082031 0.109375 2.84375 -0.140625 C 2.601562 -0.390625 2.503906 -0.710938 2.546875 -1.109375 C 2.804688 -3.390625 3.003906 -5.453125 3.140625 -7.296875 C 3.285156 -9.148438 3.382812 -10.875 3.4375 -12.46875 C 3.488281 -14.070312 3.515625 -15.632812 3.515625 -17.15625 C 3.515625 -18.675781 3.492188 -20.242188 3.453125 -21.859375 C 3.429688 -22.253906 3.566406 -22.5625 3.859375 -22.78125 C 4.160156 -23.007812 4.503906 -23.125 4.890625 -23.125 C 5.171875 -23.125 5.410156 -23.066406 5.609375 -22.953125 C 5.804688 -22.835938 5.972656 -22.648438 6.109375 -22.390625 C 6.796875 -21.191406 7.472656 -20 8.140625 -18.8125 C 8.804688 -17.625 9.472656 -16.429688 10.140625 -15.234375 C 10.816406 -14.035156 11.5 -12.828125 12.1875 -11.609375 C 12.875 -10.390625 13.566406 -9.140625 14.265625 -7.859375 C 15.085938 -9.035156 15.878906 -10.203125 16.640625 -11.359375 C 17.398438 -12.523438 18.125 -13.691406 18.8125 -14.859375 C 19.5 -16.023438 20.164062 -17.207031 20.8125 -18.40625 C 21.46875 -19.601562 22.109375 -20.832031 22.734375 -22.09375 C 22.847656 -22.332031 23.007812 -22.503906 23.21875 -22.609375 C 23.425781 -22.722656 23.660156 -22.78125 23.921875 -22.78125 C 24.304688 -22.78125 24.628906 -22.664062 24.890625 -22.4375 C 25.148438 -22.207031 25.28125 -21.90625 25.28125 -21.53125 C 25.320312 -20.007812 25.34375 -18.578125 25.34375 -17.234375 C 25.34375 -15.898438 25.332031 -14.554688 25.3125 -13.203125 C 25.289062 -11.859375 25.257812 -10.40625 25.21875 -8.84375 C 25.175781 -7.507812 25.117188 -6.164062 25.046875 -4.8125 C 24.984375 -3.457031 24.898438 -2.125 24.796875 -0.8125 C 24.773438 -0.394531 24.632812 -0.0859375 24.375 0.109375 C 24.113281 0.316406 23.804688 0.421875 23.453125 0.421875 C 23.066406 0.421875 22.738281 0.316406 22.46875 0.109375 C 22.195312 -0.0859375 22.070312 -0.394531 22.09375 -0.8125 L 22.375 -5.34375 C 22.425781 -6.238281 22.46875 -7.128906 22.5 -8.015625 C 22.53125 -8.910156 22.5625 -9.804688 22.59375 -10.703125 C 22.625 -11.597656 22.644531 -12.523438 22.65625 -13.484375 C 22.664062 -14.453125 22.679688 -15.453125 22.703125 -16.484375 C 21.941406 -15.046875 21.160156 -13.675781 20.359375 -12.375 C 19.554688 -11.082031 18.734375 -9.828125 17.890625 -8.609375 C 17.054688 -7.390625 16.191406 -6.1875 15.296875 -5 C 15.148438 -4.800781 14.984375 -4.640625 14.796875 -4.515625 C 14.609375 -4.398438 14.375 -4.34375 14.09375 -4.34375 C 13.851562 -4.34375 13.625 -4.394531 13.40625 -4.5 C 13.1875 -4.613281 13.015625 -4.789062 12.890625 -5.03125 C 12.328125 -6.007812 11.765625 -6.984375 11.203125 -7.953125 C 10.648438 -8.929688 10.097656 -9.914062 9.546875 -10.90625 C 8.992188 -11.894531 8.429688 -12.894531 7.859375 -13.90625 C 7.296875 -14.925781 6.722656 -15.988281 6.140625 -17.09375 C 6.140625 -15.550781 6.128906 -14.070312 6.109375 -12.65625 C 6.097656 -11.25 6.054688 -9.878906 5.984375 -8.546875 C 5.910156 -7.222656 5.8125 -5.910156 5.6875 -4.609375 C 5.570312 -3.316406 5.414062 -2.019531 5.21875 -0.71875 Z M 5.21875 -0.71875 "/></g></g></g><g fill="#ffffff" fill-opacity="1"><g transform="translate(58.483343, 50.666193)"><g><path d="M 2.8125 -15.234375 C 2.875 -15.566406 3.023438 -15.800781 3.265625 -15.9375 C 3.503906 -16.082031 3.796875 -16.15625 4.140625 -16.15625 C 4.316406 -16.15625 4.484375 -16.125 4.640625 -16.0625 C 4.804688 -16.007812 4.953125 -15.921875 5.078125 -15.796875 C 5.210938 -15.679688 5.3125 -15.535156 5.375 -15.359375 C 5.445312 -15.191406 5.484375 -15 5.484375 -14.78125 C 5.484375 -14.476562 5.421875 -14.054688 5.296875 -13.515625 C 5.179688 -12.984375 5.0625 -12.300781 4.9375 -11.46875 C 4.820312 -10.632812 4.765625 -9.609375 4.765625 -8.390625 C 4.765625 -7.359375 4.859375 -6.363281 5.046875 -5.40625 C 5.242188 -4.457031 5.535156 -3.679688 5.921875 -3.078125 C 6.304688 -2.484375 6.800781 -2.1875 7.40625 -2.1875 C 7.988281 -2.1875 8.535156 -2.410156 9.046875 -2.859375 C 9.566406 -3.304688 10.039062 -3.867188 10.46875 -4.546875 C 10.90625 -5.234375 11.253906 -5.894531 11.515625 -6.53125 L 11.515625 -7.890625 C 11.515625 -8.828125 11.535156 -9.738281 11.578125 -10.625 C 11.617188 -11.519531 11.691406 -12.347656 11.796875 -13.109375 C 11.910156 -13.867188 12.066406 -14.503906 12.265625 -15.015625 C 12.421875 -15.460938 12.628906 -15.804688 12.890625 -16.046875 C 13.148438 -16.285156 13.460938 -16.40625 13.828125 -16.40625 C 14.160156 -16.40625 14.421875 -16.304688 14.609375 -16.109375 C 14.804688 -15.921875 14.9375 -15.65625 15 -15.3125 C 15.070312 -14.976562 15.109375 -14.582031 15.109375 -14.125 C 15.109375 -12.90625 15.046875 -11.640625 14.921875 -10.328125 C 14.804688 -9.015625 14.570312 -7.738281 14.21875 -6.5 C 14.238281 -6.082031 14.25 -5.65625 14.25 -5.21875 C 14.25 -4.78125 14.25 -4.335938 14.25 -3.890625 C 14.257812 -3.453125 14.265625 -3.015625 14.265625 -2.578125 C 14.265625 -1.160156 14.175781 0.210938 14 1.546875 C 13.820312 2.890625 13.507812 4.101562 13.0625 5.1875 C 12.613281 6.269531 11.972656 7.125 11.140625 7.75 C 10.304688 8.382812 9.242188 8.703125 7.953125 8.703125 C 6.765625 8.703125 5.648438 8.4375 4.609375 7.90625 C 3.578125 7.375 2.78125 6.617188 2.21875 5.640625 C 2.15625 5.492188 2.109375 5.363281 2.078125 5.25 C 2.046875 5.144531 2.03125 5.046875 2.03125 4.953125 C 2.03125 4.691406 2.09375 4.46875 2.21875 4.28125 C 2.351562 4.101562 2.523438 3.957031 2.734375 3.84375 C 2.953125 3.738281 3.160156 3.6875 3.359375 3.6875 C 3.640625 3.6875 3.878906 3.753906 4.078125 3.890625 C 4.273438 4.035156 4.472656 4.25 4.671875 4.53125 C 5.035156 5.09375 5.535156 5.5 6.171875 5.75 C 6.816406 6.007812 7.414062 6.140625 7.96875 6.140625 C 8.851562 6.140625 9.535156 5.828125 10.015625 5.203125 C 10.492188 4.585938 10.847656 3.648438 11.078125 2.390625 C 11.304688 1.140625 11.472656 -0.457031 11.578125 -2.40625 C 11.097656 -1.664062 10.5 -1.007812 9.78125 -0.4375 C 9.0625 0.132812 8.257812 0.421875 7.375 0.421875 C 6.375 0.421875 5.53125 0.164062 4.84375 -0.34375 C 4.15625 -0.851562 3.597656 -1.53125 3.171875 -2.375 C 2.753906 -3.226562 2.457031 -4.164062 2.28125 -5.1875 C 2.101562 -6.207031 2.015625 -7.226562 2.015625 -8.25 C 2.015625 -9.03125 2.046875 -9.820312 2.109375 -10.625 C 2.179688 -11.4375 2.28125 -12.238281 2.40625 -13.03125 C 2.539062 -13.820312 2.675781 -14.554688 2.8125 -15.234375 Z M 2.8125 -15.234375 "/></g></g></g><g fill="#ffffff" fill-opacity="1"><g transform="translate(75.663066, 50.666193)"><g/></g></g><g fill="#ffffff" fill-opacity="1"><g transform="translate(88.375464, 50.666193)"><g><path d="M 3.84375 -23.390625 C 3.875 -23.785156 4.019531 -24.09375 4.28125 -24.3125 C 4.539062 -24.53125 4.863281 -24.640625 5.25 -24.640625 C 5.601562 -24.640625 5.875 -24.570312 6.0625 -24.4375 C 6.257812 -24.300781 6.390625 -24.109375 6.453125 -23.859375 C 6.523438 -23.609375 6.550781 -23.320312 6.53125 -23 C 6.5 -22.4375 6.414062 -21.546875 6.28125 -20.328125 C 6.15625 -19.109375 6.015625 -17.425781 5.859375 -15.28125 C 5.710938 -13.144531 5.585938 -10.410156 5.484375 -7.078125 C 5.460938 -6.015625 5.429688 -4.976562 5.390625 -3.96875 C 5.359375 -2.957031 5.320312 -1.953125 5.28125 -0.953125 C 5.28125 -0.515625 5.148438 -0.195312 4.890625 0 C 4.628906 0.195312 4.296875 0.296875 3.890625 0.296875 C 3.515625 0.296875 3.191406 0.195312 2.921875 0 C 2.648438 -0.195312 2.523438 -0.515625 2.546875 -0.953125 C 2.609375 -2.835938 2.675781 -4.726562 2.75 -6.625 C 2.832031 -8.519531 2.921875 -10.40625 3.015625 -12.28125 C 3.117188 -14.164062 3.234375 -16.035156 3.359375 -17.890625 C 3.492188 -19.753906 3.65625 -21.585938 3.84375 -23.390625 Z M 3.84375 -23.390625 "/></g></g></g><g fill="#ffffff" fill-opacity="1"><g transform="translate(96.560572, 50.666193)"><g><path d="M 1.53125 -7.015625 C 1.53125 -8.191406 1.707031 -9.332031 2.0625 -10.4375 C 2.425781 -11.550781 2.9375 -12.546875 3.59375 -13.421875 C 4.257812 -14.304688 5.035156 -15.003906 5.921875 -15.515625 C 6.804688 -16.023438 7.78125 -16.28125 8.84375 -16.28125 C 9.445312 -16.28125 10.050781 -16.1875 10.65625 -16 C 11.269531 -15.8125 11.863281 -15.484375 12.4375 -15.015625 C 12.539062 -15.460938 12.6875 -15.78125 12.875 -15.96875 C 13.0625 -16.15625 13.316406 -16.25 13.640625 -16.25 C 14.046875 -16.25 14.382812 -16.125 14.65625 -15.875 C 14.9375 -15.625 15.066406 -15.269531 15.046875 -14.8125 C 15.023438 -14.1875 14.953125 -13.421875 14.828125 -12.515625 C 14.710938 -11.609375 14.597656 -10.707031 14.484375 -9.8125 C 14.441406 -9.53125 14.378906 -9.132812 14.296875 -8.625 C 14.222656 -8.113281 14.160156 -7.609375 14.109375 -7.109375 C 14.054688 -6.609375 14.03125 -6.207031 14.03125 -5.90625 C 14.03125 -5.53125 14.0625 -5.054688 14.125 -4.484375 C 14.1875 -3.910156 14.300781 -3.40625 14.46875 -2.96875 C 14.632812 -2.53125 14.859375 -2.3125 15.140625 -2.3125 C 15.359375 -2.3125 15.554688 -2.390625 15.734375 -2.546875 C 15.921875 -2.703125 16.09375 -2.941406 16.25 -3.265625 C 16.351562 -3.484375 16.5 -3.640625 16.6875 -3.734375 C 16.875 -3.828125 17.066406 -3.875 17.265625 -3.875 C 17.484375 -3.875 17.691406 -3.816406 17.890625 -3.703125 C 18.097656 -3.585938 18.253906 -3.4375 18.359375 -3.25 C 18.472656 -3.0625 18.519531 -2.828125 18.5 -2.546875 C 18.5 -2.171875 18.347656 -1.757812 18.046875 -1.3125 C 17.742188 -0.875 17.332031 -0.5 16.8125 -0.1875 C 16.300781 0.113281 15.710938 0.265625 15.046875 0.265625 C 14.492188 0.265625 13.992188 0.144531 13.546875 -0.09375 C 13.109375 -0.332031 12.75 -0.675781 12.46875 -1.125 C 12.1875 -1.570312 12 -2.117188 11.90625 -2.765625 C 11.300781 -1.878906 10.640625 -1.191406 9.921875 -0.703125 C 9.203125 -0.210938 8.34375 0.03125 7.34375 0.03125 C 6.0625 0.03125 4.988281 -0.269531 4.125 -0.875 C 3.269531 -1.488281 2.625 -2.328125 2.1875 -3.390625 C 1.75 -4.453125 1.53125 -5.660156 1.53125 -7.015625 Z M 4.3125 -7.140625 C 4.3125 -6.160156 4.425781 -5.320312 4.65625 -4.625 C 4.882812 -3.9375 5.226562 -3.40625 5.6875 -3.03125 C 6.15625 -2.664062 6.738281 -2.484375 7.4375 -2.484375 C 8 -2.484375 8.476562 -2.609375 8.875 -2.859375 C 9.269531 -3.109375 9.617188 -3.453125 9.921875 -3.890625 C 10.222656 -4.335938 10.484375 -4.847656 10.703125 -5.421875 C 10.898438 -5.921875 11.070312 -6.46875 11.21875 -7.0625 C 11.375 -7.664062 11.5 -8.289062 11.59375 -8.9375 C 11.695312 -9.59375 11.78125 -10.226562 11.84375 -10.84375 C 11.90625 -11.46875 11.957031 -12.039062 12 -12.5625 C 11.519531 -12.957031 11.003906 -13.257812 10.453125 -13.46875 C 9.898438 -13.6875 9.40625 -13.796875 8.96875 -13.796875 C 8.25 -13.796875 7.601562 -13.609375 7.03125 -13.234375 C 6.457031 -12.867188 5.96875 -12.367188 5.5625 -11.734375 C 5.15625 -11.109375 4.84375 -10.398438 4.625 -9.609375 C 4.414062 -8.816406 4.3125 -7.992188 4.3125 -7.140625 Z M 4.3125 -7.140625 "/></g></g></g><g fill="#ffffff" fill-opacity="1"><g transform="translate(114.879606, 50.666193)"><g><path d="M 3.953125 -19.375 C 3.992188 -19.769531 4.140625 -20.066406 4.390625 -20.265625 C 4.640625 -20.460938 4.945312 -20.5625 5.3125 -20.5625 C 5.550781 -20.5625 5.785156 -20.515625 6.015625 -20.421875 C 6.242188 -20.335938 6.425781 -20.207031 6.5625 -20.03125 C 6.707031 -19.851562 6.757812 -19.625 6.71875 -19.34375 C 6.5625 -18.0625 6.425781 -16.828125 6.3125 -15.640625 C 6.195312 -14.460938 6.109375 -13.296875 6.046875 -12.140625 C 5.992188 -10.984375 5.96875 -9.785156 5.96875 -8.546875 C 5.988281 -7.023438 6.050781 -5.804688 6.15625 -4.890625 C 6.269531 -3.984375 6.40625 -3.332031 6.5625 -2.9375 C 6.726562 -2.539062 6.867188 -2.34375 6.984375 -2.34375 C 7.160156 -2.34375 7.390625 -2.457031 7.671875 -2.6875 C 7.953125 -2.914062 8.226562 -3.171875 8.5 -3.453125 C 8.769531 -3.742188 8.960938 -3.960938 9.078125 -4.109375 C 9.203125 -4.242188 9.335938 -4.335938 9.484375 -4.390625 C 9.640625 -4.441406 9.785156 -4.46875 9.921875 -4.46875 C 10.160156 -4.46875 10.378906 -4.40625 10.578125 -4.28125 C 10.785156 -4.164062 10.945312 -4.007812 11.0625 -3.8125 C 11.1875 -3.613281 11.25 -3.390625 11.25 -3.140625 C 11.25 -3.003906 11.210938 -2.851562 11.140625 -2.6875 C 11.066406 -2.53125 10.953125 -2.351562 10.796875 -2.15625 C 10.390625 -1.632812 9.953125 -1.191406 9.484375 -0.828125 C 9.015625 -0.472656 8.550781 -0.207031 8.09375 -0.03125 C 7.632812 0.144531 7.1875 0.234375 6.75 0.234375 C 5.96875 0.234375 5.300781 -0.046875 4.75 -0.609375 C 4.195312 -1.179688 3.8125 -2.078125 3.59375 -3.296875 C 3.457031 -4.179688 3.351562 -5.066406 3.28125 -5.953125 C 3.207031 -6.835938 3.171875 -7.734375 3.171875 -8.640625 C 3.171875 -9.859375 3.203125 -11.023438 3.265625 -12.140625 C 3.328125 -13.265625 3.414062 -14.410156 3.53125 -15.578125 C 3.65625 -16.742188 3.796875 -18.007812 3.953125 -19.375 Z M 2.40625 -13.34375 C 2.019531 -13.320312 1.722656 -13.4375 1.515625 -13.6875 C 1.304688 -13.9375 1.203125 -14.242188 1.203125 -14.609375 C 1.203125 -14.941406 1.304688 -15.226562 1.515625 -15.46875 C 1.722656 -15.707031 2.019531 -15.835938 2.40625 -15.859375 C 2.914062 -15.898438 3.457031 -15.9375 4.03125 -15.96875 C 4.601562 -16 5.195312 -16.019531 5.8125 -16.03125 C 6.4375 -16.039062 7.109375 -16.050781 7.828125 -16.0625 C 8.546875 -16.070312 9.316406 -16.078125 10.140625 -16.078125 C 10.472656 -16.078125 10.757812 -15.957031 11 -15.71875 C 11.238281 -15.476562 11.367188 -15.164062 11.390625 -14.78125 C 11.390625 -14.425781 11.257812 -14.128906 11 -13.890625 C 10.738281 -13.660156 10.453125 -13.546875 10.140625 -13.546875 C 9.296875 -13.546875 8.570312 -13.539062 7.96875 -13.53125 C 7.375 -13.519531 6.804688 -13.507812 6.265625 -13.5 C 5.722656 -13.5 5.148438 -13.484375 4.546875 -13.453125 C 3.953125 -13.421875 3.238281 -13.382812 2.40625 -13.34375 Z M 2.40625 -13.34375 "/></g></g></g><g fill="#ffffff" fill-opacity="1"><g transform="translate(126.962384, 50.666193)"><g><path d="M 8.453125 0 C 7.359375 0 6.378906 -0.21875 5.515625 -0.65625 C 4.660156 -1.09375 3.929688 -1.6875 3.328125 -2.4375 C 2.722656 -3.1875 2.265625 -4.023438 1.953125 -4.953125 C 1.648438 -5.890625 1.5 -6.835938 1.5 -7.796875 C 1.5 -8.816406 1.703125 -9.828125 2.109375 -10.828125 C 2.523438 -11.828125 3.097656 -12.742188 3.828125 -13.578125 C 4.554688 -14.421875 5.398438 -15.09375 6.359375 -15.59375 C 7.316406 -16.09375 8.34375 -16.34375 9.4375 -16.34375 C 10.300781 -16.34375 11.054688 -16.164062 11.703125 -15.8125 C 12.359375 -15.46875 12.867188 -14.992188 13.234375 -14.390625 C 13.609375 -13.796875 13.796875 -13.097656 13.796875 -12.296875 C 13.796875 -11.453125 13.582031 -10.65625 13.15625 -9.90625 C 12.738281 -9.15625 12.148438 -8.550781 11.390625 -8.09375 C 10.367188 -7.394531 9.253906 -6.910156 8.046875 -6.640625 C 6.835938 -6.367188 5.613281 -6.210938 4.375 -6.171875 C 4.539062 -5.597656 4.800781 -5.03125 5.15625 -4.46875 C 5.519531 -3.90625 5.984375 -3.4375 6.546875 -3.0625 C 7.117188 -2.695312 7.796875 -2.515625 8.578125 -2.515625 C 9.316406 -2.515625 10.03125 -2.726562 10.71875 -3.15625 C 11.40625 -3.59375 12 -4.085938 12.5 -4.640625 C 12.625 -4.804688 12.757812 -4.914062 12.90625 -4.96875 C 13.0625 -5.03125 13.207031 -5.0625 13.34375 -5.0625 C 13.582031 -5.0625 13.800781 -5 14 -4.875 C 14.195312 -4.757812 14.351562 -4.601562 14.46875 -4.40625 C 14.59375 -4.207031 14.65625 -3.988281 14.65625 -3.75 C 14.675781 -3.59375 14.65625 -3.4375 14.59375 -3.28125 C 14.539062 -3.132812 14.441406 -2.988281 14.296875 -2.84375 C 13.554688 -2.050781 12.691406 -1.378906 11.703125 -0.828125 C 10.710938 -0.273438 9.628906 0 8.453125 0 Z M 4.25 -8.640625 C 5.050781 -8.679688 5.789062 -8.742188 6.46875 -8.828125 C 7.15625 -8.921875 7.867188 -9.117188 8.609375 -9.421875 C 9.265625 -9.679688 9.84375 -10.054688 10.34375 -10.546875 C 10.84375 -11.035156 11.09375 -11.628906 11.09375 -12.328125 C 11.09375 -12.609375 11.023438 -12.863281 10.890625 -13.09375 C 10.765625 -13.320312 10.578125 -13.507812 10.328125 -13.65625 C 10.078125 -13.800781 9.753906 -13.875 9.359375 -13.875 C 8.710938 -13.875 8.097656 -13.710938 7.515625 -13.390625 C 6.941406 -13.078125 6.425781 -12.664062 5.96875 -12.15625 C 5.507812 -11.644531 5.132812 -11.078125 4.84375 -10.453125 C 4.550781 -9.835938 4.351562 -9.234375 4.25 -8.640625 Z M 4.25 -8.640625 "/></g></g></g><g fill="#ffffff" fill-opacity="1"><g transform="translate(142.732945, 50.666193)"><g><path d="M 12.265625 -14.125 C 12.398438 -13.957031 12.488281 -13.796875 12.53125 -13.640625 C 12.570312 -13.484375 12.59375 -13.332031 12.59375 -13.1875 C 12.59375 -12.945312 12.523438 -12.734375 12.390625 -12.546875 C 12.265625 -12.359375 12.101562 -12.207031 11.90625 -12.09375 C 11.707031 -11.988281 11.5 -11.9375 11.28125 -11.9375 C 11.070312 -11.9375 10.890625 -11.984375 10.734375 -12.078125 C 10.578125 -12.179688 10.425781 -12.300781 10.28125 -12.4375 C 10.082031 -12.738281 9.75 -13.039062 9.28125 -13.34375 C 8.8125 -13.644531 8.226562 -13.796875 7.53125 -13.796875 C 6.863281 -13.796875 6.289062 -13.632812 5.8125 -13.3125 C 5.332031 -12.988281 5.09375 -12.566406 5.09375 -12.046875 C 5.09375 -11.429688 5.296875 -10.960938 5.703125 -10.640625 C 6.117188 -10.328125 6.785156 -9.9375 7.703125 -9.46875 C 8.398438 -9.132812 9.070312 -8.734375 9.71875 -8.265625 C 10.375 -7.796875 10.914062 -7.222656 11.34375 -6.546875 C 11.78125 -5.878906 12 -5.078125 12 -4.140625 C 12 -3.335938 11.800781 -2.601562 11.40625 -1.9375 C 11.019531 -1.28125 10.472656 -0.753906 9.765625 -0.359375 C 9.054688 0.0351562 8.207031 0.234375 7.21875 0.234375 C 6.125 0.234375 5.035156 -0.0078125 3.953125 -0.5 C 2.878906 -0.988281 1.960938 -1.5625 1.203125 -2.21875 C 1.054688 -2.34375 0.953125 -2.476562 0.890625 -2.625 C 0.835938 -2.769531 0.8125 -2.914062 0.8125 -3.0625 C 0.8125 -3.414062 0.941406 -3.738281 1.203125 -4.03125 C 1.460938 -4.320312 1.757812 -4.46875 2.09375 -4.46875 C 2.195312 -4.46875 2.300781 -4.445312 2.40625 -4.40625 C 2.519531 -4.363281 2.644531 -4.296875 2.78125 -4.203125 C 3.425781 -3.703125 4.125 -3.25 4.875 -2.84375 C 5.625 -2.445312 6.335938 -2.25 7.015625 -2.25 C 7.773438 -2.25 8.328125 -2.421875 8.671875 -2.765625 C 9.023438 -3.117188 9.203125 -3.515625 9.203125 -3.953125 C 9.203125 -4.671875 8.925781 -5.296875 8.375 -5.828125 C 7.832031 -6.359375 7.117188 -6.816406 6.234375 -7.203125 C 5.316406 -7.617188 4.5625 -8.066406 3.96875 -8.546875 C 3.382812 -9.023438 2.957031 -9.546875 2.6875 -10.109375 C 2.414062 -10.679688 2.28125 -11.3125 2.28125 -12 C 2.28125 -12.832031 2.523438 -13.566406 3.015625 -14.203125 C 3.503906 -14.847656 4.144531 -15.347656 4.9375 -15.703125 C 5.738281 -16.066406 6.601562 -16.25 7.53125 -16.25 C 8.46875 -16.25 9.363281 -16.0625 10.21875 -15.6875 C 11.082031 -15.320312 11.765625 -14.800781 12.265625 -14.125 Z M 12.265625 -14.125 "/></g></g></g><g fill="#ffffff" fill-opacity="1"><g transform="translate(156.404769, 50.666193)"><g><path d="M 3.953125 -19.375 C 3.992188 -19.769531 4.140625 -20.066406 4.390625 -20.265625 C 4.640625 -20.460938 4.945312 -20.5625 5.3125 -20.5625 C 5.550781 -20.5625 5.785156 -20.515625 6.015625 -20.421875 C 6.242188 -20.335938 6.425781 -20.207031 6.5625 -20.03125 C 6.707031 -19.851562 6.757812 -19.625 6.71875 -19.34375 C 6.5625 -18.0625 6.425781 -16.828125 6.3125 -15.640625 C 6.195312 -14.460938 6.109375 -13.296875 6.046875 -12.140625 C 5.992188 -10.984375 5.96875 -9.785156 5.96875 -8.546875 C 5.988281 -7.023438 6.050781 -5.804688 6.15625 -4.890625 C 6.269531 -3.984375 6.40625 -3.332031 6.5625 -2.9375 C 6.726562 -2.539062 6.867188 -2.34375 6.984375 -2.34375 C 7.160156 -2.34375 7.390625 -2.457031 7.671875 -2.6875 C 7.953125 -2.914062 8.226562 -3.171875 8.5 -3.453125 C 8.769531 -3.742188 8.960938 -3.960938 9.078125 -4.109375 C 9.203125 -4.242188 9.335938 -4.335938 9.484375 -4.390625 C 9.640625 -4.441406 9.785156 -4.46875 9.921875 -4.46875 C 10.160156 -4.46875 10.378906 -4.40625 10.578125 -4.28125 C 10.785156 -4.164062 10.945312 -4.007812 11.0625 -3.8125 C 11.1875 -3.613281 11.25 -3.390625 11.25 -3.140625 C 11.25 -3.003906 11.210938 -2.851562 11.140625 -2.6875 C 11.066406 -2.53125 10.953125 -2.351562 10.796875 -2.15625 C 10.390625 -1.632812 9.953125 -1.191406 9.484375 -0.828125 C 9.015625 -0.472656 8.550781 -0.207031 8.09375 -0.03125 C 7.632812 0.144531 7.1875 0.234375 6.75 0.234375 C 5.96875 0.234375 5.300781 -0.046875 4.75 -0.609375 C 4.195312 -1.179688 3.8125 -2.078125 3.59375 -3.296875 C 3.457031 -4.179688 3.351562 -5.066406 3.28125 -5.953125 C 3.207031 -6.835938 3.171875 -7.734375 3.171875 -8.640625 C 3.171875 -9.859375 3.203125 -11.023438 3.265625 -12.140625 C 3.328125 -13.265625 3.414062 -14.410156 3.53125 -15.578125 C 3.65625 -16.742188 3.796875 -18.007812 3.953125 -19.375 Z M 2.40625 -13.34375 C 2.019531 -13.320312 1.722656 -13.4375 1.515625 -13.6875 C 1.304688 -13.9375 1.203125 -14.242188 1.203125 -14.609375 C 1.203125 -14.941406 1.304688 -15.226562 1.515625 -15.46875 C 1.722656 -15.707031 2.019531 -15.835938 2.40625 -15.859375 C 2.914062 -15.898438 3.457031 -15.9375 4.03125 -15.96875 C 4.601562 -16 5.195312 -16.019531 5.8125 -16.03125 C 6.4375 -16.039062 7.109375 -16.050781 7.828125 -16.0625 C 8.546875 -16.070312 9.316406 -16.078125 10.140625 -16.078125 C 10.472656 -16.078125 10.757812 -15.957031 11 -15.71875 C 11.238281 -15.476562 11.367188 -15.164062 11.390625 -14.78125 C 11.390625 -14.425781 11.257812 -14.128906 11 -13.890625 C 10.738281 -13.660156 10.453125 -13.546875 10.140625 -13.546875 C 9.296875 -13.546875 8.570312 -13.539062 7.96875 -13.53125 C 7.375 -13.519531 6.804688 -13.507812 6.265625 -13.5 C 5.722656 -13.5 5.148438 -13.484375 4.546875 -13.453125 C 3.953125 -13.421875 3.238281 -13.382812 2.40625 -13.34375 Z M 2.40625 -13.34375 "/></g></g></g><g fill="#ffffff" fill-opacity="1"><g transform="translate(63.750384, 92.641115)"><g><path d="M 16.765625 0.453125 C 16.460938 0.453125 16.203125 0.375 15.984375 0.21875 C 15.765625 0.0703125 15.601562 -0.160156 15.5 -0.484375 C 15.21875 -1.378906 14.921875 -2.285156 14.609375 -3.203125 C 14.304688 -4.128906 13.988281 -5.046875 13.65625 -5.953125 C 13.320312 -6.859375 12.992188 -7.773438 12.671875 -8.703125 C 12.359375 -9.640625 12.0625 -10.566406 11.78125 -11.484375 C 10.957031 -9.546875 10.269531 -7.890625 9.71875 -6.515625 C 9.175781 -5.148438 8.722656 -3.992188 8.359375 -3.046875 C 8.003906 -2.097656 7.695312 -1.265625 7.4375 -0.546875 C 7.351562 -0.335938 7.238281 -0.160156 7.09375 -0.015625 C 6.957031 0.117188 6.800781 0.210938 6.625 0.265625 C 6.445312 0.328125 6.269531 0.359375 6.09375 0.359375 C 5.789062 0.359375 5.507812 0.273438 5.25 0.109375 C 4.988281 -0.046875 4.835938 -0.28125 4.796875 -0.59375 C 4.554688 -2.21875 4.207031 -3.800781 3.75 -5.34375 C 3.289062 -6.894531 2.816406 -8.441406 2.328125 -9.984375 C 1.835938 -11.523438 1.421875 -13.066406 1.078125 -14.609375 C 1.054688 -14.765625 1.035156 -14.882812 1.015625 -14.96875 C 0.992188 -15.0625 0.984375 -15.179688 0.984375 -15.328125 C 0.984375 -15.597656 1.128906 -15.835938 1.421875 -16.046875 C 1.710938 -16.265625 2.046875 -16.375 2.421875 -16.375 C 2.703125 -16.375 2.957031 -16.296875 3.1875 -16.140625 C 3.414062 -15.992188 3.570312 -15.769531 3.65625 -15.46875 C 3.851562 -14.59375 4.066406 -13.722656 4.296875 -12.859375 C 4.523438 -12.003906 4.757812 -11.144531 5 -10.28125 C 5.25 -9.425781 5.492188 -8.546875 5.734375 -7.640625 C 5.984375 -6.742188 6.234375 -5.816406 6.484375 -4.859375 C 6.972656 -6.097656 7.445312 -7.289062 7.90625 -8.4375 C 8.375 -9.59375 8.835938 -10.722656 9.296875 -11.828125 C 9.753906 -12.941406 10.203125 -14.035156 10.640625 -15.109375 C 10.660156 -15.390625 10.734375 -15.632812 10.859375 -15.84375 C 10.992188 -16.050781 11.175781 -16.210938 11.40625 -16.328125 C 11.632812 -16.453125 11.898438 -16.515625 12.203125 -16.515625 C 12.460938 -16.515625 12.707031 -16.445312 12.9375 -16.3125 C 13.164062 -16.175781 13.320312 -15.9375 13.40625 -15.59375 C 13.5625 -15.050781 13.695312 -14.507812 13.8125 -13.96875 C 13.9375 -13.425781 14.082031 -12.890625 14.25 -12.359375 C 14.425781 -11.753906 14.601562 -11.148438 14.78125 -10.546875 C 14.957031 -9.953125 15.144531 -9.347656 15.34375 -8.734375 C 15.550781 -8.128906 15.757812 -7.515625 15.96875 -6.890625 C 16.175781 -6.273438 16.378906 -5.644531 16.578125 -5 C 16.921875 -6.28125 17.289062 -7.507812 17.6875 -8.6875 C 18.09375 -9.875 18.507812 -11.035156 18.9375 -12.171875 C 19.363281 -13.304688 19.773438 -14.445312 20.171875 -15.59375 C 20.273438 -15.914062 20.4375 -16.144531 20.65625 -16.28125 C 20.875 -16.414062 21.125 -16.484375 21.40625 -16.484375 C 21.789062 -16.484375 22.113281 -16.375 22.375 -16.15625 C 22.644531 -15.9375 22.78125 -15.648438 22.78125 -15.296875 C 22.78125 -15.210938 22.765625 -15.125 22.734375 -15.03125 C 22.710938 -14.945312 22.679688 -14.84375 22.640625 -14.71875 C 22.097656 -13.175781 21.53125 -11.644531 20.9375 -10.125 C 20.351562 -8.613281 19.816406 -7.085938 19.328125 -5.546875 C 18.835938 -4.003906 18.460938 -2.4375 18.203125 -0.84375 C 18.140625 -0.4375 17.984375 -0.117188 17.734375 0.109375 C 17.484375 0.335938 17.160156 0.453125 16.765625 0.453125 Z M 16.765625 0.453125 "/></g></g></g><g fill="#ffffff" fill-opacity="1"><g transform="translate(86.566731, 92.641115)"><g><path d="M 8.71875 -16.375 C 9.1875 -16.375 9.648438 -16.328125 10.109375 -16.234375 C 10.566406 -16.148438 10.992188 -16.019531 11.390625 -15.84375 C 11.796875 -15.675781 12.132812 -15.460938 12.40625 -15.203125 C 13.332031 -14.460938 14.007812 -13.5 14.4375 -12.3125 C 14.863281 -11.132812 15.078125 -9.898438 15.078125 -8.609375 C 15.078125 -7.503906 14.9375 -6.4375 14.65625 -5.40625 C 14.382812 -4.382812 13.976562 -3.457031 13.4375 -2.625 C 12.894531 -1.789062 12.234375 -1.128906 11.453125 -0.640625 C 10.671875 -0.148438 9.78125 0.09375 8.78125 0.09375 C 7.757812 0.09375 6.8125 -0.125 5.9375 -0.5625 C 5.070312 -1.007812 4.3125 -1.613281 3.65625 -2.375 C 3 -3.132812 2.488281 -4.007812 2.125 -5 C 1.769531 -5.988281 1.59375 -7.03125 1.59375 -8.125 C 1.59375 -9.164062 1.742188 -10.175781 2.046875 -11.15625 C 2.359375 -12.132812 2.816406 -13.019531 3.421875 -13.8125 C 4.035156 -14.601562 4.785156 -15.226562 5.671875 -15.6875 C 6.566406 -16.144531 7.582031 -16.375 8.71875 -16.375 Z M 4.34375 -8.328125 C 4.34375 -7.335938 4.515625 -6.394531 4.859375 -5.5 C 5.203125 -4.613281 5.695312 -3.894531 6.34375 -3.34375 C 6.988281 -2.789062 7.773438 -2.515625 8.703125 -2.515625 C 9.335938 -2.515625 9.882812 -2.6875 10.34375 -3.03125 C 10.800781 -3.382812 11.179688 -3.859375 11.484375 -4.453125 C 11.785156 -5.046875 12.003906 -5.691406 12.140625 -6.390625 C 12.285156 -7.085938 12.359375 -7.773438 12.359375 -8.453125 C 12.359375 -9.671875 12.160156 -10.703125 11.765625 -11.546875 C 11.378906 -12.398438 10.851562 -13.054688 10.1875 -13.515625 C 9.9375 -13.597656 9.6875 -13.65625 9.4375 -13.6875 C 9.1875 -13.71875 8.929688 -13.734375 8.671875 -13.734375 C 7.984375 -13.734375 7.367188 -13.585938 6.828125 -13.296875 C 6.296875 -13.003906 5.84375 -12.601562 5.46875 -12.09375 C 5.101562 -11.582031 4.820312 -11.007812 4.625 -10.375 C 4.4375 -9.738281 4.34375 -9.054688 4.34375 -8.328125 Z M 4.34375 -8.328125 "/></g></g></g><g fill="#ffffff" fill-opacity="1"><g transform="translate(103.206776, 92.641115)"><g><path d="M 2.96875 -15.078125 C 2.988281 -15.503906 3.140625 -15.820312 3.421875 -16.03125 C 3.703125 -16.238281 4.03125 -16.34375 4.40625 -16.34375 C 4.769531 -16.34375 5.082031 -16.242188 5.34375 -16.046875 C 5.601562 -15.859375 5.734375 -15.566406 5.734375 -15.171875 C 5.734375 -15.054688 5.734375 -14.898438 5.734375 -14.703125 C 5.734375 -14.515625 5.726562 -14.304688 5.71875 -14.078125 C 5.707031 -13.847656 5.679688 -13.59375 5.640625 -13.3125 C 6.210938 -14.3125 6.875 -15.054688 7.625 -15.546875 C 8.375 -16.035156 9.210938 -16.28125 10.140625 -16.28125 C 10.597656 -16.28125 11.085938 -16.210938 11.609375 -16.078125 C 12.140625 -15.953125 12.6875 -15.71875 13.25 -15.375 C 13.488281 -15.238281 13.65625 -15.070312 13.75 -14.875 C 13.851562 -14.675781 13.894531 -14.4375 13.875 -14.15625 C 13.863281 -13.71875 13.734375 -13.378906 13.484375 -13.140625 C 13.234375 -12.910156 12.925781 -12.796875 12.5625 -12.796875 C 12.363281 -12.796875 12.175781 -12.835938 12 -12.921875 C 11.832031 -13.003906 11.671875 -13.09375 11.515625 -13.1875 C 11.316406 -13.3125 11.101562 -13.425781 10.875 -13.53125 C 10.65625 -13.644531 10.378906 -13.703125 10.046875 -13.703125 C 8.867188 -13.703125 7.921875 -13.113281 7.203125 -11.9375 C 6.492188 -10.769531 5.910156 -9.269531 5.453125 -7.4375 C 5.429688 -6.757812 5.414062 -6.125 5.40625 -5.53125 C 5.394531 -4.9375 5.378906 -4.367188 5.359375 -3.828125 C 5.347656 -3.296875 5.335938 -2.78125 5.328125 -2.28125 C 5.316406 -1.78125 5.3125 -1.289062 5.3125 -0.8125 C 5.3125 -0.550781 5.242188 -0.328125 5.109375 -0.140625 C 4.984375 0.0351562 4.8125 0.164062 4.59375 0.25 C 4.382812 0.34375 4.160156 0.390625 3.921875 0.390625 C 3.484375 0.390625 3.15625 0.257812 2.9375 0 C 2.71875 -0.257812 2.566406 -0.601562 2.484375 -1.03125 C 2.410156 -1.457031 2.375 -1.921875 2.375 -2.421875 C 2.375 -2.828125 2.382812 -3.328125 2.40625 -3.921875 C 2.4375 -4.523438 2.476562 -5.125 2.53125 -5.71875 C 2.582031 -6.320312 2.640625 -6.820312 2.703125 -7.21875 Z M 2.96875 -15.078125 "/></g></g></g><g fill="#ffffff" fill-opacity="1"><g transform="translate(116.968531, 92.641115)"><g><path d="M 3.75 -23.421875 C 3.789062 -23.796875 3.941406 -24.09375 4.203125 -24.3125 C 4.460938 -24.53125 4.78125 -24.640625 5.15625 -24.640625 C 5.65625 -24.640625 5.988281 -24.484375 6.15625 -24.171875 C 6.332031 -23.867188 6.421875 -23.476562 6.421875 -23 C 6.421875 -22.519531 6.351562 -21.710938 6.21875 -20.578125 C 6.09375 -19.453125 5.953125 -17.992188 5.796875 -16.203125 C 5.648438 -14.410156 5.535156 -12.285156 5.453125 -9.828125 C 5.472656 -9.847656 5.675781 -10.007812 6.0625 -10.3125 C 6.457031 -10.613281 6.953125 -11.003906 7.546875 -11.484375 C 8.148438 -11.960938 8.796875 -12.476562 9.484375 -13.03125 C 10.179688 -13.582031 10.859375 -14.117188 11.515625 -14.640625 C 12.171875 -15.171875 12.738281 -15.628906 13.21875 -16.015625 C 13.382812 -16.128906 13.546875 -16.222656 13.703125 -16.296875 C 13.859375 -16.367188 14.019531 -16.40625 14.1875 -16.40625 C 14.382812 -16.40625 14.5625 -16.375 14.71875 -16.3125 C 14.882812 -16.25 15.019531 -16.160156 15.125 -16.046875 C 15.238281 -15.941406 15.320312 -15.8125 15.375 -15.65625 C 15.4375 -15.507812 15.46875 -15.347656 15.46875 -15.171875 C 15.46875 -14.972656 15.4375 -14.78125 15.375 -14.59375 C 15.320312 -14.414062 15.210938 -14.269531 15.046875 -14.15625 C 14.753906 -13.914062 14.363281 -13.609375 13.875 -13.234375 C 13.382812 -12.867188 12.847656 -12.457031 12.265625 -12 C 11.679688 -11.550781 11.09375 -11.097656 10.5 -10.640625 C 9.914062 -10.179688 9.367188 -9.757812 8.859375 -9.375 C 8.347656 -9 7.925781 -8.679688 7.59375 -8.421875 C 7.90625 -8.023438 8.285156 -7.5 8.734375 -6.84375 C 9.191406 -6.195312 9.640625 -5.566406 10.078125 -4.953125 C 10.410156 -4.484375 10.757812 -4.050781 11.125 -3.65625 C 11.5 -3.257812 11.863281 -2.945312 12.21875 -2.71875 C 12.582031 -2.488281 12.9375 -2.375 13.28125 -2.375 C 13.601562 -2.375 13.925781 -2.53125 14.25 -2.84375 C 14.582031 -3.164062 14.867188 -3.457031 15.109375 -3.71875 C 15.273438 -3.914062 15.441406 -4.070312 15.609375 -4.1875 C 15.773438 -4.3125 15.957031 -4.375 16.15625 -4.375 C 16.375 -4.375 16.582031 -4.320312 16.78125 -4.21875 C 16.988281 -4.125 17.15625 -3.984375 17.28125 -3.796875 C 17.414062 -3.617188 17.484375 -3.398438 17.484375 -3.140625 C 17.484375 -2.898438 17.40625 -2.65625 17.25 -2.40625 C 17.101562 -2.15625 16.910156 -1.90625 16.671875 -1.65625 C 16.390625 -1.332031 16.046875 -1.023438 15.640625 -0.734375 C 15.242188 -0.441406 14.828125 -0.207031 14.390625 -0.03125 C 13.953125 0.144531 13.523438 0.234375 13.109375 0.234375 C 12.390625 0.234375 11.710938 0.046875 11.078125 -0.328125 C 10.453125 -0.710938 9.867188 -1.203125 9.328125 -1.796875 C 8.785156 -2.398438 8.265625 -3.03125 7.765625 -3.6875 C 7.285156 -4.382812 6.847656 -5.023438 6.453125 -5.609375 C 6.066406 -6.203125 5.707031 -6.691406 5.375 -7.078125 C 5.351562 -6.015625 5.320312 -4.976562 5.28125 -3.96875 C 5.238281 -2.957031 5.195312 -1.941406 5.15625 -0.921875 C 5.15625 -0.503906 5.019531 -0.195312 4.75 0 C 4.476562 0.195312 4.164062 0.296875 3.8125 0.296875 C 3.425781 0.296875 3.097656 0.195312 2.828125 0 C 2.554688 -0.195312 2.421875 -0.503906 2.421875 -0.921875 C 2.566406 -4.703125 2.738281 -8.488281 2.9375 -12.28125 C 3.132812 -16.082031 3.40625 -19.796875 3.75 -23.421875 Z M 3.75 -23.421875 "/></g></g></g></svg>