<svg xmlns="http://www.w3.org/2000/svg" xmlns:xlink="http://www.w3.org/1999/xlink" width="273" zoomAndPan="magnify" viewBox="0 0 204.75 119.999999" height="160" preserveAspectRatio="xMidYMid meet" version="1.0"><defs><g/><clipPath id="8d394bb23a"><path d="M 23 23 L 204 23 L 204 119.179688 L 23 119.179688 Z M 23 23 " clip-rule="nonzero"/></clipPath><clipPath id="c5129ac8ab"><path d="M 13.875 14 L 195 14 L 195 110 L 13.875 110 Z M 13.875 14 " clip-rule="nonzero"/></clipPath><clipPath id="8dc1261411"><path d="M 22 0.0742188 L 54 0.0742188 L 54 32 L 22 32 Z M 22 0.0742188 " clip-rule="nonzero"/></clipPath></defs><g clip-path="url(#8d394bb23a)"><path fill="#1c3872" d="M 203.777344 31.195312 L 203.777344 111.453125 C 203.777344 111.960938 203.726562 112.46875 203.628906 112.964844 C 203.53125 113.464844 203.382812 113.953125 203.1875 114.421875 C 202.992188 114.894531 202.753906 115.339844 202.46875 115.765625 C 202.1875 116.1875 201.863281 116.582031 201.503906 116.941406 C 201.144531 117.300781 200.753906 117.625 200.328125 117.90625 C 199.90625 118.191406 199.457031 118.429688 198.984375 118.625 C 198.515625 118.820312 198.03125 118.964844 197.53125 119.066406 C 197.03125 119.164062 196.527344 119.214844 196.015625 119.214844 L 31.042969 119.214844 C 30.53125 119.214844 30.027344 119.164062 29.527344 119.066406 C 29.027344 118.964844 28.542969 118.820312 28.070312 118.625 C 27.601562 118.429688 27.152344 118.191406 26.730469 117.90625 C 26.304688 117.625 25.914062 117.300781 25.554688 116.941406 C 25.195312 116.582031 24.871094 116.1875 24.589844 115.765625 C 24.304688 115.339844 24.066406 114.894531 23.871094 114.421875 C 23.675781 113.953125 23.527344 113.464844 23.429688 112.964844 C 23.332031 112.46875 23.28125 111.960938 23.28125 111.453125 L 23.28125 31.195312 C 23.28125 30.6875 23.332031 30.183594 23.429688 29.683594 C 23.527344 29.183594 23.675781 28.695312 23.871094 28.226562 C 24.066406 27.753906 24.304688 27.308594 24.589844 26.882812 C 24.871094 26.460938 25.195312 26.066406 25.554688 25.707031 C 25.914062 25.347656 26.304688 25.027344 26.730469 24.742188 C 27.152344 24.460938 27.601562 24.21875 28.070312 24.023438 C 28.542969 23.828125 29.027344 23.683594 29.527344 23.582031 C 30.027344 23.484375 30.53125 23.433594 31.042969 23.433594 L 196.015625 23.433594 C 196.527344 23.433594 197.03125 23.484375 197.53125 23.582031 C 198.03125 23.683594 198.515625 23.828125 198.984375 24.023438 C 199.457031 24.21875 199.90625 24.460938 200.328125 24.742188 C 200.753906 25.027344 201.144531 25.347656 201.503906 25.707031 C 201.863281 26.066406 202.1875 26.460938 202.46875 26.882812 C 202.753906 27.308594 202.992188 27.753906 203.1875 28.226562 C 203.382812 28.695312 203.53125 29.183594 203.628906 29.683594 C 203.726562 30.183594 203.777344 30.6875 203.777344 31.195312 Z M 203.777344 31.195312 " fill-opacity="1" fill-rule="nonzero"/></g><path fill="#000000" d="M 202.492188 31.21875 L 202.492188 111.429688 C 202.492188 111.859375 202.449219 112.28125 202.367188 112.699219 C 202.28125 113.117188 202.160156 113.523438 201.996094 113.917969 C 201.832031 114.3125 201.632812 114.683594 201.394531 115.039062 C 201.160156 115.394531 200.890625 115.722656 200.585938 116.023438 C 200.285156 116.324219 199.957031 116.59375 199.601562 116.832031 C 199.25 117.070312 198.875 117.269531 198.480469 117.433594 C 198.085938 117.597656 197.679688 117.71875 197.261719 117.800781 C 196.84375 117.886719 196.421875 117.925781 195.996094 117.925781 L 31.066406 117.925781 C 30.636719 117.925781 30.214844 117.886719 29.796875 117.800781 C 29.378906 117.71875 28.972656 117.597656 28.578125 117.433594 C 28.183594 117.269531 27.808594 117.070312 27.457031 116.832031 C 27.101562 116.59375 26.773438 116.324219 26.472656 116.023438 C 26.167969 115.722656 25.898438 115.394531 25.664062 115.039062 C 25.425781 114.683594 25.226562 114.3125 25.0625 113.917969 C 24.898438 113.523438 24.777344 113.117188 24.695312 112.699219 C 24.609375 112.28125 24.570312 111.859375 24.570312 111.429688 L 24.570312 31.21875 C 24.570312 30.792969 24.609375 30.371094 24.695312 29.949219 C 24.777344 29.53125 24.898438 29.125 25.0625 28.734375 C 25.226562 28.339844 25.425781 27.964844 25.664062 27.609375 C 25.898438 27.253906 26.167969 26.925781 26.472656 26.625 C 26.773438 26.324219 27.101562 26.054688 27.457031 25.816406 C 27.808594 25.582031 28.183594 25.378906 28.578125 25.21875 C 28.972656 25.054688 29.378906 24.929688 29.796875 24.847656 C 30.214844 24.765625 30.636719 24.722656 31.066406 24.722656 L 195.996094 24.722656 C 196.421875 24.722656 196.84375 24.765625 197.261719 24.847656 C 197.679688 24.929688 198.085938 25.054688 198.480469 25.21875 C 198.875 25.378906 199.25 25.582031 199.601562 25.816406 C 199.957031 26.054688 200.285156 26.324219 200.585938 26.625 C 200.890625 26.925781 201.160156 27.253906 201.394531 27.609375 C 201.632812 27.964844 201.832031 28.339844 201.996094 28.734375 C 202.160156 29.125 202.28125 29.53125 202.367188 29.949219 C 202.449219 30.371094 202.492188 30.792969 202.492188 31.21875 Z M 202.492188 31.21875 " fill-opacity="1" fill-rule="nonzero"/><path fill="#537cd1" d="M 31.085938 26.011719 L 195.972656 26.011719 C 196.316406 26.011719 196.65625 26.042969 196.992188 26.109375 C 197.328125 26.175781 197.65625 26.277344 197.972656 26.40625 C 198.289062 26.539062 198.59375 26.699219 198.878906 26.890625 C 199.164062 27.082031 199.425781 27.300781 199.671875 27.542969 C 199.914062 27.785156 200.128906 28.046875 200.320312 28.335938 C 200.511719 28.621094 200.671875 28.921875 200.804688 29.238281 C 200.933594 29.554688 201.035156 29.882812 201.101562 30.21875 C 201.167969 30.554688 201.203125 30.894531 201.203125 31.238281 L 201.203125 111.410156 C 201.203125 111.753906 201.167969 112.09375 201.101562 112.429688 C 201.035156 112.765625 200.933594 113.09375 200.804688 113.410156 C 200.671875 113.726562 200.511719 114.027344 200.320312 114.3125 C 200.128906 114.601562 199.914062 114.863281 199.671875 115.105469 C 199.425781 115.351562 199.164062 115.566406 198.878906 115.757812 C 198.59375 115.949219 198.289062 116.109375 197.972656 116.242188 C 197.65625 116.371094 197.328125 116.472656 196.992188 116.539062 C 196.65625 116.605469 196.316406 116.640625 195.972656 116.640625 L 31.085938 116.640625 C 30.742188 116.640625 30.402344 116.605469 30.066406 116.539062 C 29.730469 116.472656 29.402344 116.371094 29.085938 116.242188 C 28.765625 116.109375 28.464844 115.949219 28.179688 115.757812 C 27.894531 115.566406 27.628906 115.351562 27.386719 115.105469 C 27.144531 114.863281 26.929688 114.601562 26.738281 114.3125 C 26.546875 114.027344 26.386719 113.726562 26.253906 113.410156 C 26.121094 113.09375 26.023438 112.765625 25.957031 112.429688 C 25.890625 112.09375 25.855469 111.753906 25.855469 111.410156 L 25.855469 31.238281 C 25.855469 30.894531 25.890625 30.554688 25.957031 30.21875 C 26.023438 29.882812 26.121094 29.554688 26.253906 29.238281 C 26.386719 28.921875 26.546875 28.621094 26.738281 28.335938 C 26.929688 28.046875 27.144531 27.785156 27.386719 27.542969 C 27.628906 27.300781 27.894531 27.082031 28.179688 26.890625 C 28.464844 26.699219 28.765625 26.539062 29.085938 26.40625 C 29.402344 26.277344 29.730469 26.175781 30.066406 26.109375 C 30.402344 26.042969 30.742188 26.011719 31.085938 26.011719 Z M 31.085938 26.011719 " fill-opacity="1" fill-rule="nonzero"/><g clip-path="url(#c5129ac8ab)"><path fill="#1c3872" d="M 194.371094 21.789062 L 194.371094 102.046875 C 194.371094 102.554688 194.320312 103.058594 194.222656 103.558594 C 194.121094 104.058594 193.976562 104.546875 193.78125 105.015625 C 193.585938 105.488281 193.347656 105.933594 193.0625 106.359375 C 192.78125 106.78125 192.457031 107.175781 192.097656 107.535156 C 191.738281 107.894531 191.34375 108.214844 190.921875 108.5 C 190.496094 108.78125 190.050781 109.023438 189.578125 109.21875 C 189.109375 109.414062 188.625 109.558594 188.125 109.660156 C 187.625 109.757812 187.117188 109.808594 186.609375 109.808594 L 21.636719 109.808594 C 21.125 109.808594 20.621094 109.757812 20.121094 109.660156 C 19.621094 109.558594 19.136719 109.414062 18.664062 109.21875 C 18.195312 109.023438 17.746094 108.78125 17.324219 108.5 C 16.898438 108.214844 16.507812 107.894531 16.148438 107.535156 C 15.785156 107.175781 15.464844 106.78125 15.183594 106.359375 C 14.898438 105.933594 14.660156 105.488281 14.464844 105.015625 C 14.269531 104.546875 14.121094 104.058594 14.023438 103.558594 C 13.921875 103.058594 13.875 102.554688 13.875 102.046875 L 13.875 21.789062 C 13.875 21.28125 13.921875 20.773438 14.023438 20.273438 C 14.121094 19.777344 14.269531 19.289062 14.464844 18.820312 C 14.660156 18.347656 14.898438 17.902344 15.183594 17.476562 C 15.464844 17.054688 15.785156 16.660156 16.148438 16.300781 C 16.507812 15.941406 16.898438 15.617188 17.324219 15.335938 C 17.746094 15.050781 18.195312 14.8125 18.664062 14.617188 C 19.136719 14.421875 19.621094 14.277344 20.121094 14.175781 C 20.621094 14.078125 21.125 14.027344 21.636719 14.027344 L 186.609375 14.027344 C 187.117188 14.027344 187.625 14.078125 188.125 14.175781 C 188.625 14.277344 189.109375 14.421875 189.578125 14.617188 C 190.050781 14.8125 190.496094 15.050781 190.921875 15.335938 C 191.34375 15.617188 191.738281 15.941406 192.097656 16.300781 C 192.457031 16.660156 192.78125 17.054688 193.0625 17.476562 C 193.347656 17.902344 193.585938 18.347656 193.78125 18.820312 C 193.976562 19.289062 194.121094 19.777344 194.222656 20.273438 C 194.320312 20.773438 194.371094 21.28125 194.371094 21.789062 Z M 194.371094 21.789062 " fill-opacity="1" fill-rule="nonzero"/></g><path fill="#000000" d="M 193.082031 21.8125 L 193.082031 102.023438 C 193.082031 102.449219 193.042969 102.871094 192.957031 103.292969 C 192.875 103.710938 192.75 104.117188 192.589844 104.507812 C 192.425781 104.902344 192.226562 105.277344 191.988281 105.632812 C 191.75 105.988281 191.480469 106.316406 191.179688 106.617188 C 190.878906 106.917969 190.550781 107.1875 190.195312 107.425781 C 189.839844 107.660156 189.46875 107.863281 189.074219 108.023438 C 188.679688 108.1875 188.273438 108.3125 187.855469 108.394531 C 187.4375 108.476562 187.011719 108.519531 186.585938 108.519531 L 21.65625 108.519531 C 21.230469 108.519531 20.808594 108.476562 20.390625 108.394531 C 19.972656 108.3125 19.566406 108.1875 19.171875 108.023438 C 18.777344 107.863281 18.402344 107.660156 18.046875 107.425781 C 17.695312 107.1875 17.367188 106.917969 17.0625 106.617188 C 16.761719 106.316406 16.492188 105.988281 16.257812 105.632812 C 16.019531 105.277344 15.820312 104.902344 15.65625 104.507812 C 15.492188 104.117188 15.371094 103.710938 15.285156 103.292969 C 15.203125 102.871094 15.160156 102.449219 15.160156 102.023438 L 15.160156 21.8125 C 15.160156 21.382812 15.203125 20.960938 15.285156 20.542969 C 15.371094 20.125 15.492188 19.71875 15.65625 19.324219 C 15.820312 18.929688 16.019531 18.558594 16.257812 18.203125 C 16.492188 17.847656 16.761719 17.519531 17.0625 17.21875 C 17.367188 16.917969 17.695312 16.648438 18.046875 16.410156 C 18.402344 16.171875 18.777344 15.972656 19.171875 15.808594 C 19.566406 15.644531 19.972656 15.523438 20.390625 15.441406 C 20.808594 15.355469 21.230469 15.316406 21.65625 15.316406 L 186.585938 15.316406 C 187.011719 15.316406 187.4375 15.355469 187.855469 15.441406 C 188.273438 15.523438 188.679688 15.644531 189.074219 15.808594 C 189.46875 15.972656 189.839844 16.171875 190.195312 16.410156 C 190.550781 16.648438 190.878906 16.917969 191.179688 17.21875 C 191.480469 17.519531 191.75 17.847656 191.988281 18.203125 C 192.226562 18.558594 192.425781 18.929688 192.589844 19.324219 C 192.75 19.71875 192.875 20.125 192.957031 20.542969 C 193.042969 20.960938 193.082031 21.382812 193.082031 21.8125 Z M 193.082031 21.8125 " fill-opacity="1" fill-rule="nonzero"/><path fill="#1c3872" d="M 21.679688 16.601562 L 186.566406 16.601562 C 186.910156 16.601562 187.25 16.636719 187.585938 16.703125 C 187.921875 16.769531 188.25 16.871094 188.566406 17 C 188.882812 17.132812 189.183594 17.292969 189.46875 17.484375 C 189.757812 17.675781 190.019531 17.890625 190.261719 18.136719 C 190.507812 18.378906 190.722656 18.640625 190.914062 18.925781 C 191.105469 19.214844 191.265625 19.515625 191.398438 19.832031 C 191.527344 20.148438 191.628906 20.476562 191.695312 20.8125 C 191.761719 21.148438 191.792969 21.488281 191.796875 21.832031 L 191.796875 102.003906 C 191.792969 102.34375 191.761719 102.6875 191.695312 103.023438 C 191.628906 103.359375 191.527344 103.6875 191.398438 104.003906 C 191.265625 104.320312 191.105469 104.621094 190.914062 104.90625 C 190.722656 105.195312 190.507812 105.457031 190.261719 105.699219 C 190.019531 105.941406 189.757812 106.160156 189.46875 106.351562 C 189.183594 106.542969 188.882812 106.703125 188.566406 106.835938 C 188.25 106.964844 187.921875 107.066406 187.585938 107.132812 C 187.25 107.199219 186.910156 107.230469 186.566406 107.230469 L 21.679688 107.230469 C 21.335938 107.230469 20.996094 107.199219 20.660156 107.132812 C 20.320312 107.066406 19.996094 106.964844 19.675781 106.835938 C 19.359375 106.703125 19.058594 106.542969 18.773438 106.351562 C 18.488281 106.160156 18.222656 105.941406 17.980469 105.699219 C 17.738281 105.457031 17.519531 105.195312 17.332031 104.90625 C 17.140625 104.621094 16.976562 104.320312 16.847656 104.003906 C 16.714844 103.6875 16.617188 103.359375 16.550781 103.023438 C 16.480469 102.6875 16.449219 102.34375 16.449219 102.003906 L 16.449219 21.832031 C 16.449219 21.488281 16.480469 21.148438 16.550781 20.8125 C 16.617188 20.476562 16.714844 20.148438 16.847656 19.832031 C 16.976562 19.515625 17.140625 19.214844 17.332031 18.925781 C 17.519531 18.640625 17.738281 18.378906 17.980469 18.136719 C 18.222656 17.890625 18.488281 17.675781 18.773438 17.484375 C 19.058594 17.292969 19.359375 17.132812 19.675781 17 C 19.996094 16.871094 20.320312 16.769531 20.660156 16.703125 C 20.996094 16.636719 21.335938 16.601562 21.679688 16.601562 Z M 21.679688 16.601562 " fill-opacity="1" fill-rule="nonzero"/><g clip-path="url(#8dc1261411)"><path fill="#1c3872" d="M 38.339844 31.613281 C 38.054688 31.613281 37.777344 31.570312 37.507812 31.480469 C 37.238281 31.390625 36.988281 31.261719 36.761719 31.09375 C 36.53125 30.921875 36.335938 30.722656 36.171875 30.488281 C 36.011719 30.253906 35.890625 30.003906 35.808594 29.730469 C 34.015625 23.765625 30.390625 20.054688 24.71875 18.390625 C 24.445312 18.308594 24.191406 18.1875 23.957031 18.023438 C 23.722656 17.863281 23.519531 17.664062 23.347656 17.4375 C 23.175781 17.207031 23.046875 16.960938 22.957031 16.6875 C 22.863281 16.417969 22.820312 16.140625 22.820312 15.851562 C 22.820312 15.566406 22.863281 15.289062 22.957031 15.019531 C 23.046875 14.746094 23.175781 14.5 23.347656 14.269531 C 23.519531 14.042969 23.722656 13.84375 23.957031 13.683594 C 24.191406 13.519531 24.445312 13.398438 24.71875 13.316406 C 30.390625 11.652344 34.015625 7.941406 35.808594 1.976562 C 35.890625 1.707031 36.011719 1.453125 36.175781 1.21875 C 36.339844 0.988281 36.535156 0.785156 36.761719 0.617188 C 36.988281 0.445312 37.238281 0.316406 37.507812 0.226562 C 37.777344 0.136719 38.054688 0.09375 38.339844 0.09375 C 38.625 0.09375 38.902344 0.136719 39.171875 0.226562 C 39.441406 0.316406 39.691406 0.445312 39.917969 0.617188 C 40.144531 0.785156 40.339844 0.988281 40.503906 1.21875 C 40.667969 1.453125 40.789062 1.707031 40.871094 1.976562 C 42.664062 7.941406 46.292969 11.652344 51.960938 13.316406 C 52.234375 13.398438 52.492188 13.519531 52.726562 13.683594 C 52.960938 13.84375 53.164062 14.042969 53.332031 14.269531 C 53.503906 14.5 53.636719 14.746094 53.726562 15.019531 C 53.816406 15.289062 53.859375 15.566406 53.859375 15.851562 C 53.859375 16.140625 53.816406 16.417969 53.726562 16.6875 C 53.636719 16.960938 53.503906 17.207031 53.332031 17.4375 C 53.164062 17.664062 52.960938 17.863281 52.726562 18.023438 C 52.492188 18.1875 52.234375 18.308594 51.960938 18.390625 C 46.289062 20.054688 42.664062 23.761719 40.871094 29.730469 C 40.792969 30.003906 40.667969 30.253906 40.507812 30.488281 C 40.34375 30.722656 40.148438 30.921875 39.921875 31.09375 C 39.691406 31.261719 39.441406 31.390625 39.171875 31.480469 C 38.902344 31.570312 38.625 31.613281 38.339844 31.613281 Z M 38.339844 31.613281 " fill-opacity="1" fill-rule="nonzero"/></g><path fill="#000000" d="M 38.339844 30.324219 C 38.039062 30.324219 37.769531 30.238281 37.53125 30.058594 C 37.289062 29.878906 37.128906 29.644531 37.042969 29.359375 C 35.117188 22.945312 31.203125 18.953125 25.082031 17.152344 C 24.792969 17.070312 24.558594 16.90625 24.378906 16.664062 C 24.199219 16.425781 24.109375 16.152344 24.109375 15.851562 C 24.109375 15.554688 24.199219 15.28125 24.378906 15.042969 C 24.558594 14.800781 24.792969 14.636719 25.082031 14.554688 C 31.203125 12.753906 35.117188 8.761719 37.042969 2.347656 C 37.125 2.058594 37.289062 1.828125 37.53125 1.648438 C 37.769531 1.46875 38.039062 1.382812 38.339844 1.382812 C 38.640625 1.382812 38.910156 1.46875 39.148438 1.648438 C 39.390625 1.828125 39.550781 2.058594 39.636719 2.347656 C 41.566406 8.761719 45.476562 12.753906 51.601562 14.554688 C 51.890625 14.636719 52.125 14.800781 52.304688 15.042969 C 52.484375 15.28125 52.574219 15.554688 52.574219 15.851562 C 52.574219 16.152344 52.484375 16.425781 52.304688 16.664062 C 52.125 16.90625 51.890625 17.070312 51.601562 17.152344 C 45.476562 18.953125 41.566406 22.945312 39.636719 29.359375 C 39.550781 29.644531 39.390625 29.878906 39.148438 30.058594 C 38.910156 30.238281 38.640625 30.324219 38.339844 30.324219 Z M 38.339844 30.324219 " fill-opacity="1" fill-rule="nonzero"/><path fill="#537cd1" d="M 38.273438 2.71875 C 36.234375 9.519531 31.957031 13.875 25.445312 15.785156 C 25.414062 15.796875 25.394531 15.816406 25.394531 15.851562 C 25.394531 15.886719 25.414062 15.90625 25.445312 15.917969 C 31.957031 17.828125 36.234375 22.1875 38.273438 28.988281 C 38.285156 29.019531 38.304688 29.035156 38.339844 29.035156 C 38.375 29.035156 38.394531 29.019531 38.40625 28.988281 C 40.445312 22.1875 44.722656 17.828125 51.234375 15.917969 C 51.269531 15.90625 51.285156 15.886719 51.285156 15.851562 C 51.285156 15.816406 51.269531 15.796875 51.234375 15.785156 C 44.722656 13.875 40.449219 9.519531 38.40625 2.71875 C 38.394531 2.6875 38.375 2.671875 38.339844 2.671875 C 38.304688 2.671875 38.285156 2.6875 38.273438 2.71875 Z M 38.273438 2.71875 " fill-opacity="1" fill-rule="nonzero"/><path fill="#1c3872" d="M 69.226562 27.398438 C 68.945312 27.402344 68.667969 27.355469 68.402344 27.269531 C 68.132812 27.179688 67.886719 27.054688 67.660156 26.886719 C 67.433594 26.71875 67.238281 26.519531 67.078125 26.285156 C 66.917969 26.054688 66.796875 25.804688 66.714844 25.535156 C 65.566406 21.710938 63.347656 19.4375 59.726562 18.371094 C 59.453125 18.292969 59.203125 18.171875 58.96875 18.007812 C 58.738281 17.847656 58.535156 17.652344 58.367188 17.425781 C 58.195312 17.199219 58.066406 16.953125 57.976562 16.683594 C 57.886719 16.414062 57.84375 16.140625 57.84375 15.855469 C 57.84375 15.574219 57.886719 15.296875 57.976562 15.027344 C 58.066406 14.761719 58.195312 14.511719 58.367188 14.285156 C 58.535156 14.058594 58.738281 13.863281 58.96875 13.703125 C 59.203125 13.542969 59.453125 13.421875 59.726562 13.339844 C 63.347656 12.277344 65.566406 10 66.714844 6.179688 C 66.796875 5.90625 66.917969 5.65625 67.082031 5.425781 C 67.242188 5.195312 67.4375 4.996094 67.664062 4.828125 C 67.886719 4.660156 68.136719 4.53125 68.402344 4.441406 C 68.671875 4.355469 68.945312 4.308594 69.226562 4.308594 C 69.507812 4.308594 69.785156 4.355469 70.050781 4.441406 C 70.320312 4.53125 70.566406 4.660156 70.792969 4.828125 C 71.019531 4.996094 71.210938 5.195312 71.375 5.425781 C 71.535156 5.65625 71.65625 5.90625 71.738281 6.179688 C 72.886719 10 75.109375 12.277344 78.726562 13.339844 C 79 13.421875 79.25 13.542969 79.484375 13.703125 C 79.714844 13.863281 79.917969 14.058594 80.085938 14.285156 C 80.257812 14.511719 80.386719 14.757812 80.476562 15.027344 C 80.566406 15.296875 80.609375 15.574219 80.609375 15.855469 C 80.609375 16.140625 80.566406 16.414062 80.476562 16.683594 C 80.386719 16.953125 80.257812 17.199219 80.085938 17.425781 C 79.917969 17.652344 79.714844 17.847656 79.484375 18.007812 C 79.25 18.171875 79 18.292969 78.726562 18.371094 C 75.105469 19.433594 72.886719 21.707031 71.738281 25.535156 C 71.65625 25.804688 71.535156 26.054688 71.375 26.289062 C 71.214844 26.519531 71.019531 26.71875 70.792969 26.886719 C 70.566406 27.054688 70.320312 27.183594 70.050781 27.269531 C 69.785156 27.359375 69.507812 27.402344 69.226562 27.398438 Z M 69.226562 27.398438 " fill-opacity="1" fill-rule="nonzero"/><path fill="#000000" d="M 69.226562 26.109375 C 68.933594 26.113281 68.667969 26.023438 68.429688 25.847656 C 68.195312 25.671875 68.035156 25.445312 67.949219 25.160156 C 66.683594 20.941406 64.109375 18.316406 60.089844 17.132812 C 59.804688 17.050781 59.574219 16.890625 59.398438 16.652344 C 59.21875 16.417969 59.132812 16.148438 59.132812 15.855469 C 59.132812 15.558594 59.21875 15.292969 59.398438 15.054688 C 59.574219 14.816406 59.804688 14.65625 60.089844 14.574219 C 64.109375 13.390625 66.683594 10.765625 67.949219 6.542969 C 68.035156 6.261719 68.195312 6.035156 68.429688 5.859375 C 68.667969 5.683594 68.933594 5.59375 69.226562 5.59375 C 69.519531 5.59375 69.785156 5.683594 70.023438 5.859375 C 70.257812 6.035156 70.417969 6.261719 70.503906 6.542969 C 71.769531 10.765625 74.34375 13.390625 78.363281 14.574219 C 78.648438 14.65625 78.878906 14.816406 79.054688 15.054688 C 79.234375 15.289062 79.320312 15.554688 79.320312 15.851562 C 79.320312 16.148438 79.234375 16.414062 79.054688 16.652344 C 78.878906 16.886719 78.648438 17.046875 78.363281 17.132812 C 74.34375 18.3125 71.769531 20.9375 70.503906 25.160156 C 70.421875 25.441406 70.261719 25.671875 70.023438 25.847656 C 69.789062 26.023438 69.523438 26.113281 69.226562 26.109375 Z M 69.226562 26.109375 " fill-opacity="1" fill-rule="nonzero"/><path fill="#ffdea4" d="M 69.183594 6.917969 C 67.792969 11.542969 64.882812 14.507812 60.453125 15.808594 C 60.429688 15.816406 60.417969 15.832031 60.417969 15.851562 C 60.417969 15.875 60.429688 15.890625 60.453125 15.898438 C 64.882812 17.199219 67.792969 20.164062 69.183594 24.789062 C 69.191406 24.8125 69.203125 24.824219 69.226562 24.824219 C 69.25 24.824219 69.265625 24.8125 69.269531 24.789062 C 70.660156 20.164062 73.570312 17.199219 78 15.898438 C 78.023438 15.890625 78.035156 15.875 78.035156 15.851562 C 78.035156 15.832031 78.023438 15.816406 78 15.808594 C 73.570312 14.507812 70.660156 11.542969 69.269531 6.917969 C 69.265625 6.894531 69.25 6.882812 69.226562 6.882812 C 69.203125 6.882812 69.191406 6.894531 69.183594 6.917969 Z M 69.183594 6.917969 " fill-opacity="1" fill-rule="nonzero"/><g fill="#ffffff" fill-opacity="0.4"><g transform="translate(78.120475, 51.996218)"><g><path d="M 5.21875 -0.71875 C 5.15625 -0.394531 4.992188 -0.15625 4.734375 0 C 4.472656 0.15625 4.175781 0.234375 3.84375 0.234375 C 3.414062 0.234375 3.082031 0.109375 2.84375 -0.140625 C 2.601562 -0.390625 2.503906 -0.710938 2.546875 -1.109375 C 2.804688 -3.390625 3.003906 -5.453125 3.140625 -7.296875 C 3.285156 -9.140625 3.378906 -10.859375 3.421875 -12.453125 C 3.472656 -14.054688 3.5 -15.617188 3.5 -17.140625 C 3.5 -18.660156 3.484375 -20.226562 3.453125 -21.84375 C 3.429688 -22.25 3.566406 -22.5625 3.859375 -22.78125 C 4.160156 -23 4.503906 -23.109375 4.890625 -23.109375 C 5.160156 -23.109375 5.394531 -23.050781 5.59375 -22.9375 C 5.800781 -22.832031 5.972656 -22.648438 6.109375 -22.390625 C 6.785156 -21.191406 7.457031 -19.992188 8.125 -18.796875 C 8.800781 -17.609375 9.472656 -16.414062 10.140625 -15.21875 C 10.804688 -14.019531 11.484375 -12.8125 12.171875 -11.59375 C 12.867188 -10.375 13.566406 -9.128906 14.265625 -7.859375 C 15.085938 -9.035156 15.875 -10.203125 16.625 -11.359375 C 17.382812 -12.515625 18.109375 -13.675781 18.796875 -14.84375 C 19.492188 -16.019531 20.164062 -17.207031 20.8125 -18.40625 C 21.457031 -19.601562 22.09375 -20.832031 22.71875 -22.09375 C 22.832031 -22.332031 22.992188 -22.503906 23.203125 -22.609375 C 23.421875 -22.722656 23.660156 -22.78125 23.921875 -22.78125 C 24.296875 -22.78125 24.613281 -22.664062 24.875 -22.4375 C 25.132812 -22.207031 25.265625 -21.898438 25.265625 -21.515625 C 25.304688 -19.992188 25.328125 -18.5625 25.328125 -17.21875 C 25.328125 -15.882812 25.316406 -14.539062 25.296875 -13.1875 C 25.273438 -11.84375 25.242188 -10.394531 25.203125 -8.84375 C 25.160156 -7.5 25.101562 -6.148438 25.03125 -4.796875 C 24.96875 -3.453125 24.882812 -2.125 24.78125 -0.8125 C 24.757812 -0.394531 24.617188 -0.0859375 24.359375 0.109375 C 24.097656 0.316406 23.789062 0.421875 23.4375 0.421875 C 23.050781 0.421875 22.722656 0.316406 22.453125 0.109375 C 22.191406 -0.0859375 22.070312 -0.394531 22.09375 -0.8125 L 22.359375 -5.328125 C 22.421875 -6.234375 22.460938 -7.128906 22.484375 -8.015625 C 22.515625 -8.898438 22.546875 -9.789062 22.578125 -10.6875 C 22.609375 -11.59375 22.628906 -12.523438 22.640625 -13.484375 C 22.648438 -14.441406 22.664062 -15.441406 22.6875 -16.484375 C 21.925781 -15.046875 21.144531 -13.675781 20.34375 -12.375 C 19.550781 -11.070312 18.734375 -9.8125 17.890625 -8.59375 C 17.046875 -7.375 16.175781 -6.175781 15.28125 -5 C 15.144531 -4.800781 14.976562 -4.640625 14.78125 -4.515625 C 14.59375 -4.398438 14.359375 -4.34375 14.078125 -4.34375 C 13.835938 -4.34375 13.609375 -4.394531 13.390625 -4.5 C 13.171875 -4.613281 13.003906 -4.789062 12.890625 -5.03125 C 12.328125 -6.007812 11.765625 -6.984375 11.203125 -7.953125 C 10.648438 -8.921875 10.097656 -9.898438 9.546875 -10.890625 C 8.992188 -11.878906 8.429688 -12.882812 7.859375 -13.90625 C 7.296875 -14.925781 6.722656 -15.984375 6.140625 -17.078125 C 6.140625 -15.546875 6.128906 -14.070312 6.109375 -12.65625 C 6.085938 -11.25 6.039062 -9.878906 5.96875 -8.546875 C 5.90625 -7.222656 5.8125 -5.910156 5.6875 -4.609375 C 5.570312 -3.316406 5.414062 -2.019531 5.21875 -0.71875 Z M 5.21875 -0.71875 "/></g></g></g><g fill="#ffffff" fill-opacity="0.4"><g transform="translate(106.226125, 51.996218)"><g><path d="M 2.8125 -15.21875 C 2.875 -15.5625 3.023438 -15.800781 3.265625 -15.9375 C 3.503906 -16.082031 3.796875 -16.15625 4.140625 -16.15625 C 4.316406 -16.15625 4.484375 -16.125 4.640625 -16.0625 C 4.804688 -16 4.953125 -15.90625 5.078125 -15.78125 C 5.210938 -15.664062 5.3125 -15.523438 5.375 -15.359375 C 5.445312 -15.191406 5.484375 -15 5.484375 -14.78125 C 5.484375 -14.476562 5.421875 -14.054688 5.296875 -13.515625 C 5.179688 -12.972656 5.0625 -12.285156 4.9375 -11.453125 C 4.820312 -10.628906 4.765625 -9.609375 4.765625 -8.390625 C 4.765625 -7.347656 4.859375 -6.351562 5.046875 -5.40625 C 5.234375 -4.457031 5.519531 -3.679688 5.90625 -3.078125 C 6.300781 -2.484375 6.800781 -2.1875 7.40625 -2.1875 C 7.976562 -2.1875 8.523438 -2.410156 9.046875 -2.859375 C 9.566406 -3.304688 10.039062 -3.867188 10.46875 -4.546875 C 10.90625 -5.234375 11.253906 -5.894531 11.515625 -6.53125 L 11.515625 -7.875 C 11.515625 -8.820312 11.53125 -9.738281 11.5625 -10.625 C 11.601562 -11.507812 11.675781 -12.332031 11.78125 -13.09375 C 11.894531 -13.851562 12.050781 -14.492188 12.25 -15.015625 C 12.414062 -15.453125 12.628906 -15.789062 12.890625 -16.03125 C 13.148438 -16.269531 13.457031 -16.390625 13.8125 -16.390625 C 14.15625 -16.390625 14.421875 -16.296875 14.609375 -16.109375 C 14.796875 -15.921875 14.925781 -15.65625 15 -15.3125 C 15.070312 -14.96875 15.109375 -14.566406 15.109375 -14.109375 C 15.109375 -12.890625 15.046875 -11.625 14.921875 -10.3125 C 14.804688 -9.007812 14.566406 -7.738281 14.203125 -6.5 C 14.222656 -6.082031 14.234375 -5.65625 14.234375 -5.21875 C 14.234375 -4.78125 14.238281 -4.335938 14.25 -3.890625 C 14.257812 -3.453125 14.265625 -3.015625 14.265625 -2.578125 C 14.265625 -1.160156 14.171875 0.210938 13.984375 1.546875 C 13.804688 2.890625 13.492188 4.097656 13.046875 5.171875 C 12.597656 6.253906 11.957031 7.109375 11.125 7.734375 C 10.300781 8.367188 9.238281 8.6875 7.9375 8.6875 C 6.757812 8.6875 5.648438 8.421875 4.609375 7.890625 C 3.578125 7.367188 2.78125 6.617188 2.21875 5.640625 C 2.15625 5.492188 2.109375 5.363281 2.078125 5.25 C 2.046875 5.144531 2.03125 5.039062 2.03125 4.9375 C 2.03125 4.6875 2.09375 4.46875 2.21875 4.28125 C 2.351562 4.101562 2.523438 3.957031 2.734375 3.84375 C 2.953125 3.738281 3.160156 3.6875 3.359375 3.6875 C 3.640625 3.6875 3.878906 3.753906 4.078125 3.890625 C 4.273438 4.035156 4.472656 4.25 4.671875 4.53125 C 5.035156 5.082031 5.535156 5.488281 6.171875 5.75 C 6.804688 6.007812 7.40625 6.140625 7.96875 6.140625 C 8.851562 6.140625 9.535156 5.828125 10.015625 5.203125 C 10.492188 4.585938 10.847656 3.648438 11.078125 2.390625 C 11.304688 1.140625 11.46875 -0.453125 11.5625 -2.390625 C 11.082031 -1.648438 10.484375 -0.992188 9.765625 -0.421875 C 9.046875 0.140625 8.25 0.421875 7.375 0.421875 C 6.375 0.421875 5.53125 0.164062 4.84375 -0.34375 C 4.15625 -0.851562 3.597656 -1.53125 3.171875 -2.375 C 2.753906 -3.226562 2.457031 -4.164062 2.28125 -5.1875 C 2.101562 -6.207031 2.015625 -7.222656 2.015625 -8.234375 C 2.015625 -9.015625 2.046875 -9.8125 2.109375 -10.625 C 2.179688 -11.4375 2.28125 -12.234375 2.40625 -13.015625 C 2.539062 -13.804688 2.675781 -14.539062 2.8125 -15.21875 Z M 2.8125 -15.21875 "/></g></g></g><g fill="#ffffff" fill-opacity="0.4"><g transform="translate(42.363354, 93.944996)"><g><path d="M 16.265625 -21.15625 C 16.390625 -21.039062 16.484375 -20.90625 16.546875 -20.75 C 16.617188 -20.601562 16.65625 -20.429688 16.65625 -20.234375 C 16.65625 -19.992188 16.59375 -19.769531 16.46875 -19.5625 C 16.351562 -19.363281 16.195312 -19.203125 16 -19.078125 C 15.800781 -18.960938 15.570312 -18.90625 15.3125 -18.90625 C 15.132812 -18.90625 14.921875 -18.972656 14.671875 -19.109375 C 14.421875 -19.253906 14.113281 -19.425781 13.75 -19.625 C 13.15625 -19.96875 12.539062 -20.21875 11.90625 -20.375 C 11.28125 -20.539062 10.519531 -20.625 9.625 -20.625 C 8.601562 -20.625 7.75 -20.484375 7.0625 -20.203125 C 6.382812 -19.921875 5.875 -19.550781 5.53125 -19.09375 C 5.195312 -18.632812 5.03125 -18.132812 5.03125 -17.59375 C 5.03125 -16.9375 5.273438 -16.359375 5.765625 -15.859375 C 6.253906 -15.359375 6.882812 -14.898438 7.65625 -14.484375 C 8.425781 -14.078125 9.226562 -13.664062 10.0625 -13.25 C 11.625 -12.507812 12.890625 -11.757812 13.859375 -11 C 14.828125 -10.238281 15.535156 -9.414062 15.984375 -8.53125 C 16.429688 -7.65625 16.65625 -6.660156 16.65625 -5.546875 C 16.65625 -4.679688 16.476562 -3.878906 16.125 -3.140625 C 15.78125 -2.398438 15.285156 -1.75 14.640625 -1.1875 C 13.992188 -0.632812 13.226562 -0.207031 12.34375 0.09375 C 11.46875 0.40625 10.5 0.5625 9.4375 0.5625 C 8.71875 0.5625 7.914062 0.46875 7.03125 0.28125 C 6.15625 0.09375 5.335938 -0.148438 4.578125 -0.453125 C 3.828125 -0.765625 3.226562 -1.082031 2.78125 -1.40625 C 2.226562 -1.882812 1.953125 -2.351562 1.953125 -2.8125 C 1.953125 -3.050781 2.003906 -3.269531 2.109375 -3.46875 C 2.222656 -3.675781 2.375 -3.835938 2.5625 -3.953125 C 2.75 -4.078125 2.941406 -4.140625 3.140625 -4.140625 C 3.304688 -4.140625 3.492188 -4.085938 3.703125 -3.984375 C 3.910156 -3.890625 4.144531 -3.757812 4.40625 -3.59375 C 4.96875 -3.269531 5.648438 -2.925781 6.453125 -2.5625 C 7.265625 -2.207031 8.25 -2.03125 9.40625 -2.03125 C 10.25 -2.03125 11.003906 -2.1875 11.671875 -2.5 C 12.335938 -2.8125 12.867188 -3.226562 13.265625 -3.75 C 13.671875 -4.269531 13.875 -4.847656 13.875 -5.484375 C 13.875 -6.179688 13.679688 -6.84375 13.296875 -7.46875 C 12.921875 -8.101562 12.367188 -8.695312 11.640625 -9.25 C 10.910156 -9.8125 10 -10.320312 8.90625 -10.78125 C 8.164062 -11.125 7.40625 -11.484375 6.625 -11.859375 C 5.84375 -12.242188 5.117188 -12.691406 4.453125 -13.203125 C 3.796875 -13.710938 3.269531 -14.332031 2.875 -15.0625 C 2.476562 -15.789062 2.28125 -16.664062 2.28125 -17.6875 C 2.28125 -18.78125 2.597656 -19.734375 3.234375 -20.546875 C 3.878906 -21.367188 4.765625 -22.015625 5.890625 -22.484375 C 7.015625 -22.960938 8.328125 -23.203125 9.828125 -23.203125 C 11.066406 -23.203125 12.253906 -23.019531 13.390625 -22.65625 C 14.535156 -22.289062 15.492188 -21.789062 16.265625 -21.15625 Z M 16.265625 -21.15625 "/></g></g></g><g fill="#ffffff" fill-opacity="0.4"><g transform="translate(60.641021, 93.944996)"><g><path d="M 8.453125 0 C 7.347656 0 6.363281 -0.21875 5.5 -0.65625 C 4.644531 -1.09375 3.914062 -1.6875 3.3125 -2.4375 C 2.71875 -3.1875 2.265625 -4.023438 1.953125 -4.953125 C 1.648438 -5.890625 1.5 -6.835938 1.5 -7.796875 C 1.5 -8.804688 1.703125 -9.8125 2.109375 -10.8125 C 2.523438 -11.8125 3.097656 -12.726562 3.828125 -13.5625 C 4.554688 -14.40625 5.398438 -15.078125 6.359375 -15.578125 C 7.316406 -16.078125 8.34375 -16.328125 9.4375 -16.328125 C 10.300781 -16.328125 11.054688 -16.148438 11.703125 -15.796875 C 12.347656 -15.453125 12.851562 -14.976562 13.21875 -14.375 C 13.59375 -13.78125 13.78125 -13.082031 13.78125 -12.28125 C 13.78125 -11.445312 13.570312 -10.65625 13.15625 -9.90625 C 12.738281 -9.15625 12.148438 -8.550781 11.390625 -8.09375 C 10.367188 -7.394531 9.253906 -6.910156 8.046875 -6.640625 C 6.835938 -6.367188 5.613281 -6.210938 4.375 -6.171875 C 4.53125 -5.585938 4.785156 -5.015625 5.140625 -4.453125 C 5.503906 -3.898438 5.972656 -3.4375 6.546875 -3.0625 C 7.117188 -2.695312 7.796875 -2.515625 8.578125 -2.515625 C 9.316406 -2.515625 10.03125 -2.726562 10.71875 -3.15625 C 11.40625 -3.59375 12 -4.085938 12.5 -4.640625 C 12.613281 -4.804688 12.742188 -4.914062 12.890625 -4.96875 C 13.046875 -5.03125 13.195312 -5.0625 13.34375 -5.0625 C 13.582031 -5.0625 13.800781 -5 14 -4.875 C 14.195312 -4.757812 14.351562 -4.601562 14.46875 -4.40625 C 14.59375 -4.207031 14.65625 -3.988281 14.65625 -3.75 C 14.675781 -3.582031 14.65625 -3.425781 14.59375 -3.28125 C 14.53125 -3.132812 14.429688 -2.988281 14.296875 -2.84375 C 13.554688 -2.039062 12.691406 -1.363281 11.703125 -0.8125 C 10.710938 -0.269531 9.628906 0 8.453125 0 Z M 4.25 -8.625 C 5.050781 -8.664062 5.789062 -8.726562 6.46875 -8.8125 C 7.144531 -8.90625 7.851562 -9.101562 8.59375 -9.40625 C 9.257812 -9.664062 9.84375 -10.039062 10.34375 -10.53125 C 10.84375 -11.019531 11.09375 -11.613281 11.09375 -12.3125 C 11.09375 -12.59375 11.023438 -12.847656 10.890625 -13.078125 C 10.765625 -13.304688 10.578125 -13.492188 10.328125 -13.640625 C 10.078125 -13.796875 9.75 -13.875 9.34375 -13.875 C 8.707031 -13.875 8.097656 -13.710938 7.515625 -13.390625 C 6.941406 -13.078125 6.425781 -12.664062 5.96875 -12.15625 C 5.507812 -11.644531 5.132812 -11.078125 4.84375 -10.453125 C 4.550781 -9.835938 4.351562 -9.226562 4.25 -8.625 Z M 4.25 -8.625 "/></g></g></g><g fill="#ffffff" fill-opacity="0.4"><g transform="translate(76.551574, 93.944996)"><g><path d="M 2.96875 -15.078125 C 2.988281 -15.492188 3.140625 -15.804688 3.421875 -16.015625 C 3.703125 -16.222656 4.03125 -16.328125 4.40625 -16.328125 C 4.757812 -16.328125 5.066406 -16.234375 5.328125 -16.046875 C 5.585938 -15.859375 5.71875 -15.566406 5.71875 -15.171875 C 5.71875 -15.046875 5.71875 -14.890625 5.71875 -14.703125 C 5.71875 -14.515625 5.710938 -14.300781 5.703125 -14.0625 C 5.691406 -13.832031 5.671875 -13.582031 5.640625 -13.3125 C 6.210938 -14.300781 6.875 -15.039062 7.625 -15.53125 C 8.375 -16.019531 9.207031 -16.265625 10.125 -16.265625 C 10.582031 -16.265625 11.078125 -16.203125 11.609375 -16.078125 C 12.140625 -15.953125 12.6875 -15.71875 13.25 -15.375 C 13.488281 -15.238281 13.65625 -15.066406 13.75 -14.859375 C 13.851562 -14.660156 13.894531 -14.421875 13.875 -14.140625 C 13.851562 -13.703125 13.71875 -13.367188 13.46875 -13.140625 C 13.21875 -12.910156 12.914062 -12.796875 12.5625 -12.796875 C 12.351562 -12.796875 12.164062 -12.832031 12 -12.90625 C 11.832031 -12.988281 11.671875 -13.082031 11.515625 -13.1875 C 11.304688 -13.300781 11.09375 -13.414062 10.875 -13.53125 C 10.65625 -13.644531 10.378906 -13.703125 10.046875 -13.703125 C 8.859375 -13.703125 7.910156 -13.113281 7.203125 -11.9375 C 6.492188 -10.769531 5.910156 -9.269531 5.453125 -7.4375 C 5.429688 -6.75 5.414062 -6.109375 5.40625 -5.515625 C 5.394531 -4.929688 5.378906 -4.367188 5.359375 -3.828125 C 5.335938 -3.296875 5.320312 -2.78125 5.3125 -2.28125 C 5.300781 -1.78125 5.296875 -1.289062 5.296875 -0.8125 C 5.296875 -0.550781 5.234375 -0.328125 5.109375 -0.140625 C 4.984375 0.0351562 4.8125 0.164062 4.59375 0.25 C 4.382812 0.34375 4.160156 0.390625 3.921875 0.390625 C 3.484375 0.390625 3.15625 0.257812 2.9375 0 C 2.71875 -0.257812 2.566406 -0.601562 2.484375 -1.03125 C 2.410156 -1.457031 2.375 -1.921875 2.375 -2.421875 C 2.375 -2.828125 2.382812 -3.328125 2.40625 -3.921875 C 2.4375 -4.523438 2.476562 -5.125 2.53125 -5.71875 C 2.582031 -6.320312 2.640625 -6.820312 2.703125 -7.21875 Z M 2.96875 -15.078125 "/></g></g></g><g fill="#ffffff" fill-opacity="0.4"><g transform="translate(90.484544, 93.944996)"><g><path d="M 0.875 -14.46875 C 0.851562 -14.570312 0.832031 -14.65625 0.8125 -14.71875 C 0.789062 -14.789062 0.78125 -14.867188 0.78125 -14.953125 C 0.78125 -15.316406 0.921875 -15.613281 1.203125 -15.84375 C 1.492188 -16.070312 1.820312 -16.1875 2.1875 -16.1875 C 2.488281 -16.1875 2.753906 -16.109375 2.984375 -15.953125 C 3.210938 -15.804688 3.367188 -15.570312 3.453125 -15.25 C 3.742188 -14.332031 4.054688 -13.414062 4.390625 -12.5 C 4.722656 -11.59375 5.054688 -10.671875 5.390625 -9.734375 C 5.734375 -8.796875 6.066406 -7.847656 6.390625 -6.890625 C 6.722656 -5.929688 7.039062 -4.953125 7.34375 -3.953125 C 7.78125 -5.054688 8.195312 -6.109375 8.59375 -7.109375 C 9 -8.117188 9.394531 -9.085938 9.78125 -10.015625 C 10.175781 -10.953125 10.578125 -11.867188 10.984375 -12.765625 C 11.390625 -13.660156 11.820312 -14.539062 12.28125 -15.40625 C 12.40625 -15.644531 12.5625 -15.816406 12.75 -15.921875 C 12.9375 -16.035156 13.132812 -16.09375 13.34375 -16.09375 C 13.582031 -16.09375 13.816406 -16.03125 14.046875 -15.90625 C 14.273438 -15.789062 14.460938 -15.640625 14.609375 -15.453125 C 14.753906 -15.265625 14.828125 -15.046875 14.828125 -14.796875 C 14.828125 -14.703125 14.804688 -14.582031 14.765625 -14.4375 C 14.734375 -14.300781 14.632812 -14.101562 14.46875 -13.84375 C 14.226562 -13.40625 13.898438 -12.726562 13.484375 -11.8125 C 13.066406 -10.90625 12.601562 -9.882812 12.09375 -8.75 C 11.582031 -7.613281 11.082031 -6.472656 10.59375 -5.328125 C 10.101562 -4.191406 9.660156 -3.171875 9.265625 -2.265625 C 8.878906 -1.359375 8.597656 -0.679688 8.421875 -0.234375 C 8.335938 -0.015625 8.179688 0.144531 7.953125 0.25 C 7.722656 0.363281 7.46875 0.421875 7.1875 0.421875 C 6.875 0.421875 6.582031 0.332031 6.3125 0.15625 C 6.039062 -0.0078125 5.851562 -0.25 5.75 -0.5625 C 5.4375 -1.75 5.078125 -2.921875 4.671875 -4.078125 C 4.273438 -5.234375 3.851562 -6.390625 3.40625 -7.546875 C 2.96875 -8.710938 2.535156 -9.867188 2.109375 -11.015625 C 1.679688 -12.160156 1.269531 -13.3125 0.875 -14.46875 Z M 0.875 -14.46875 "/></g></g></g><g fill="#ffffff" fill-opacity="0.4"><g transform="translate(105.70594, 93.944996)"><g><path d="M 3.109375 -15.015625 C 3.109375 -15.296875 3.171875 -15.523438 3.296875 -15.703125 C 3.429688 -15.878906 3.601562 -16.015625 3.8125 -16.109375 C 4.03125 -16.203125 4.25 -16.25 4.46875 -16.25 C 4.863281 -16.25 5.195312 -16.144531 5.46875 -15.9375 C 5.738281 -15.738281 5.875 -15.429688 5.875 -15.015625 C 5.875 -13.578125 5.847656 -12.296875 5.796875 -11.171875 C 5.742188 -10.054688 5.6875 -8.988281 5.625 -7.96875 C 5.570312 -6.945312 5.519531 -5.875 5.46875 -4.75 C 5.414062 -3.625 5.378906 -2.320312 5.359375 -0.84375 C 5.359375 -0.457031 5.226562 -0.144531 4.96875 0.09375 C 4.707031 0.332031 4.390625 0.453125 4.015625 0.453125 C 3.617188 0.453125 3.316406 0.359375 3.109375 0.171875 C 2.910156 -0.00390625 2.773438 -0.226562 2.703125 -0.5 C 2.640625 -0.78125 2.609375 -1.070312 2.609375 -1.375 C 2.609375 -1.550781 2.625 -1.988281 2.65625 -2.6875 C 2.6875 -3.394531 2.722656 -4.257812 2.765625 -5.28125 C 2.816406 -6.3125 2.875 -7.410156 2.9375 -8.578125 C 3 -9.753906 3.039062 -10.898438 3.0625 -12.015625 C 3.09375 -13.140625 3.109375 -14.140625 3.109375 -15.015625 Z M 2.703125 -21.34375 C 2.703125 -21.675781 2.773438 -22.015625 2.921875 -22.359375 C 3.066406 -22.710938 3.269531 -23.007812 3.53125 -23.25 C 3.789062 -23.488281 4.09375 -23.609375 4.4375 -23.609375 C 5.070312 -23.609375 5.546875 -23.476562 5.859375 -23.21875 C 6.171875 -22.96875 6.375 -22.679688 6.46875 -22.359375 C 6.570312 -22.035156 6.625 -21.785156 6.625 -21.609375 C 6.625 -21.066406 6.414062 -20.578125 6 -20.140625 C 5.59375 -19.703125 5.113281 -19.484375 4.5625 -19.484375 C 4.0625 -19.484375 3.625 -19.660156 3.25 -20.015625 C 2.882812 -20.378906 2.703125 -20.820312 2.703125 -21.34375 Z M 2.703125 -21.34375 "/></g></g></g><g fill="#ffffff" fill-opacity="0.4"><g transform="translate(114.095694, 93.944996)"><g><path d="M 7.96875 0.125 C 6.894531 0.125 5.957031 -0.117188 5.15625 -0.609375 C 4.351562 -1.097656 3.679688 -1.75 3.140625 -2.5625 C 2.609375 -3.375 2.207031 -4.257812 1.9375 -5.21875 C 1.664062 -6.175781 1.53125 -7.113281 1.53125 -8.03125 C 1.53125 -9.113281 1.710938 -10.148438 2.078125 -11.140625 C 2.453125 -12.140625 2.972656 -13.035156 3.640625 -13.828125 C 4.304688 -14.617188 5.085938 -15.238281 5.984375 -15.6875 C 6.890625 -16.132812 7.875 -16.359375 8.9375 -16.359375 C 9.6875 -16.359375 10.421875 -16.253906 11.140625 -16.046875 C 11.867188 -15.835938 12.519531 -15.503906 13.09375 -15.046875 C 13.675781 -14.585938 14.109375 -13.976562 14.390625 -13.21875 C 14.421875 -13.132812 14.445312 -13.054688 14.46875 -12.984375 C 14.488281 -12.921875 14.5 -12.847656 14.5 -12.765625 C 14.5 -12.503906 14.425781 -12.28125 14.28125 -12.09375 C 14.144531 -11.90625 13.972656 -11.757812 13.765625 -11.65625 C 13.554688 -11.5625 13.34375 -11.515625 13.125 -11.515625 C 12.863281 -11.515625 12.644531 -11.578125 12.46875 -11.703125 C 12.289062 -11.828125 12.109375 -12.050781 11.921875 -12.375 C 11.609375 -12.957031 11.171875 -13.347656 10.609375 -13.546875 C 10.046875 -13.742188 9.523438 -13.84375 9.046875 -13.84375 C 8.546875 -13.84375 8.019531 -13.722656 7.46875 -13.484375 C 6.925781 -13.242188 6.414062 -12.878906 5.9375 -12.390625 C 5.457031 -11.898438 5.066406 -11.289062 4.765625 -10.5625 C 4.460938 -9.832031 4.3125 -8.976562 4.3125 -8 C 4.3125 -7.175781 4.445312 -6.335938 4.71875 -5.484375 C 4.988281 -4.628906 5.394531 -3.910156 5.9375 -3.328125 C 6.488281 -2.742188 7.1875 -2.441406 8.03125 -2.421875 C 8.875 -2.421875 9.664062 -2.695312 10.40625 -3.25 C 11.144531 -3.800781 11.78125 -4.382812 12.3125 -5 C 12.457031 -5.144531 12.59375 -5.25 12.71875 -5.3125 C 12.851562 -5.382812 12.988281 -5.421875 13.125 -5.421875 C 13.363281 -5.421875 13.582031 -5.351562 13.78125 -5.21875 C 13.976562 -5.09375 14.140625 -4.929688 14.265625 -4.734375 C 14.398438 -4.535156 14.46875 -4.316406 14.46875 -4.078125 C 14.46875 -3.929688 14.445312 -3.789062 14.40625 -3.65625 C 14.375 -3.519531 14.273438 -3.367188 14.109375 -3.203125 C 13.316406 -2.304688 12.390625 -1.523438 11.328125 -0.859375 C 10.265625 -0.203125 9.144531 0.125 7.96875 0.125 Z M 7.96875 0.125 "/></g></g></g><g fill="#ffffff" fill-opacity="0.4"><g transform="translate(129.736576, 93.944996)"><g><path d="M 8.453125 0 C 7.347656 0 6.363281 -0.21875 5.5 -0.65625 C 4.644531 -1.09375 3.914062 -1.6875 3.3125 -2.4375 C 2.71875 -3.1875 2.265625 -4.023438 1.953125 -4.953125 C 1.648438 -5.890625 1.5 -6.835938 1.5 -7.796875 C 1.5 -8.804688 1.703125 -9.8125 2.109375 -10.8125 C 2.523438 -11.8125 3.097656 -12.726562 3.828125 -13.5625 C 4.554688 -14.40625 5.398438 -15.078125 6.359375 -15.578125 C 7.316406 -16.078125 8.34375 -16.328125 9.4375 -16.328125 C 10.300781 -16.328125 11.054688 -16.148438 11.703125 -15.796875 C 12.347656 -15.453125 12.851562 -14.976562 13.21875 -14.375 C 13.59375 -13.78125 13.78125 -13.082031 13.78125 -12.28125 C 13.78125 -11.445312 13.570312 -10.65625 13.15625 -9.90625 C 12.738281 -9.15625 12.148438 -8.550781 11.390625 -8.09375 C 10.367188 -7.394531 9.253906 -6.910156 8.046875 -6.640625 C 6.835938 -6.367188 5.613281 -6.210938 4.375 -6.171875 C 4.53125 -5.585938 4.785156 -5.015625 5.140625 -4.453125 C 5.503906 -3.898438 5.972656 -3.4375 6.546875 -3.0625 C 7.117188 -2.695312 7.796875 -2.515625 8.578125 -2.515625 C 9.316406 -2.515625 10.03125 -2.726562 10.71875 -3.15625 C 11.40625 -3.59375 12 -4.085938 12.5 -4.640625 C 12.613281 -4.804688 12.742188 -4.914062 12.890625 -4.96875 C 13.046875 -5.03125 13.195312 -5.0625 13.34375 -5.0625 C 13.582031 -5.0625 13.800781 -5 14 -4.875 C 14.195312 -4.757812 14.351562 -4.601562 14.46875 -4.40625 C 14.59375 -4.207031 14.65625 -3.988281 14.65625 -3.75 C 14.675781 -3.582031 14.65625 -3.425781 14.59375 -3.28125 C 14.53125 -3.132812 14.429688 -2.988281 14.296875 -2.84375 C 13.554688 -2.039062 12.691406 -1.363281 11.703125 -0.8125 C 10.710938 -0.269531 9.628906 0 8.453125 0 Z M 4.25 -8.625 C 5.050781 -8.664062 5.789062 -8.726562 6.46875 -8.8125 C 7.144531 -8.90625 7.851562 -9.101562 8.59375 -9.40625 C 9.257812 -9.664062 9.84375 -10.039062 10.34375 -10.53125 C 10.84375 -11.019531 11.09375 -11.613281 11.09375 -12.3125 C 11.09375 -12.59375 11.023438 -12.847656 10.890625 -13.078125 C 10.765625 -13.304688 10.578125 -13.492188 10.328125 -13.640625 C 10.078125 -13.796875 9.75 -13.875 9.34375 -13.875 C 8.707031 -13.875 8.097656 -13.710938 7.515625 -13.390625 C 6.941406 -13.078125 6.425781 -12.664062 5.96875 -12.15625 C 5.507812 -11.644531 5.132812 -11.078125 4.84375 -10.453125 C 4.550781 -9.835938 4.351562 -9.226562 4.25 -8.625 Z M 4.25 -8.625 "/></g></g></g><g fill="#ffffff" fill-opacity="0.4"><g transform="translate(145.497315, 93.944996)"><g><path d="M 12.25 -14.109375 C 12.394531 -13.953125 12.488281 -13.789062 12.53125 -13.625 C 12.570312 -13.46875 12.59375 -13.320312 12.59375 -13.1875 C 12.59375 -12.945312 12.523438 -12.726562 12.390625 -12.53125 C 12.265625 -12.34375 12.097656 -12.191406 11.890625 -12.078125 C 11.691406 -11.972656 11.484375 -11.921875 11.265625 -11.921875 C 11.066406 -11.921875 10.882812 -11.972656 10.71875 -12.078125 C 10.5625 -12.179688 10.414062 -12.300781 10.28125 -12.4375 C 10.082031 -12.738281 9.75 -13.035156 9.28125 -13.328125 C 8.8125 -13.628906 8.222656 -13.78125 7.515625 -13.78125 C 6.859375 -13.78125 6.289062 -13.617188 5.8125 -13.296875 C 5.332031 -12.984375 5.09375 -12.566406 5.09375 -12.046875 C 5.09375 -11.429688 5.296875 -10.960938 5.703125 -10.640625 C 6.117188 -10.316406 6.785156 -9.925781 7.703125 -9.46875 C 8.398438 -9.125 9.070312 -8.71875 9.71875 -8.25 C 10.375 -7.78125 10.914062 -7.210938 11.34375 -6.546875 C 11.769531 -5.878906 11.984375 -5.078125 11.984375 -4.140625 C 11.984375 -3.335938 11.785156 -2.601562 11.390625 -1.9375 C 11.003906 -1.28125 10.457031 -0.753906 9.75 -0.359375 C 9.039062 0.0351562 8.195312 0.234375 7.21875 0.234375 C 6.125 0.234375 5.035156 -0.0078125 3.953125 -0.5 C 2.878906 -0.988281 1.960938 -1.5625 1.203125 -2.21875 C 1.054688 -2.332031 0.953125 -2.460938 0.890625 -2.609375 C 0.835938 -2.765625 0.8125 -2.914062 0.8125 -3.0625 C 0.8125 -3.414062 0.941406 -3.738281 1.203125 -4.03125 C 1.460938 -4.320312 1.757812 -4.46875 2.09375 -4.46875 C 2.195312 -4.46875 2.300781 -4.445312 2.40625 -4.40625 C 2.519531 -4.363281 2.644531 -4.296875 2.78125 -4.203125 C 3.425781 -3.703125 4.125 -3.25 4.875 -2.84375 C 5.625 -2.445312 6.335938 -2.25 7.015625 -2.25 C 7.773438 -2.25 8.328125 -2.421875 8.671875 -2.765625 C 9.023438 -3.117188 9.203125 -3.515625 9.203125 -3.953125 C 9.203125 -4.671875 8.925781 -5.296875 8.375 -5.828125 C 7.820312 -6.359375 7.109375 -6.8125 6.234375 -7.1875 C 5.316406 -7.613281 4.5625 -8.066406 3.96875 -8.546875 C 3.382812 -9.023438 2.957031 -9.546875 2.6875 -10.109375 C 2.414062 -10.679688 2.28125 -11.304688 2.28125 -11.984375 C 2.28125 -12.828125 2.523438 -13.566406 3.015625 -14.203125 C 3.503906 -14.847656 4.144531 -15.347656 4.9375 -15.703125 C 5.738281 -16.066406 6.597656 -16.25 7.515625 -16.25 C 8.460938 -16.25 9.363281 -16.0625 10.21875 -15.6875 C 11.082031 -15.320312 11.757812 -14.796875 12.25 -14.109375 Z M 12.25 -14.109375 "/></g></g></g><g fill="#ffffff" fill-opacity="1"><g transform="translate(76.796263, 50.672006)"><g><path d="M 5.21875 -0.71875 C 5.15625 -0.394531 4.992188 -0.15625 4.734375 0 C 4.472656 0.15625 4.175781 0.234375 3.84375 0.234375 C 3.414062 0.234375 3.082031 0.109375 2.84375 -0.140625 C 2.601562 -0.390625 2.503906 -0.710938 2.546875 -1.109375 C 2.804688 -3.390625 3.003906 -5.453125 3.140625 -7.296875 C 3.285156 -9.140625 3.378906 -10.859375 3.421875 -12.453125 C 3.472656 -14.054688 3.5 -15.617188 3.5 -17.140625 C 3.5 -18.660156 3.484375 -20.226562 3.453125 -21.84375 C 3.429688 -22.25 3.566406 -22.5625 3.859375 -22.78125 C 4.160156 -23 4.503906 -23.109375 4.890625 -23.109375 C 5.160156 -23.109375 5.394531 -23.050781 5.59375 -22.9375 C 5.800781 -22.832031 5.972656 -22.648438 6.109375 -22.390625 C 6.785156 -21.191406 7.457031 -19.992188 8.125 -18.796875 C 8.800781 -17.609375 9.472656 -16.414062 10.140625 -15.21875 C 10.804688 -14.019531 11.484375 -12.8125 12.171875 -11.59375 C 12.867188 -10.375 13.566406 -9.128906 14.265625 -7.859375 C 15.085938 -9.035156 15.875 -10.203125 16.625 -11.359375 C 17.382812 -12.515625 18.109375 -13.675781 18.796875 -14.84375 C 19.492188 -16.019531 20.164062 -17.207031 20.8125 -18.40625 C 21.457031 -19.601562 22.09375 -20.832031 22.71875 -22.09375 C 22.832031 -22.332031 22.992188 -22.503906 23.203125 -22.609375 C 23.421875 -22.722656 23.660156 -22.78125 23.921875 -22.78125 C 24.296875 -22.78125 24.613281 -22.664062 24.875 -22.4375 C 25.132812 -22.207031 25.265625 -21.898438 25.265625 -21.515625 C 25.304688 -19.992188 25.328125 -18.5625 25.328125 -17.21875 C 25.328125 -15.882812 25.316406 -14.539062 25.296875 -13.1875 C 25.273438 -11.84375 25.242188 -10.394531 25.203125 -8.84375 C 25.160156 -7.5 25.101562 -6.148438 25.03125 -4.796875 C 24.96875 -3.453125 24.882812 -2.125 24.78125 -0.8125 C 24.757812 -0.394531 24.617188 -0.0859375 24.359375 0.109375 C 24.097656 0.316406 23.789062 0.421875 23.4375 0.421875 C 23.050781 0.421875 22.722656 0.316406 22.453125 0.109375 C 22.191406 -0.0859375 22.070312 -0.394531 22.09375 -0.8125 L 22.359375 -5.328125 C 22.421875 -6.234375 22.460938 -7.128906 22.484375 -8.015625 C 22.515625 -8.898438 22.546875 -9.789062 22.578125 -10.6875 C 22.609375 -11.59375 22.628906 -12.523438 22.640625 -13.484375 C 22.648438 -14.441406 22.664062 -15.441406 22.6875 -16.484375 C 21.925781 -15.046875 21.144531 -13.675781 20.34375 -12.375 C 19.550781 -11.070312 18.734375 -9.8125 17.890625 -8.59375 C 17.046875 -7.375 16.175781 -6.175781 15.28125 -5 C 15.144531 -4.800781 14.976562 -4.640625 14.78125 -4.515625 C 14.59375 -4.398438 14.359375 -4.34375 14.078125 -4.34375 C 13.835938 -4.34375 13.609375 -4.394531 13.390625 -4.5 C 13.171875 -4.613281 13.003906 -4.789062 12.890625 -5.03125 C 12.328125 -6.007812 11.765625 -6.984375 11.203125 -7.953125 C 10.648438 -8.921875 10.097656 -9.898438 9.546875 -10.890625 C 8.992188 -11.878906 8.429688 -12.882812 7.859375 -13.90625 C 7.296875 -14.925781 6.722656 -15.984375 6.140625 -17.078125 C 6.140625 -15.546875 6.128906 -14.070312 6.109375 -12.65625 C 6.085938 -11.25 6.039062 -9.878906 5.96875 -8.546875 C 5.90625 -7.222656 5.8125 -5.910156 5.6875 -4.609375 C 5.570312 -3.316406 5.414062 -2.019531 5.21875 -0.71875 Z M 5.21875 -0.71875 "/></g></g></g><g fill="#ffffff" fill-opacity="1"><g transform="translate(104.901914, 50.672006)"><g><path d="M 2.8125 -15.21875 C 2.875 -15.5625 3.023438 -15.800781 3.265625 -15.9375 C 3.503906 -16.082031 3.796875 -16.15625 4.140625 -16.15625 C 4.316406 -16.15625 4.484375 -16.125 4.640625 -16.0625 C 4.804688 -16 4.953125 -15.90625 5.078125 -15.78125 C 5.210938 -15.664062 5.3125 -15.523438 5.375 -15.359375 C 5.445312 -15.191406 5.484375 -15 5.484375 -14.78125 C 5.484375 -14.476562 5.421875 -14.054688 5.296875 -13.515625 C 5.179688 -12.972656 5.0625 -12.285156 4.9375 -11.453125 C 4.820312 -10.628906 4.765625 -9.609375 4.765625 -8.390625 C 4.765625 -7.347656 4.859375 -6.351562 5.046875 -5.40625 C 5.234375 -4.457031 5.519531 -3.679688 5.90625 -3.078125 C 6.300781 -2.484375 6.800781 -2.1875 7.40625 -2.1875 C 7.976562 -2.1875 8.523438 -2.410156 9.046875 -2.859375 C 9.566406 -3.304688 10.039062 -3.867188 10.46875 -4.546875 C 10.90625 -5.234375 11.253906 -5.894531 11.515625 -6.53125 L 11.515625 -7.875 C 11.515625 -8.820312 11.53125 -9.738281 11.5625 -10.625 C 11.601562 -11.507812 11.675781 -12.332031 11.78125 -13.09375 C 11.894531 -13.851562 12.050781 -14.492188 12.25 -15.015625 C 12.414062 -15.453125 12.628906 -15.789062 12.890625 -16.03125 C 13.148438 -16.269531 13.457031 -16.390625 13.8125 -16.390625 C 14.15625 -16.390625 14.421875 -16.296875 14.609375 -16.109375 C 14.796875 -15.921875 14.925781 -15.65625 15 -15.3125 C 15.070312 -14.96875 15.109375 -14.566406 15.109375 -14.109375 C 15.109375 -12.890625 15.046875 -11.625 14.921875 -10.3125 C 14.804688 -9.007812 14.566406 -7.738281 14.203125 -6.5 C 14.222656 -6.082031 14.234375 -5.65625 14.234375 -5.21875 C 14.234375 -4.78125 14.238281 -4.335938 14.25 -3.890625 C 14.257812 -3.453125 14.265625 -3.015625 14.265625 -2.578125 C 14.265625 -1.160156 14.171875 0.210938 13.984375 1.546875 C 13.804688 2.890625 13.492188 4.097656 13.046875 5.171875 C 12.597656 6.253906 11.957031 7.109375 11.125 7.734375 C 10.300781 8.367188 9.238281 8.6875 7.9375 8.6875 C 6.757812 8.6875 5.648438 8.421875 4.609375 7.890625 C 3.578125 7.367188 2.78125 6.617188 2.21875 5.640625 C 2.15625 5.492188 2.109375 5.363281 2.078125 5.25 C 2.046875 5.144531 2.03125 5.039062 2.03125 4.9375 C 2.03125 4.6875 2.09375 4.46875 2.21875 4.28125 C 2.351562 4.101562 2.523438 3.957031 2.734375 3.84375 C 2.953125 3.738281 3.160156 3.6875 3.359375 3.6875 C 3.640625 3.6875 3.878906 3.753906 4.078125 3.890625 C 4.273438 4.035156 4.472656 4.25 4.671875 4.53125 C 5.035156 5.082031 5.535156 5.488281 6.171875 5.75 C 6.804688 6.007812 7.40625 6.140625 7.96875 6.140625 C 8.851562 6.140625 9.535156 5.828125 10.015625 5.203125 C 10.492188 4.585938 10.847656 3.648438 11.078125 2.390625 C 11.304688 1.140625 11.46875 -0.453125 11.5625 -2.390625 C 11.082031 -1.648438 10.484375 -0.992188 9.765625 -0.421875 C 9.046875 0.140625 8.25 0.421875 7.375 0.421875 C 6.375 0.421875 5.53125 0.164062 4.84375 -0.34375 C 4.15625 -0.851562 3.597656 -1.53125 3.171875 -2.375 C 2.753906 -3.226562 2.457031 -4.164062 2.28125 -5.1875 C 2.101562 -6.207031 2.015625 -7.222656 2.015625 -8.234375 C 2.015625 -9.015625 2.046875 -9.8125 2.109375 -10.625 C 2.179688 -11.4375 2.28125 -12.234375 2.40625 -13.015625 C 2.539062 -13.804688 2.675781 -14.539062 2.8125 -15.21875 Z M 2.8125 -15.21875 "/></g></g></g><g fill="#ffffff" fill-opacity="1"><g transform="translate(41.039143, 92.620785)"><g><path d="M 16.265625 -21.15625 C 16.390625 -21.039062 16.484375 -20.90625 16.546875 -20.75 C 16.617188 -20.601562 16.65625 -20.429688 16.65625 -20.234375 C 16.65625 -19.992188 16.59375 -19.769531 16.46875 -19.5625 C 16.351562 -19.363281 16.195312 -19.203125 16 -19.078125 C 15.800781 -18.960938 15.570312 -18.90625 15.3125 -18.90625 C 15.132812 -18.90625 14.921875 -18.972656 14.671875 -19.109375 C 14.421875 -19.253906 14.113281 -19.425781 13.75 -19.625 C 13.15625 -19.96875 12.539062 -20.21875 11.90625 -20.375 C 11.28125 -20.539062 10.519531 -20.625 9.625 -20.625 C 8.601562 -20.625 7.75 -20.484375 7.0625 -20.203125 C 6.382812 -19.921875 5.875 -19.550781 5.53125 -19.09375 C 5.195312 -18.632812 5.03125 -18.132812 5.03125 -17.59375 C 5.03125 -16.9375 5.273438 -16.359375 5.765625 -15.859375 C 6.253906 -15.359375 6.882812 -14.898438 7.65625 -14.484375 C 8.425781 -14.078125 9.226562 -13.664062 10.0625 -13.25 C 11.625 -12.507812 12.890625 -11.757812 13.859375 -11 C 14.828125 -10.238281 15.535156 -9.414062 15.984375 -8.53125 C 16.429688 -7.65625 16.65625 -6.660156 16.65625 -5.546875 C 16.65625 -4.679688 16.476562 -3.878906 16.125 -3.140625 C 15.78125 -2.398438 15.285156 -1.75 14.640625 -1.1875 C 13.992188 -0.632812 13.226562 -0.207031 12.34375 0.09375 C 11.46875 0.40625 10.5 0.5625 9.4375 0.5625 C 8.71875 0.5625 7.914062 0.46875 7.03125 0.28125 C 6.15625 0.09375 5.335938 -0.148438 4.578125 -0.453125 C 3.828125 -0.765625 3.226562 -1.082031 2.78125 -1.40625 C 2.226562 -1.882812 1.953125 -2.351562 1.953125 -2.8125 C 1.953125 -3.050781 2.003906 -3.269531 2.109375 -3.46875 C 2.222656 -3.675781 2.375 -3.835938 2.5625 -3.953125 C 2.75 -4.078125 2.941406 -4.140625 3.140625 -4.140625 C 3.304688 -4.140625 3.492188 -4.085938 3.703125 -3.984375 C 3.910156 -3.890625 4.144531 -3.757812 4.40625 -3.59375 C 4.96875 -3.269531 5.648438 -2.925781 6.453125 -2.5625 C 7.265625 -2.207031 8.25 -2.03125 9.40625 -2.03125 C 10.25 -2.03125 11.003906 -2.1875 11.671875 -2.5 C 12.335938 -2.8125 12.867188 -3.226562 13.265625 -3.75 C 13.671875 -4.269531 13.875 -4.847656 13.875 -5.484375 C 13.875 -6.179688 13.679688 -6.84375 13.296875 -7.46875 C 12.921875 -8.101562 12.367188 -8.695312 11.640625 -9.25 C 10.910156 -9.8125 10 -10.320312 8.90625 -10.78125 C 8.164062 -11.125 7.40625 -11.484375 6.625 -11.859375 C 5.84375 -12.242188 5.117188 -12.691406 4.453125 -13.203125 C 3.796875 -13.710938 3.269531 -14.332031 2.875 -15.0625 C 2.476562 -15.789062 2.28125 -16.664062 2.28125 -17.6875 C 2.28125 -18.78125 2.597656 -19.734375 3.234375 -20.546875 C 3.878906 -21.367188 4.765625 -22.015625 5.890625 -22.484375 C 7.015625 -22.960938 8.328125 -23.203125 9.828125 -23.203125 C 11.066406 -23.203125 12.253906 -23.019531 13.390625 -22.65625 C 14.535156 -22.289062 15.492188 -21.789062 16.265625 -21.15625 Z M 16.265625 -21.15625 "/></g></g></g><g fill="#ffffff" fill-opacity="1"><g transform="translate(59.316809, 92.620785)"><g><path d="M 8.453125 0 C 7.347656 0 6.363281 -0.21875 5.5 -0.65625 C 4.644531 -1.09375 3.914062 -1.6875 3.3125 -2.4375 C 2.71875 -3.1875 2.265625 -4.023438 1.953125 -4.953125 C 1.648438 -5.890625 1.5 -6.835938 1.5 -7.796875 C 1.5 -8.804688 1.703125 -9.8125 2.109375 -10.8125 C 2.523438 -11.8125 3.097656 -12.726562 3.828125 -13.5625 C 4.554688 -14.40625 5.398438 -15.078125 6.359375 -15.578125 C 7.316406 -16.078125 8.34375 -16.328125 9.4375 -16.328125 C 10.300781 -16.328125 11.054688 -16.148438 11.703125 -15.796875 C 12.347656 -15.453125 12.851562 -14.976562 13.21875 -14.375 C 13.59375 -13.78125 13.78125 -13.082031 13.78125 -12.28125 C 13.78125 -11.445312 13.570312 -10.65625 13.15625 -9.90625 C 12.738281 -9.15625 12.148438 -8.550781 11.390625 -8.09375 C 10.367188 -7.394531 9.253906 -6.910156 8.046875 -6.640625 C 6.835938 -6.367188 5.613281 -6.210938 4.375 -6.171875 C 4.53125 -5.585938 4.785156 -5.015625 5.140625 -4.453125 C 5.503906 -3.898438 5.972656 -3.4375 6.546875 -3.0625 C 7.117188 -2.695312 7.796875 -2.515625 8.578125 -2.515625 C 9.316406 -2.515625 10.03125 -2.726562 10.71875 -3.15625 C 11.40625 -3.59375 12 -4.085938 12.5 -4.640625 C 12.613281 -4.804688 12.742188 -4.914062 12.890625 -4.96875 C 13.046875 -5.03125 13.195312 -5.0625 13.34375 -5.0625 C 13.582031 -5.0625 13.800781 -5 14 -4.875 C 14.195312 -4.757812 14.351562 -4.601562 14.46875 -4.40625 C 14.59375 -4.207031 14.65625 -3.988281 14.65625 -3.75 C 14.675781 -3.582031 14.65625 -3.425781 14.59375 -3.28125 C 14.53125 -3.132812 14.429688 -2.988281 14.296875 -2.84375 C 13.554688 -2.039062 12.691406 -1.363281 11.703125 -0.8125 C 10.710938 -0.269531 9.628906 0 8.453125 0 Z M 4.25 -8.625 C 5.050781 -8.664062 5.789062 -8.726562 6.46875 -8.8125 C 7.144531 -8.90625 7.851562 -9.101562 8.59375 -9.40625 C 9.257812 -9.664062 9.84375 -10.039062 10.34375 -10.53125 C 10.84375 -11.019531 11.09375 -11.613281 11.09375 -12.3125 C 11.09375 -12.59375 11.023438 -12.847656 10.890625 -13.078125 C 10.765625 -13.304688 10.578125 -13.492188 10.328125 -13.640625 C 10.078125 -13.796875 9.75 -13.875 9.34375 -13.875 C 8.707031 -13.875 8.097656 -13.710938 7.515625 -13.390625 C 6.941406 -13.078125 6.425781 -12.664062 5.96875 -12.15625 C 5.507812 -11.644531 5.132812 -11.078125 4.84375 -10.453125 C 4.550781 -9.835938 4.351562 -9.226562 4.25 -8.625 Z M 4.25 -8.625 "/></g></g></g><g fill="#ffffff" fill-opacity="1"><g transform="translate(75.227363, 92.620785)"><g><path d="M 2.96875 -15.078125 C 2.988281 -15.492188 3.140625 -15.804688 3.421875 -16.015625 C 3.703125 -16.222656 4.03125 -16.328125 4.40625 -16.328125 C 4.757812 -16.328125 5.066406 -16.234375 5.328125 -16.046875 C 5.585938 -15.859375 5.71875 -15.566406 5.71875 -15.171875 C 5.71875 -15.046875 5.71875 -14.890625 5.71875 -14.703125 C 5.71875 -14.515625 5.710938 -14.300781 5.703125 -14.0625 C 5.691406 -13.832031 5.671875 -13.582031 5.640625 -13.3125 C 6.210938 -14.300781 6.875 -15.039062 7.625 -15.53125 C 8.375 -16.019531 9.207031 -16.265625 10.125 -16.265625 C 10.582031 -16.265625 11.078125 -16.203125 11.609375 -16.078125 C 12.140625 -15.953125 12.6875 -15.71875 13.25 -15.375 C 13.488281 -15.238281 13.65625 -15.066406 13.75 -14.859375 C 13.851562 -14.660156 13.894531 -14.421875 13.875 -14.140625 C 13.851562 -13.703125 13.71875 -13.367188 13.46875 -13.140625 C 13.21875 -12.910156 12.914062 -12.796875 12.5625 -12.796875 C 12.351562 -12.796875 12.164062 -12.832031 12 -12.90625 C 11.832031 -12.988281 11.671875 -13.082031 11.515625 -13.1875 C 11.304688 -13.300781 11.09375 -13.414062 10.875 -13.53125 C 10.65625 -13.644531 10.378906 -13.703125 10.046875 -13.703125 C 8.859375 -13.703125 7.910156 -13.113281 7.203125 -11.9375 C 6.492188 -10.769531 5.910156 -9.269531 5.453125 -7.4375 C 5.429688 -6.75 5.414062 -6.109375 5.40625 -5.515625 C 5.394531 -4.929688 5.378906 -4.367188 5.359375 -3.828125 C 5.335938 -3.296875 5.320312 -2.78125 5.3125 -2.28125 C 5.300781 -1.78125 5.296875 -1.289062 5.296875 -0.8125 C 5.296875 -0.550781 5.234375 -0.328125 5.109375 -0.140625 C 4.984375 0.0351562 4.8125 0.164062 4.59375 0.25 C 4.382812 0.34375 4.160156 0.390625 3.921875 0.390625 C 3.484375 0.390625 3.15625 0.257812 2.9375 0 C 2.71875 -0.257812 2.566406 -0.601562 2.484375 -1.03125 C 2.410156 -1.457031 2.375 -1.921875 2.375 -2.421875 C 2.375 -2.828125 2.382812 -3.328125 2.40625 -3.921875 C 2.4375 -4.523438 2.476562 -5.125 2.53125 -5.71875 C 2.582031 -6.320312 2.640625 -6.820312 2.703125 -7.21875 Z M 2.96875 -15.078125 "/></g></g></g><g fill="#ffffff" fill-opacity="1"><g transform="translate(89.160332, 92.620785)"><g><path d="M 0.875 -14.46875 C 0.851562 -14.570312 0.832031 -14.65625 0.8125 -14.71875 C 0.789062 -14.789062 0.78125 -14.867188 0.78125 -14.953125 C 0.78125 -15.316406 0.921875 -15.613281 1.203125 -15.84375 C 1.492188 -16.070312 1.820312 -16.1875 2.1875 -16.1875 C 2.488281 -16.1875 2.753906 -16.109375 2.984375 -15.953125 C 3.210938 -15.804688 3.367188 -15.570312 3.453125 -15.25 C 3.742188 -14.332031 4.054688 -13.414062 4.390625 -12.5 C 4.722656 -11.59375 5.054688 -10.671875 5.390625 -9.734375 C 5.734375 -8.796875 6.066406 -7.847656 6.390625 -6.890625 C 6.722656 -5.929688 7.039062 -4.953125 7.34375 -3.953125 C 7.78125 -5.054688 8.195312 -6.109375 8.59375 -7.109375 C 9 -8.117188 9.394531 -9.085938 9.78125 -10.015625 C 10.175781 -10.953125 10.578125 -11.867188 10.984375 -12.765625 C 11.390625 -13.660156 11.820312 -14.539062 12.28125 -15.40625 C 12.40625 -15.644531 12.5625 -15.816406 12.75 -15.921875 C 12.9375 -16.035156 13.132812 -16.09375 13.34375 -16.09375 C 13.582031 -16.09375 13.816406 -16.03125 14.046875 -15.90625 C 14.273438 -15.789062 14.460938 -15.640625 14.609375 -15.453125 C 14.753906 -15.265625 14.828125 -15.046875 14.828125 -14.796875 C 14.828125 -14.703125 14.804688 -14.582031 14.765625 -14.4375 C 14.734375 -14.300781 14.632812 -14.101562 14.46875 -13.84375 C 14.226562 -13.40625 13.898438 -12.726562 13.484375 -11.8125 C 13.066406 -10.90625 12.601562 -9.882812 12.09375 -8.75 C 11.582031 -7.613281 11.082031 -6.472656 10.59375 -5.328125 C 10.101562 -4.191406 9.660156 -3.171875 9.265625 -2.265625 C 8.878906 -1.359375 8.597656 -0.679688 8.421875 -0.234375 C 8.335938 -0.015625 8.179688 0.144531 7.953125 0.25 C 7.722656 0.363281 7.46875 0.421875 7.1875 0.421875 C 6.875 0.421875 6.582031 0.332031 6.3125 0.15625 C 6.039062 -0.0078125 5.851562 -0.25 5.75 -0.5625 C 5.4375 -1.75 5.078125 -2.921875 4.671875 -4.078125 C 4.273438 -5.234375 3.851562 -6.390625 3.40625 -7.546875 C 2.96875 -8.710938 2.535156 -9.867188 2.109375 -11.015625 C 1.679688 -12.160156 1.269531 -13.3125 0.875 -14.46875 Z M 0.875 -14.46875 "/></g></g></g><g fill="#ffffff" fill-opacity="1"><g transform="translate(104.381729, 92.620785)"><g><path d="M 3.109375 -15.015625 C 3.109375 -15.296875 3.171875 -15.523438 3.296875 -15.703125 C 3.429688 -15.878906 3.601562 -16.015625 3.8125 -16.109375 C 4.03125 -16.203125 4.25 -16.25 4.46875 -16.25 C 4.863281 -16.25 5.195312 -16.144531 5.46875 -15.9375 C 5.738281 -15.738281 5.875 -15.429688 5.875 -15.015625 C 5.875 -13.578125 5.847656 -12.296875 5.796875 -11.171875 C 5.742188 -10.054688 5.6875 -8.988281 5.625 -7.96875 C 5.570312 -6.945312 5.519531 -5.875 5.46875 -4.75 C 5.414062 -3.625 5.378906 -2.320312 5.359375 -0.84375 C 5.359375 -0.457031 5.226562 -0.144531 4.96875 0.09375 C 4.707031 0.332031 4.390625 0.453125 4.015625 0.453125 C 3.617188 0.453125 3.316406 0.359375 3.109375 0.171875 C 2.910156 -0.00390625 2.773438 -0.226562 2.703125 -0.5 C 2.640625 -0.78125 2.609375 -1.070312 2.609375 -1.375 C 2.609375 -1.550781 2.625 -1.988281 2.65625 -2.6875 C 2.6875 -3.394531 2.722656 -4.257812 2.765625 -5.28125 C 2.816406 -6.3125 2.875 -7.410156 2.9375 -8.578125 C 3 -9.753906 3.039062 -10.898438 3.0625 -12.015625 C 3.09375 -13.140625 3.109375 -14.140625 3.109375 -15.015625 Z M 2.703125 -21.34375 C 2.703125 -21.675781 2.773438 -22.015625 2.921875 -22.359375 C 3.066406 -22.710938 3.269531 -23.007812 3.53125 -23.25 C 3.789062 -23.488281 4.09375 -23.609375 4.4375 -23.609375 C 5.070312 -23.609375 5.546875 -23.476562 5.859375 -23.21875 C 6.171875 -22.96875 6.375 -22.679688 6.46875 -22.359375 C 6.570312 -22.035156 6.625 -21.785156 6.625 -21.609375 C 6.625 -21.066406 6.414062 -20.578125 6 -20.140625 C 5.59375 -19.703125 5.113281 -19.484375 4.5625 -19.484375 C 4.0625 -19.484375 3.625 -19.660156 3.25 -20.015625 C 2.882812 -20.378906 2.703125 -20.820312 2.703125 -21.34375 Z M 2.703125 -21.34375 "/></g></g></g><g fill="#ffffff" fill-opacity="1"><g transform="translate(112.771483, 92.620785)"><g><path d="M 7.96875 0.125 C 6.894531 0.125 5.957031 -0.117188 5.15625 -0.609375 C 4.351562 -1.097656 3.679688 -1.75 3.140625 -2.5625 C 2.609375 -3.375 2.207031 -4.257812 1.9375 -5.21875 C 1.664062 -6.175781 1.53125 -7.113281 1.53125 -8.03125 C 1.53125 -9.113281 1.710938 -10.148438 2.078125 -11.140625 C 2.453125 -12.140625 2.972656 -13.035156 3.640625 -13.828125 C 4.304688 -14.617188 5.085938 -15.238281 5.984375 -15.6875 C 6.890625 -16.132812 7.875 -16.359375 8.9375 -16.359375 C 9.6875 -16.359375 10.421875 -16.253906 11.140625 -16.046875 C 11.867188 -15.835938 12.519531 -15.503906 13.09375 -15.046875 C 13.675781 -14.585938 14.109375 -13.976562 14.390625 -13.21875 C 14.421875 -13.132812 14.445312 -13.054688 14.46875 -12.984375 C 14.488281 -12.921875 14.5 -12.847656 14.5 -12.765625 C 14.5 -12.503906 14.425781 -12.28125 14.28125 -12.09375 C 14.144531 -11.90625 13.972656 -11.757812 13.765625 -11.65625 C 13.554688 -11.5625 13.34375 -11.515625 13.125 -11.515625 C 12.863281 -11.515625 12.644531 -11.578125 12.46875 -11.703125 C 12.289062 -11.828125 12.109375 -12.050781 11.921875 -12.375 C 11.609375 -12.957031 11.171875 -13.347656 10.609375 -13.546875 C 10.046875 -13.742188 9.523438 -13.84375 9.046875 -13.84375 C 8.546875 -13.84375 8.019531 -13.722656 7.46875 -13.484375 C 6.925781 -13.242188 6.414062 -12.878906 5.9375 -12.390625 C 5.457031 -11.898438 5.066406 -11.289062 4.765625 -10.5625 C 4.460938 -9.832031 4.3125 -8.976562 4.3125 -8 C 4.3125 -7.175781 4.445312 -6.335938 4.71875 -5.484375 C 4.988281 -4.628906 5.394531 -3.910156 5.9375 -3.328125 C 6.488281 -2.742188 7.1875 -2.441406 8.03125 -2.421875 C 8.875 -2.421875 9.664062 -2.695312 10.40625 -3.25 C 11.144531 -3.800781 11.78125 -4.382812 12.3125 -5 C 12.457031 -5.144531 12.59375 -5.25 12.71875 -5.3125 C 12.851562 -5.382812 12.988281 -5.421875 13.125 -5.421875 C 13.363281 -5.421875 13.582031 -5.351562 13.78125 -5.21875 C 13.976562 -5.09375 14.140625 -4.929688 14.265625 -4.734375 C 14.398438 -4.535156 14.46875 -4.316406 14.46875 -4.078125 C 14.46875 -3.929688 14.445312 -3.789062 14.40625 -3.65625 C 14.375 -3.519531 14.273438 -3.367188 14.109375 -3.203125 C 13.316406 -2.304688 12.390625 -1.523438 11.328125 -0.859375 C 10.265625 -0.203125 9.144531 0.125 7.96875 0.125 Z M 7.96875 0.125 "/></g></g></g><g fill="#ffffff" fill-opacity="1"><g transform="translate(128.412365, 92.620785)"><g><path d="M 8.453125 0 C 7.347656 0 6.363281 -0.21875 5.5 -0.65625 C 4.644531 -1.09375 3.914062 -1.6875 3.3125 -2.4375 C 2.71875 -3.1875 2.265625 -4.023438 1.953125 -4.953125 C 1.648438 -5.890625 1.5 -6.835938 1.5 -7.796875 C 1.5 -8.804688 1.703125 -9.8125 2.109375 -10.8125 C 2.523438 -11.8125 3.097656 -12.726562 3.828125 -13.5625 C 4.554688 -14.40625 5.398438 -15.078125 6.359375 -15.578125 C 7.316406 -16.078125 8.34375 -16.328125 9.4375 -16.328125 C 10.300781 -16.328125 11.054688 -16.148438 11.703125 -15.796875 C 12.347656 -15.453125 12.851562 -14.976562 13.21875 -14.375 C 13.59375 -13.78125 13.78125 -13.082031 13.78125 -12.28125 C 13.78125 -11.445312 13.570312 -10.65625 13.15625 -9.90625 C 12.738281 -9.15625 12.148438 -8.550781 11.390625 -8.09375 C 10.367188 -7.394531 9.253906 -6.910156 8.046875 -6.640625 C 6.835938 -6.367188 5.613281 -6.210938 4.375 -6.171875 C 4.53125 -5.585938 4.785156 -5.015625 5.140625 -4.453125 C 5.503906 -3.898438 5.972656 -3.4375 6.546875 -3.0625 C 7.117188 -2.695312 7.796875 -2.515625 8.578125 -2.515625 C 9.316406 -2.515625 10.03125 -2.726562 10.71875 -3.15625 C 11.40625 -3.59375 12 -4.085938 12.5 -4.640625 C 12.613281 -4.804688 12.742188 -4.914062 12.890625 -4.96875 C 13.046875 -5.03125 13.195312 -5.0625 13.34375 -5.0625 C 13.582031 -5.0625 13.800781 -5 14 -4.875 C 14.195312 -4.757812 14.351562 -4.601562 14.46875 -4.40625 C 14.59375 -4.207031 14.65625 -3.988281 14.65625 -3.75 C 14.675781 -3.582031 14.65625 -3.425781 14.59375 -3.28125 C 14.53125 -3.132812 14.429688 -2.988281 14.296875 -2.84375 C 13.554688 -2.039062 12.691406 -1.363281 11.703125 -0.8125 C 10.710938 -0.269531 9.628906 0 8.453125 0 Z M 4.25 -8.625 C 5.050781 -8.664062 5.789062 -8.726562 6.46875 -8.8125 C 7.144531 -8.90625 7.851562 -9.101562 8.59375 -9.40625 C 9.257812 -9.664062 9.84375 -10.039062 10.34375 -10.53125 C 10.84375 -11.019531 11.09375 -11.613281 11.09375 -12.3125 C 11.09375 -12.59375 11.023438 -12.847656 10.890625 -13.078125 C 10.765625 -13.304688 10.578125 -13.492188 10.328125 -13.640625 C 10.078125 -13.796875 9.75 -13.875 9.34375 -13.875 C 8.707031 -13.875 8.097656 -13.710938 7.515625 -13.390625 C 6.941406 -13.078125 6.425781 -12.664062 5.96875 -12.15625 C 5.507812 -11.644531 5.132812 -11.078125 4.84375 -10.453125 C 4.550781 -9.835938 4.351562 -9.226562 4.25 -8.625 Z M 4.25 -8.625 "/></g></g></g><g fill="#ffffff" fill-opacity="1"><g transform="translate(144.173104, 92.620785)"><g><path d="M 12.25 -14.109375 C 12.394531 -13.953125 12.488281 -13.789062 12.53125 -13.625 C 12.570312 -13.46875 12.59375 -13.320312 12.59375 -13.1875 C 12.59375 -12.945312 12.523438 -12.726562 12.390625 -12.53125 C 12.265625 -12.34375 12.097656 -12.191406 11.890625 -12.078125 C 11.691406 -11.972656 11.484375 -11.921875 11.265625 -11.921875 C 11.066406 -11.921875 10.882812 -11.972656 10.71875 -12.078125 C 10.5625 -12.179688 10.414062 -12.300781 10.28125 -12.4375 C 10.082031 -12.738281 9.75 -13.035156 9.28125 -13.328125 C 8.8125 -13.628906 8.222656 -13.78125 7.515625 -13.78125 C 6.859375 -13.78125 6.289062 -13.617188 5.8125 -13.296875 C 5.332031 -12.984375 5.09375 -12.566406 5.09375 -12.046875 C 5.09375 -11.429688 5.296875 -10.960938 5.703125 -10.640625 C 6.117188 -10.316406 6.785156 -9.925781 7.703125 -9.46875 C 8.398438 -9.125 9.070312 -8.71875 9.71875 -8.25 C 10.375 -7.78125 10.914062 -7.210938 11.34375 -6.546875 C 11.769531 -5.878906 11.984375 -5.078125 11.984375 -4.140625 C 11.984375 -3.335938 11.785156 -2.601562 11.390625 -1.9375 C 11.003906 -1.28125 10.457031 -0.753906 9.75 -0.359375 C 9.039062 0.0351562 8.195312 0.234375 7.21875 0.234375 C 6.125 0.234375 5.035156 -0.0078125 3.953125 -0.5 C 2.878906 -0.988281 1.960938 -1.5625 1.203125 -2.21875 C 1.054688 -2.332031 0.953125 -2.460938 0.890625 -2.609375 C 0.835938 -2.765625 0.8125 -2.914062 0.8125 -3.0625 C 0.8125 -3.414062 0.941406 -3.738281 1.203125 -4.03125 C 1.460938 -4.320312 1.757812 -4.46875 2.09375 -4.46875 C 2.195312 -4.46875 2.300781 -4.445312 2.40625 -4.40625 C 2.519531 -4.363281 2.644531 -4.296875 2.78125 -4.203125 C 3.425781 -3.703125 4.125 -3.25 4.875 -2.84375 C 5.625 -2.445312 6.335938 -2.25 7.015625 -2.25 C 7.773438 -2.25 8.328125 -2.421875 8.671875 -2.765625 C 9.023438 -3.117188 9.203125 -3.515625 9.203125 -3.953125 C 9.203125 -4.671875 8.925781 -5.296875 8.375 -5.828125 C 7.820312 -6.359375 7.109375 -6.8125 6.234375 -7.1875 C 5.316406 -7.613281 4.5625 -8.066406 3.96875 -8.546875 C 3.382812 -9.023438 2.957031 -9.546875 2.6875 -10.109375 C 2.414062 -10.679688 2.28125 -11.304688 2.28125 -11.984375 C 2.28125 -12.828125 2.523438 -13.566406 3.015625 -14.203125 C 3.503906 -14.847656 4.144531 -15.347656 4.9375 -15.703125 C 5.738281 -16.066406 6.597656 -16.25 7.515625 -16.25 C 8.460938 -16.25 9.363281 -16.0625 10.21875 -15.6875 C 11.082031 -15.320312 11.757812 -14.796875 12.25 -14.109375 Z M 12.25 -14.109375 "/></g></g></g></svg>